<?xml version="1.0" encoding="UTF-8"?>
<svg id="Layer_1" data-name="Layer 1" xmlns="http://www.w3.org/2000/svg" version="1.1" viewBox="0 0 410 294">
  <defs>
    <style>
      .cls-1 {
        fill: #94268a;
      }

      .cls-1, .cls-2, .cls-3, .cls-4, .cls-5, .cls-6 {
        stroke-width: 0px;
      }

      .cls-2 {
        fill: #5e56a4;
      }

      .cls-3 {
        fill: #00af4c;
      }

      .cls-7 {
        opacity: .8;
      }

      .cls-4 {
        fill: #faec00;
      }

      .cls-5 {
        fill: #f37c20;
      }

      .cls-6 {
        fill: #ec1940;
      }
    </style>
  </defs>
  <g class="cls-7">
    <path class="cls-5" d="M74.1,236.1c1.6,2.8,5.3,3.4,8.5,3.5,9.7.3,18.9-1.6,27.8-5.5,1.3-.4,2.2-1.2,3-2.3.8-1.5.1-3.3-.5-4.9l-31.8-78.9c-.3-.7-.8-1.3-1.4-1.7-.6-.4-1.3-.6-2.1-.6h-2.6c-.5,0-1,.1-1.4.3-.5.2-.9.5-1.2.8-.3.4-.6.8-.8,1.2-.2.5-.3.9-.3,1.4l2,81.8c0,1.6.2,3.2.9,4.7Z"/>
    <path class="cls-2" d="M195.2,59.7l54.9,60.6c1,1.3,2.3,2.3,3.8,3,3,1.1,6.3-.8,8.8-2.9,7.5-6.1,13.3-13.5,17.5-22.3.7-1.1.9-2.4.8-3.7-.4-1.6-2.1-2.6-3.5-3.4l-75.7-39c-.7-.4-1.4-.5-2.2-.4-.8,0-1.4.4-2,.9l-1.9,1.7c-.4.3-.7.7-.9,1.2-.2.4-.3.9-.4,1.4,0,.5,0,1,.2,1.4.2.5.4.9.8,1.3Z"/>
    <path class="cls-4" d="M129.6,174.4c3.3,9.3,7.9,21.7,14.2,36.3.3.6.7,1.2,1.1,1.7.5.5,1.1.9,1.7,1.2.6.3,1.3.5,2,.5.7,0,1.4,0,2.1-.3,8.8-2.8,17.2-6.5,25.2-11.2,1.5-.9,3.1-2,3.4-3.8.2-1.3-.6-2.5-1.3-3.7-2.7-4.3-38.3-54.8-44.6-66.3-.5-.9-1.7-3.1-3.9-3.7-3-.8-6.8,1.5-9.6,3.8-.6.5-1.1,1-1.5,1.6-.4.6-.7,1.3-1,2-.2.7-.3,1.5-.3,2.2,0,.7.1,1.5.3,2.2,2.4,7.8,7.6,24.2,12.2,37.3Z"/>
    <path class="cls-1" d="M217.1,14c.3.7.7,1.3,1.2,1.9.5.6,1.1,1,1.7,1.4,7,4.2,21.7,13,33.9,19.8,8.6,4.8,20.3,11,34.7,17.7.6.3,1.3.5,2,.5.7,0,1.4,0,2.1-.2.7-.2,1.3-.5,1.8-1,.6-.4,1-.9,1.4-1.5,4.8-7.9,8.6-16.3,11.5-25.1.5-1.7,1-3.6,0-5-.7-1.1-2.1-1.5-3.4-1.9-4.9-1.5-65.1-15.6-77.4-20-1-.3-3.3-1.2-5.4-.2-2.8,1.4-4.1,5.6-4.7,9.2-.1.7-.1,1.5,0,2.2,0,.7.3,1.5.6,2.1Z"/>
    <path class="cls-3" d="M160.6,109.3l48.8,59c1,1.2,2.1,2.4,3.6,2.6,1.1,0,2-.3,2.9-.9,6-3.2,11.7-7.1,16.8-11.6,4.1-3.6,8.4-8.6,3.9-14.6-1-1.3-2.2-2.4-3.6-3.2l-46-29c-1.7-1.1-7.4-4.7-16.7-10.5l-1.6-1c-.6-.4-1.2-.6-1.9-.8-.7-.2-1.3-.2-2-.1s-1.3.3-2,.5c-.6.3-1.2.7-1.7,1.1h0c-.6.6-1,1.3-1.4,2-.3.7-.5,1.5-.6,2.2,0,.8,0,1.5.3,2.3.2.7.6,1.4,1.1,2Z"/>
    <path class="cls-6" d="M.5,228.4c.6.8,1.4,1.4,2.4,1.8,6.1,3,12.6,5.3,19.2,6.8,5.3,1.2,11.9,1.7,14.1-5.5.5-1.6.6-3.2.5-4.8l-3.4-54.2c-.1-2-.5-8.8-1.2-19.7v-1.9c-.2-.7-.3-1.3-.6-2-.3-.6-.6-1.2-1.1-1.7-.5-.5-1-.9-1.6-1.3-.6-.3-1.2-.6-1.9-.7h0c-.8-.2-1.5-.2-2.3,0-.8.1-1.5.4-2.1.9-.7.4-1.2.9-1.7,1.6-.5.6-.8,1.3-1,2.1-6.5,24.7-12.9,49.5-19.4,74.2-.4,1.5-.7,3.1,0,4.4Z"/>
  </g>
</svg>