<?xml version="1.0" encoding="UTF-8"?>
<svg id="Layer_1" data-name="Layer 1" xmlns="http://www.w3.org/2000/svg" version="1.1" viewBox="0 0 410 294">
  <defs>
    <style>
      .cls-1 {
        opacity: .5;
      }

      .cls-2 {
        fill: #00a0e0;
        stroke-width: 0px;
      }
    </style>
  </defs>
  <g class="cls-1">
    <path class="cls-2" d="M282.8,75.8s0,0,0,0c0,0,0,0,0,0Z"/>
    <path class="cls-2" d="M281.8,76.8c-.4.3-1.1.7-1.5.9,0,0,0,.1,0,0-.4.3-2.8,2.2-3.2-.3-.2-.3,3.1-2.4,3.8-2.8,1.5,0-.4-1.8,1.9,1.1,0-.2-.9.9-.9.9h0Z"/>
    <path class="cls-2" d="M271,87.3s0,.1,0,.2c0,0,0-.1,0-.2Z"/>
    <path class="cls-2" d="M269.5,89.7c-.7.9-1.6,2.1-2.2,2.8,0,.2,0,.2,0,.1,0,.1-.1.2-.2.2h0c.2-.1-3.6,5.3-4.2,2.3,0,0,.2-.4,0-.1,1.2-2.3,3.4-5.5,5.3-7.4h0c1.9-1.4,0-1.9,2.6-.1.1-.3-1.4,2-1.4,2.2h0Z"/>
    <path class="cls-2" d="M259.4,106s0,.1,0,.2c0,0,0-.1,0-.2Z"/>
    <path class="cls-2" d="M258.4,108.7c-.5,1-1.2,2.4-1.6,3.2,0,.2,0,.2,0,.1,0,.1,0,.2-.2.3h0c.2-.2-2.7,5.9-3.7,3,0,0,.2-.5,0,0,.8-2.4,2.3-6,3.8-8.3,1.6-1.7-.4-1.8,2.6-.7,0-.3-1,2.2-.9,2.4h0Z"/>
    <path class="cls-2" d="M251.4,126.6s0,.1,0,.2c0,0,0,0,0-.2Z"/>
    <path class="cls-2" d="M246.9,136.9h0s0,0,0,0Z"/>
    <path class="cls-2" d="M250.9,129.4c-.3,1.1-.7,2.6-1,3.5,0,.2,0,.2,0,.1,0,.1,0,.2,0,.3h0c.2-.2-1.4,6.3-3,3.7,0,0,0-.5,0,0,.2-2.5,1-6.4,2.1-8.9,1.2-2-.8-1.7,2.4-1.1,0-.3-.6,2.3-.4,2.6Z"/>
    <path class="cls-2" d="M248.3,148.2s0,0,0,.1c0,0,0,0,0-.1Z"/>
    <path class="cls-2" d="M248.8,151c.2,1.1.3,2.6.4,3.5,0,.2.1.2.1,0,0,.1,0,.2,0,.3h0s1.5,6-1,4.7c0,0-.2-.5,0,0-1-2.2-1.9-6.4-1.8-9.1h0c.5-2.3-1.2-1.4,1.9-1.8-.1-.4.3,2.4.4,2.5h0Z"/>
    <path class="cls-2" d="M256.9,166.7s.1,0,.2,0c0,0-.1,0-.2,0Z"/>
    <path class="cls-2" d="M266.9,171.7h0s0,0,0,0Z"/>
    <path class="cls-2" d="M259.4,167.8c1,.4,2.3.9,3.2,1.2.2,0,.2,0,.1,0,.1,0,.2,0,.3,0h0c0,0,6,.8,4,2.6,0,0-.5,0,0,0-1,0-2.1,0-3.3-.3-2.1-.4-4.1-1.1-5.9-2-1.7-1.6-2,.1-.5-2.6-.5-.1,2.2,1,2.3,1h0Z"/>
    <path class="cls-2" d="M277.1,166.9s0-.1,0-.1c0,0,0,0,0,.1Z"/>
    <path class="cls-2" d="M285.3,159.5h0s0,0,0,0Z"/>
    <path class="cls-2" d="M279.1,165.2c.7-.7,1.7-1.8,2.2-2.5,0-.2,0-.2,0-.1,0,0,.1-.1.2-.2h0s2.6-5.4,3.7-3c0,0-.1.5,0,.1-.3,1-.6,2-1.3,3.1-1,1.7-2.3,3.8-4,4.8h0c-2.2.9-1.1,1.4-2.6-.7-.3.4,1.8-1.5,1.8-1.6h0Z"/>
    <path class="cls-2" d="M283.3,147.4s0,0-.1,0c0,0,0,0,.1,0Z"/>
    <path class="cls-2" d="M282,145.5c-.5-.8-1.3-1.9-1.7-2.6-.1-.1-.2,0-.1,0,0,0,0-.1-.1-.2h0c0-.2-4-3.7-1.3-4.2,0,0,.4.3.1,0,1.8,1.1,4.7,4.3,5.5,6.5.5,2.1,1.3,1-1.1,2.3.2.3-1.1-1.8-1.3-1.8h0Z"/>
    <path class="cls-2" d="M267.8,135.4s-.1,0-.2,0c0,0,.1,0,.2,0Z"/>
    <path class="cls-2" d="M257.2,131.6h0s0,0,0,0Z"/>
    <path class="cls-2" d="M265.1,134.9c-1.1-.2-2.5-.5-3.4-.7-.2,0-.2,0-.1,0-.1,0-.2,0-.3,0h0c.3.2-6.4-.7-4.1-2.5,0,0,.5,0,0,0,2.4-.2,6.9.1,9.2,1.3h0c2,1.2,1.8-.8,1.1,2.4.5,0-2.5-.5-2.5-.4h0Z"/>
    <path class="cls-2" d="M245.1,136s0,0,0,.1c0,0,0,0,0-.1Z"/>
    <path class="cls-2" d="M242.9,137.2c-.9.4-2.1.9-2.9,1.1-.1,0-.1.1,0,.1,0,0-.2,0-.2,0h0s-5.1,2.4-4.3-.4c0,0,.4-.2,0,0,1.7-1.1,5-2.7,7.2-3.2h0c2-.1,1-1.1,2.2,1.3.2-.2-1.9.9-2,1.1h0Z"/>
    <path class="cls-2" d="M226.8,145.4s0,0,0,.1c0,0,0-.1,0-.1Z"/>
    <path class="cls-2" d="M224.4,147c-.7.4-2.2,1.6-3.1,1.6.2,0-.3,0-.2,0-.1.1-.2.2,0,.1-.1,0-.2.1-.3,0h0c.4,0-6,2.9-4.8,0,0,0,.4-.3,0-.1,2-1.4,5.4-3.3,8-4.2h0c2.3-.4.6-1.7,2.5.9.2-.2-2.1,1.2-2.2,1.5h0Z"/>
    <path class="cls-2" d="M207.2,156s0,0-.1.1c0,0,0-.1.1-.1Z"/>
    <path class="cls-2" d="M204.7,157.5c-1,.5-2.4,1.1-3.4,1.4-.2.1-.2.2,0,.1-.1,0-.2,0-.3,0h0c.3,0-6.1,2.5-4.8-.3,0,0,.4-.2,0,0,2.1-1.3,5.6-2.9,8.2-3.6h0c2.3-.3.8-1.6,2.5,1.1.3-.2-2.2,1.1-2.3,1.3h0Z"/>
    <path class="cls-2" d="M186.4,164.6s0,0-.1,0c0,0,0,0,.1,0Z"/>
    <path class="cls-2" d="M183.7,165.6c-1.1.3-2.6.6-3.6.7-.2,0-.2.1,0,.1-.1,0-.2,0-.3,0h0c.4.1-6.6,1-4.6-1.4,0,0,.5-.1,0,0,2.4-.7,6.1-1.5,8.8-1.7h0c2.3.1,1-1.4,2.2,1.5.3-.2-2.3.6-2.5.9Z"/>
    <path class="cls-2" d="M164.3,168.3s0,0-.1,0c0,0,0,0,.1,0Z"/>
    <path class="cls-2" d="M153.4,165.5h0s0,0,0,0Z"/>
    <path class="cls-2" d="M161.3,168.6c-.8,0-2.8.3-3.5-.2.2,0-.3-.2-.2,0-.2,0-.2,0-.1,0-.1,0-.2,0-.3,0h0c.4.2-6.7-1-4-2.7,0,0,.5,0,0,0,2.6.1,6.1.4,8.8.8h0c2.1.7,1.4-1.2,1.8,2,0,0-2,.2-2.7.2h0Z"/>
    <path class="cls-2" d="M142,164.4s-.1,0-.2,0c0,0,.1,0,.2,0Z"/>
    <path class="cls-2" d="M139.3,163c-.7-.5-2.5-1.5-2.7-2.5.1.2-.1-.3,0-.2-.2-.1-.2-.1-.1,0,0,0-.1-.2-.2-.3h0c.1.4-4-5.7-.6-4.7,0,0,.3.4,0,0,1.6,2.2,3.1,4.6,5.6,6.2,1.4,1.7,1.8-.4.5,2.6,0,0-1.8-.9-2.5-1.3h0Z"/>
    <path class="cls-2" d="M132.5,144.7s0-.1,0-.2c0,0,0,.1,0,.2Z"/>
    <path class="cls-2" d="M133.6,141.8c.4-.7,1.3-2.6,2.2-2.9-.1.1.3-.1.2-.1,0-.2,0-.2,0-.1,0,0,.1-.2.2-.2h0c-.5.2,5.3-4.6,4.6-1.2,0,0-.3.3,0,.1-1.9,1.9-4.2,3.8-5.6,6.3-1.6,1.6.2,1.4-2.5.8,0,0,.6-2,1-2.7h0Z"/>
    <path class="cls-2" d="M149.9,130.6s0,0,.1,0c0,0,0,0-.1,0Z"/>
    <path class="cls-2" d="M161,132.3h0s0,0,0,0Z"/>
    <path class="cls-2" d="M152.8,129.9c1.2-.2,2.8-.2,3.8,0,.2,0,.2,0,0,0,.1,0,.2,0,.3,0h0c-.3-.2,6.7.5,4.1,2.5,0,0-.5,0,0,0-2.7,0-5.8-.4-8.7,0-2.2-.3-1.1,1.4-2.1-1.7-.3.2,2.2-1,2.6-.7h0Z"/>
    <path class="cls-2" d="M172.3,133.4s.1,0,.2,0c0,0-.1,0-.2,0Z"/>
    <path class="cls-2" d="M175,134.5c1.1.6,2.3,1.5,3.1,2.2.2,0,.2,0,.1,0,.1,0,.2.1.2.2h0c-.1-.3,5.2,4.2,1.9,4.4,0,0-.4-.3-.1,0-2.2-1.5-4.6-3.8-7-5.2-1.6-1.6-1.7.4-.6-2.6,0,0,1.9.7,2.5,1.1h0Z"/>
    <path class="cls-2" d="M189.1,148.5s0,0,.1.1c0,0-.1,0-.1-.1Z"/>
    <path class="cls-2" d="M190.7,151c.3.7,1.5,2.4,1.3,3.3,0-.2,0,.3,0,.2.1.2.2.2.1,0,0,.1,0,.2,0,.3h0c0-.3,1.8,6.4-1,4.7,0,0-.1-.5,0,0-.9-2.4-1.9-5.6-2.8-8.2-.4-2.2-1.6-.6,1-2.5-.2-.2,1.1,2.2,1.5,2.3h0Z"/>
    <path class="cls-2" d="M193.8,170.5s0,.1,0,.2c0,0,0,0,0-.2Z"/>
    <path class="cls-2" d="M193.6,173.4c-.2.8-.3,2.9-1.1,3.4,0-.2-.2.2-.1.2,0,.2,0,.2,0,.1,0,.1,0,.2-.1.3h0c.1-.2-2.6,6.1-3.7,2.9,0,0,.2-.4,0-.1.8-2.5,2.2-5.4,3-8.1,1.1-2-.9-1.5,2.3-1.4,0-.3.2,2.4-.2,2.7h0Z"/>
    <path class="cls-2" d="M182.9,190.1s0,.1,0,.2c0,0,0-.1,0-.2Z"/>
    <path class="cls-2" d="M180.4,191.9c-1,.6-2.4,1.2-3.4,1.5-.2.1-.2.1,0,.1-.1,0-.2,0-.3,0h0c.2,0-6.1,2.4-4.8-.5,0,0,.4-.2,0,0,2.3-1.1,5.5-2.4,8.1-3.4h0c2.2-.4.7-1.2,2.6.8,0,0-1.6,1.2-2.2,1.6h0Z"/>
    <path class="cls-2" d="M161.3,196.4s0,0-.2,0c0,0,0,0,.2,0Z"/>
    <path class="cls-2" d="M150.5,192.9h0s0,0,0,0Z"/>
    <path class="cls-2" d="M158.3,196.4c-.8,0-2.8.2-3.5-.4.2,0-.3-.2-.2,0-.2,0-.2,0-.1,0-.1,0-.2,0-.3,0h0s-6.3-.9-3.9-2.8c0,0,.5,0,0,0,2.5.1,6.2.7,8.8,1.3h0c2.2.9,1.3-1,1.6,2.2.3,0-2.4-.2-2.7,0h0Z"/>
    <path class="cls-2" d="M139.1,193s-.1,0-.2,0c0,0,0,0,.2,0Z"/>
    <path class="cls-2" d="M128.6,188.9h0s0,0,0,0Z"/>
    <path class="cls-2" d="M136.3,192.7c-1.1-.2-2.6-.5-3.5-.8-.2,0-.2,0-.1,0-.1,0-.2,0-.3,0h0c.3.2-6.4-1.3-3.8-2.9,0,0,.5,0,0,0,2.5.2,6.3.9,8.9,1.8h0c2.1,1.1,1.7-.9,1.3,2.3.3,0-2.3-.4-2.6-.2h0Z"/>
    <path class="cls-2" d="M117.2,190.1s0,0-.2,0c0,0,0,0,.2,0Z"/>
    <path class="cls-2" d="M106.1,188h0s0,0,0,0Z"/>
    <path class="cls-2" d="M114.4,190.3c-1.1,0-2.6,0-3.6-.2-.2,0-.2,0,0,0-.1,0-.2,0-.3,0h0c.2.1-6.4.1-4.3-2.1,0,0,.5,0,0,0,2.5-.4,6.4-.4,9.1,0h0c2.2.8,1.5-1.2,1.7,2.1.3,0-2.4,0-2.6.2h0Z"/>
    <path class="cls-2" d="M95.2,191.6s0,0-.1,0c0,0,0,0,.1,0Z"/>
    <path class="cls-2" d="M92.5,192.3c-1.1.2-2.6.5-3.6.6-.2,0-.2.1,0,.1-.1,0-.2,0-.3,0h0c.3,0-6.4,1.3-4.7-1.2,0,0,.5-.1,0,0,2.4-.8,6.2-1.7,8.9-1.8h0c2.4.3,1.1-1.4,2.1,1.7.3-.1-2.3.5-2.5.7h0Z"/>
    <path class="cls-2" d="M73.9,197.3s0,0-.1.1c0,0,0,0,.1-.1Z"/>
    <path class="cls-2" d="M71.3,198.5c-1,.4-2.5.9-3.4,1.2-.2.1-.2.1,0,.1-.1,0-.2,0-.3,0h0c.4,0-6.1,2.4-4.8-.3,0,0,.4-.2,0,0,2.2-1.3,5.8-2.7,8.5-3.3h0c2.4-.1.9-1.6,2.3,1.3.3-.2-2.3.9-2.3,1.1h0Z"/>
    <path class="cls-2" d="M54,206.6s0,.1,0,.1c0,0,0-.1,0-.1Z"/>
    <path class="cls-2" d="M51.6,208.3c-.7.4-2.1,1.7-2.9,1.7.2,0-.3,0-.2,0-.1.1-.1.2,0,.1-.1,0-.2.1-.3.1h0c.3,0-5.5,3.5-4.8.5,0,0,.4-.3,0,0,1.9-1.6,5.2-3.8,7.7-4.8h0c2.3-.5.6-1.8,2.5.8.2-.3-2,1.3-2.1,1.5Z"/>
    <path class="cls-2" d="M36.1,219.5s0,.1,0,.1c0,0,0-.1,0-.1Z"/>
    <path class="cls-2" d="M34.1,219.9c-.7.3-2.3,1.5-3.1,1.4.2,0-.3,0-.2,0-.1.1-.2.2,0,.1-.1,0-.2,0-.3,0h0c.3,0-5.8,2.9-4.8,0,0,0,.4-.3,0,0,.8-.5,1.7-1,2.8-1.4,1.7-.8,3.6-2,5.4-2.5h0c2.3-.3.8-1.7,2.4,1.1.3-.2-2.2,1.1-2.3,1.3h0Z"/>
    <path class="cls-2" d="M20.2,224.8s0,0,0,0c0,0,0,0,0,0Z"/>
    <path class="cls-2" d="M18.7,224.9c-.5,0-1.4-.1-1.8-.3,0,0-.1,0,0,0,0,0-.1,0-.1,0-.3,0-3.5-.3-2.1-2.3,0-.3,3.8.2,4.7.3.1-.1.2,0,.2,0,1.3-.3.6.4.6,2,.2-.1-1.3.2-1.3.2h0Z"/>
    <path class="cls-2" d="M307.1,70.9c0,0,0,0,0,0h0Z"/>
    <path class="cls-2" d="M278.1,60.1s0,0,0,0c0,0,0,0,0,0h0c0,.1,0,.1,0,.1Z"/>
    <path class="cls-2" d="M271.7,56.7s0,0,0,0c0,0,0,0,0,0Z"/>
    <path class="cls-2" d="M286.1,70.9s0,0-.1,0c0,0,0,0,.1,0Z"/>
    <path class="cls-2" d="M305.4,57.8s0,0,0,0c0,0,0,0,0,0h0s0,0,0,0Z"/>
    <path class="cls-2" d="M305.4,57.9s0,0,0,0c0,0,0,0,0,0Z"/>
    <path class="cls-2" d="M305.4,57.9s0,0,0,0c0,0,0,0,0,0Z"/>
    <path class="cls-2" d="M305.4,58s0-.1,0-.2c0,.2,0,.3,0,.5,0,0,0-.2,0-.3,0,0,0,0,0,0Z"/>
    <path class="cls-2" d="M302.5,37.7h0s0,0,0,0Z"/>
    <path class="cls-2" d="M271.8,54.3h0c0,0,0,0,0,0h0s0,0,0,0Z"/>
    <path class="cls-2" d="M298.5,33.7h-.1c0,0,.1,0,.1,0,0,0,0,0,0,0Z"/>
    <path class="cls-2" d="M279,48.7s0,0,0,0c-.1.1-.4.4-.9.7h0s.9-.7.9-.7h0Z"/>
    <path class="cls-2" d="M278.2,49.4s0,0-.1,0c0,0,0,0,.1,0h0s0,0,0,0Z"/>
    <path class="cls-2" d="M286.3,41.6l-.7.7c2.6-1.8,3.7-2.8,5.9-4.3h-.1c.3-.2.6-.1,3.9-2.9.1,0,.1,0,.4-.3l-.6.5c2.3-1.4,4.3-3.4,6.7-4.6,0,0-2.1,1.8-2.6,2.4.8-.6.2-.1,0,0h0c-.5.4-.4.5-.7.6,0,0,0,0,0,0h0s0,0,0,0c0,0,0,0-.2,0h0c-.2.1-.5.4-.7.5h0c-1.8.8-3.9,3.1-5.3,4.4-.6.5,0-.1-.2,0l-.7.6c.4-.3.2-.1.1,0-1,.7-2,1.5-2.9,2.3.1-.1.3-.3.3-.3-.3.3-.2.1,0,0-.5.3-2.5,2.1-2.7,2.1h0c-.2,0,0-.2-.4,0-.2.2-.4.3-.6.4-.4.8-1.2,1.4-2.2,1.7l.6-.8c-1.3,1.1-2.6,2.2-3.9,3.2l.6-.4c-.3.6-.7.9-1.2,1.1,0,0,0,0,0,0-.5.3-1,.6-1.4,1-.2.1-.4.2-.5.4-.7.5-1.3,1-2,1.5h0c.4-.2.9-.6,1.5-1.1,0,.1-.2.3-.3.4-1.4.9-2.7,1.9-4,3v-.2c-.6.5-2,1.3-2.4,2,0,0,0,0,0,0,0,0,0,0,0,0h-.1c.5.3,1,.7,1.6.9,0,0,0,0,0,0,1.4.7,2.8,1.6,4.2,2.4.6.3.9.3.6,0,.5.4.2.2.8.6.1,0,0,0,0-.2.5.2.9.5,1.1,1h-.2c.5.2,1,.6,1.6.8h0c0,0,0,0,.1,0,1.8-2.6,3.9-5.1,5.6-7.8h0c1.7-2.2,3.4-4.5,5.1-6.7h0s.2-.2.2-.2c0,0,0,0,0,0,.2-.2.5-.6.7-.9h0c2.3-3.1,4.7-6.8,7.3-9.8v.2c.4-.7.6-1,1.1-1.6h0c0,0,.2,0,.8-1.1,0,0,0,0,0-.1v.2c0,0,0-.2.2-.3,0-.1.7-.8.7-.8,0,0,0-.2.1-.2,0-.1.2-.3.3-.4,0,0,0,0,0,.2,0,0,0,0,.1-.1,0,0-.1.2-.2.4,0,.3-.2.5-.2.6.1-.3,0,0,0,0h0c0,.2,0,.2,0,.3h0s0,0,0,0c0,0,0,0,0,0h0c0,0,0,.2-.1.3h0c-.3.4-.6,1.6-.8,2.1,0,.2,0,0,0,0v.3c0-.2,0,0,0,0-.2.4-.3.8-.5,1.1,0,0,0-.1,0-.2,0,.1,0,0,0,0-.1.2-.4,1-.4,1.1,0,0,0,0-.1,0,0,0,0,.2-.1.2,0,0,0,0,0,0-.1.2-.2.5-.3.8v-.3c-.1.5-.4,1.1-.5,1.6v-.2c.1.2,0,.4,0,.5,0,0,0,0,0,0-.3.5-.5,1-.7,1.5h0c.1-.2.4-.8.5-1.1h0c0,.2-.2.4-.2.6,0,0,0,.2,0,.1-.3.4-.6.9-.7,1.5h0s0,.1-.1.3c-.2.4-.3.8-.4,1.2h0c-.1.3-.3.6-.4.8,0,0,0,0,0,0-.2.5-.5,1-.7,1.5,0,.2,0,.3,0,.2-.1.2,0,0-.2.3,0,0,0,0,0,0,0,.2,0,.1-.1.3,0,0-.1,0-.2.1h0c0,0-.2.3-.2.5h0s0,.2,0,.2h0s-.1.3-.1.3h0s-.1.2-.2.4h0c-.1.4-.3.7-.5,1.1h0c0,.1,0,0-.1.2h0c-.1.2,0,.2-.1.3h0c0,0,0,.1,0,.1,0,.2,0,.2,0,.1h-.1c0,.1,0,.2,0,.2-.1,0,0,.1-.2.3,0,0,0,0,0,0l-.2.3v-.2c.1,0,0,0,0,0-.1.2-.1.3-.2.4h0c-.1.1,0,.2-.1.3,0,0,0-.1,0,0,0,.2,0,.3-.2.4h0s0,0,0,.1h0c0,0-.1.2-.2.3h0s-.3.6-.3.6h0c-1.6,1.1-2.4,5.7-3.3,7.5,0,0,0,0,0,0,0,.1-.2.3-.1.3h0s-.2.3-.2.5h0c0,0,0,.1,0,.1h0c-.6,1-.8,2-1.4,3h0c-.5,1.1-1,2.2-1.4,3.3h0c-.1.2-1.1,2.3-1.4,2.9.4-.3.8-.5,1.3-.5,0,0,0,0,0,0,.1,0,.2,0,.4-.1h-.2c.4,0,.7-.2,1-.4h-.2s1.9-.8,1.9-.8h0c2.4.1,6.4-2.7,9.1-4.1,0-.2,0-.5,0-.7,0-.4.1-.7.1-1.1h0c0,0,0-.4,0-.6,0,0,0,.1,0,0,.2-2.3.5-4.6.8-6.8h0c.3-2.3.6-4.7.8-7,0,.1,0,0,0,0,.3-2.5.5-4.9.9-7.4h0c0-.4.3-2.9.4-3.5h0c0-.4,0-.8.2-1.2,0-.2.1-.8.2-1.1h0c.2-1,.3-2.1.3-3.2v-1.7c.1.3.3.7.4,1,.2,0,.3,0,.3.5h0s0,.1,0,.2c0,.2,0,0,0,0,0,0,0,.2,0,.3,0,0,0,0,0,0,0,0,0,0,0,.1,3.6,10.9,3.6,23.4,5.7,34.7h0c.2,1.5,1.4,4.7.5,6.2-.1.2-.3.4-.6.4-.3,0-.6-.1-.7-.3t0,0c-2.7-2.5-5.6-4.9-8.7-7.1,0-.1-12.8,5.7-11.9,5.3h0s-.9.4-.9.4c0,0,0,0,0,0-.9.4-1.9.8-2.8,1.2-.3-.9-.7-1.8-1-2.7h0c-1-2.8-2-5.6-3-8.4-4-2.3-8.1-4.6-12.2-6.8,6.4-4.8,12.6-10,19.3-14.3h0ZM305.5,58.3c-.6-3.6-1-7-1.6-10.6h0c-.1-.8-1.1-9.9-1.4-9.9h0c-.1-.5-.2-.9-.2-1.3,0,.5,0,1-.1,1.4,0,0,0,0,0,0-.1,1.1-.3,2.3-.4,3.4h0c0,.6,0,1.2-.2,1.8,0,0,0,0,0,0v.3c0,.1,0,.1,0,0,0,.7-.4,4-.5,4.8,0,0,0-.3,0-.4,0,.3,0,.6,0,1h0c0,.7-.2,1.4-.2,2,0,0,0-.1,0,0,0,0,0,1-.1,1.2h0c0,.2,0,.4-.1.7h0c0,0,0,.3,0,.4v-.2c0,.4,0,.6,0,.9h0c0,.3-.3,2.3-.4,2.7v-.2s0,.3,0,.3c0,0,0-.1,0-.2,0,.7-.5,4.1-.5,4.8,0,.2,0,0,0,0,0,.3,0,.1,0,.4,0,0,0,0,0,0,0,.1,0,.2,0,.2,0-.1,0,0,0-.1v.3s0,0,0,0c-.2.7-.2,1.5-.3,2.2,0,0,0-.1,0-.2,0,.5-.1,1.1-.2,1.6,2.8,2.2,5.5,4.4,8.2,6.7,0-.3,0-.6,0-1,0,0,0,.1,0,.2,0-.4-.1-1.1-.2-1.1h0c0,.2,0-.8-.2-1.3,0,1.6-1.4-9.4-1.3-10.5h0ZM306.8,68.1v.2c0,.2,0,.3,0,.4h0c0,.1-.1-.6-.1-.6ZM301.4,33s0,0,0,0c0,0,0,0,0,0ZM288.4,62.1h0c1.4-3.1,2.8-6.3,4.1-9.4h0s.1-.3.1-.3c0,0,0,0,0,0,.2-.3.4-.9.5-1.3h0c1.9-4.4,3.7-9.3,6-13.6v.3c.4-.9.5-1.4.9-2.2h0c0,0,.2-.1.6-1.5,0,0,0,0,0-.1v.2c0-.2.4-.8.6-1.2h0s0,0,0,0c0,0-.1.2-.1.2h0c-.3.2-.8,1.2-1,1.6-.1.2,0,0,0,0v.2c0-.1,0,0,0,0-.2.3-.4.5-.6.8,0,0,0-.1,0-.1,0,.1,0,0,0,0-.1.1-.5.8-.5.8,0,0,0,0-.1,0,0,0,0,.1-.1.2,0,0,0,0,0,0-.1.1-.3.4-.4.6v-.3c-.2.4-.4.8-.7,1.2v-.2c0,.2,0,.2-.1.4,0,0,0,0,0,0-.2.2-.4.5-.6.8h0s-.1.2-.1.2h0c-.2.2-.4.5-.5.8h0c0,0-.1.1-.2.2-.2.3-.4.6-.6.8h0c-.1.2-.3.4-.4.6,0,0,0,0,0,0-.1.1-.2.3-.4.4,0,.3-.2.5-.5.7,0,.1-.1.3,0,.2-.1,0,0,0-.2.2,0,0,0,0,0,0,0,.2,0,0-.2.2,0,0-.1,0-.2,0h0c-.1,0-.2.2-.3.3h0s-.1.2-.1.2h0s-.2.2-.2.2h0s-.2.2-.2.3c-.2.3-.4.5-.6.8h0c0,0,0,0-.1.1h0c-.1.1-.1.2-.1.3h0c0,0-.1,0-.1,0-.1.2,0,.1,0,.1h-.1c0,0,0,.1,0,.1,0,0,0,0-.2.2,0,0,0,0,0,0l-.2.2h.1c0-.1,0-.1,0-.1-.1.1-.1.2-.2.3h0c-.1.1-.1.1-.2.2,0,0,0,0,0,0,0,.1-.1.2-.2.3,0,0,0,0,0,0,0,0,0,0,0,0h0c0,0-.2.1-.2.2h0s-.3.4-.3.4h0c-1.3.4-3.2,4.2-4.1,5.4,0,0,0,0,0,0,0,0-.2.2-.2.3h0s-.2.2-.2.3h0c0,0-.1,0-.1,0h0c-.7.7-1,1.4-1.7,2.1h0c-.6.8-1.2,1.6-1.7,2.4h0c-.2.2-1.7,2.1-1.7,2.1-.2.3-.4.5-.6.8,0,0,0,0,0,0h-.1c0,.2.1.2.2.3v.3c0,0,.2,0,.2,0l.3,1h0c0,0,.3.8.5,1.2h0c.5,1.1.7,2.1,1.2,3.4v-.2c.2.4,0,.2.2.7h0c0,.5.2.6.4.9h-.2c0-.1.2.5.2.5.3.7.3.4.3.2v.5c0,0,.2,0,.2,0,0,.4.1.3.3.9,0,0,0-.1.1,0,0,0,0,.1,0,0,0,0,0,.1,0,.2,0,0,0-.2,0-.2,0,0-.1.1-.1.1,0,.1,0,.2,0,.2,0,0,.1-.1.2-.1,0,0,0,0,0,0,0,0,.2,0,.3-.2,1.2-3.2,2.8-6.3,3.9-9.5h0Z"/>
    <path class="cls-2" d="M277.7,49.6c.1,0,.3-.1.4-.2-.4.3-.9.6-1.3,1,.1-.2.2-.3.4-.4.2-.1.4-.2.5-.4Z"/>
    <path class="cls-2" d="M296.4,34.4h0s0,0,0,0Z"/>
    <path class="cls-2" d="M283,45.6h0s-.1.1-.1.1h0Z"/>
    <path class="cls-2" d="M291.7,39.3c.1-.1.3-.2.4-.3-.4.3-.4.3-.4.3Z"/>
    <path class="cls-2" d="M299.2,33.1h0c-.1,0-.1,0,0,0Z"/>
    <path class="cls-2" d="M302.7,32.8c0-.1,0-.3,0-.5,0,.1,0,.3,0,.5Z"/>
    <path class="cls-2" d="M302.7,32.8h0s0,0,0,0Z"/>
    <path class="cls-2" d="M293.8,43.7h0s0,0,0,0h0s0,0,0,0Z"/>
    <path class="cls-2" d="M284.3,56.2s0,0,0,0c0,0,0,0,0-.1,0,0,0,0,0,.1h0Z"/>
    <path class="cls-2" d="M297.3,38.8l.2-.2h0s0,.1-.2.2h0s0,0,0,0Z"/>
    <path class="cls-2" d="M297.3,38.8c-.1.1-.2.3-.3.4,0,0,0,.2,0,.1,0,0-.2.2-.3.2.2-.2.4-.5.6-.8h0Z"/>
    <path class="cls-2" d="M298.3,37.4h0s0,0,0,0h0Z"/>
    <path class="cls-2" d="M300,35.1s0,0,0,0q0,.1,0,0Z"/>
    <path class="cls-2" d="M301.5,32.5c0,0,0,0,0,0,0,0,0,0,0-.1,0,0,0,0,0,0,0,0,0,0,0,0h0Z"/>
    <path class="cls-2" d="M287.6,65.5h0s0,0,0,0h0s0,0,0,0Z"/>
    <path class="cls-2" d="M287.6,65.5s0-.1,0-.2c0,0,0,.1,0,.1,0,0,0,0,0,0Z"/>
    <path class="cls-2" d="M298.4,40.9h0s0,.2-.1.3h0s.2-.3.2-.3h0Z"/>
    <path class="cls-2" d="M300.9,33.9s0,0,0,0h0Z"/>
    <path class="cls-2" d="M299,39.3h0s0,0,0,0h0Z"/>
    <path class="cls-2" d="M300.4,36.1c0,0,0-.1,0-.1,0,.1,0,.2,0,.1Z"/>
    <path class="cls-2" d="M301.5,33.1h0s0,0,0,0Z"/>
  </g>
</svg>