<?xml version="1.0" encoding="UTF-8"?>
<svg id="Layer_1" data-name="Layer 1" xmlns="http://www.w3.org/2000/svg" version="1.1" viewBox="0 0 60 60">
  <defs>
    <style>
      .cls-1 {
        fill: #ffec00;
        stroke-width: 0px;
      }
    </style>
  </defs>
  <path class="cls-1" d="M59.8,44.2c-1,2.4-15.1-1.6-20-3.1.5,2.4,3.5,17.9.6,18.9-3.2,1-11.4-15-12.4-16.9-6.1,8.9-12.7,17.4-15.1,16.2-1.1-.6-2-3.7,2.5-18.7-9.3,2.3-14.3,2.7-15.2,1-1-2,4-6.9,15.2-14.7-3.5-2.2-11.8-7.7-10.9-10.4,1.2-3.4,16.6-.4,19.3.1C25.5,7,28.6-.2,31.4,0c2.9.2,6,8.3,7.2,19.7,1-.4,19-8.2,21.2-4.9,1.5,2.3-4.7,9.4-14.5,17.5,4.7,2.9,15.4,9.7,14.5,11.9h0Z"/>
</svg>