<?xml version="1.0" encoding="UTF-8"?>
<svg id="Layer_1" data-name="Layer 1" xmlns="http://www.w3.org/2000/svg" version="1.1" viewBox="0 0 40 40">
  <defs>
    <style>
      .cls-1 {
        fill: #ffec00;
        stroke-width: 0px;
      }
    </style>
  </defs>
  <path class="cls-1" d="M28.7,24l5.8,5.8c.6.6,1,1.5,1,2.4s-.4,1.7-1,2.4c-.6.6-1.5,1-2.4,1s-1.7-.4-2.4-1l-5.8-5.8c-.6-.6-1-1.5-1-2.4s.4-1.7,1-2.4c1.3-1.3,3.4-1.3,4.7,0Z"/>
  <path class="cls-1" d="M13.6,17c-.9,0-1.7-.4-2.4-1l-5.8-5.8c-1.3-1.3-1.3-3.4,0-4.7,1.3-1.3,3.4-1.3,4.7,0l5.8,5.8c.6.6,1,1.5,1,2.4s-.4,1.7-1,2.4c-.6.6-1.5,1-2.4,1Z"/>
  <path class="cls-1" d="M28.7,21c-1.5,0-2.8-1-3.2-2.5-.2-.9-.1-1.8.3-2.5.4-.8,1.2-1.3,2-1.6l8-2.1c.9-.2,1.8-.1,2.5.3.8.4,1.3,1.2,1.6,2,.5,1.8-.6,3.6-2.4,4.1l-8,2.1c-.3,0-.6.1-.9.1Z"/>
  <path class="cls-1" d="M2.5,21.2l8-2.1c.9-.2,1.8-.1,2.5.3.8.4,1.3,1.2,1.6,2,.5,1.8-.6,3.6-2.4,4.1l-8,2.1c-.3,0-.6.1-.9.1-1.5,0-2.8-1-3.2-2.5-.5-1.8.6-3.6,2.4-4.1h0Z"/>
  <path class="cls-1" d="M19.4,13c-.4-.8-.6-1.7-.3-2.5l2.1-8c.2-.9.8-1.6,1.6-2,.8-.4,1.7-.6,2.5-.3.9.2,1.6.8,2,1.6.4.8.6,1.7.3,2.5l-2.1,8c-.4,1.5-1.7,2.5-3.2,2.5s-.6,0-.9-.1c-.9-.2-1.6-.8-2-1.6Z"/>
  <path class="cls-1" d="M14.4,27.8c.2-.9.8-1.6,1.6-2,.8-.4,1.7-.6,2.5-.3,1.8.5,2.8,2.3,2.4,4.1l-2.1,8c-.4,1.5-1.7,2.5-3.2,2.5s-.6,0-.9-.1c-1.8-.5-2.8-2.3-2.4-4.1l2.1-8h0Z"/>
</svg>