<?xml version="1.0" encoding="UTF-8"?>
<svg id="Layer_1" data-name="Layer 1" xmlns="http://www.w3.org/2000/svg" version="1.1" viewBox="0 0 32 36">
  <defs>
    <style>
      .cls-1 {
        fill: #ec008c;
        stroke: #fff3f0;
        stroke-width: .5px;
      }
    </style>
  </defs>
  <path class="cls-1" d="M5.8,23.5h0c0,0,0,.2,0,.2,0,0-.1,0-.2,0h0s0,0,0,0h-1.2c-.5,0-.9-.2-1.3-.5-.3-.3-.5-.8-.5-1.3v-3.7c0-.2,0-.5.1-.7,0-.2.2-.4.4-.6.2-.2.4-.3.6-.4.2,0,.4-.1.7-.1h1.2c0,0,.2,0,.2.1h0l-.2.2s0,0,0,0l.2,6.6ZM5.8,23.5h0v-6.6,6.6ZM26.5,16.6h1.2c.5,0,.9.2,1.3.5.3.3.5.8.5,1.3v3.7c0,.5-.2.9-.5,1.3-.3.3-.8.5-1.3.5h-1.2c0,0-.1,0-.2,0h0c0,0,0-.1,0-.2h0v-6.7h0s.2,0,.2,0c0,0,0,0,0,0v-.3ZM26.5,16.6h0c0,0-.2,0-.2.1h.2ZM21.7,30.5v.2c0,0,.3,0,.3,0,1.1-.2,2.1-.7,2.9-1.5.8-.7,1.4-1.7,1.6-2.8v-.3c0,0-.2,0-.2,0-.7,0-1.3-.3-1.7-.8-.4-.5-.7-1.1-.7-1.8h0v-6.6c0-.7.3-1.3.7-1.8.5-.5,1.1-.8,1.8-.8h.2v-1.2c0-2.8-1.1-5.5-3.1-7.5-2-2-4.7-3.1-7.6-3.1s-5.6,1.1-7.6,3.1c-2,2-3.1,4.7-3.1,7.5v1.2h.2c.7,0,1.3.3,1.8.8.5.5.7,1.1.7,1.8h0v6.6h0c0,.7-.3,1.3-.8,1.8-.5.5-1.1.8-1.8.8h-1.2c-1.1,0-2.1-.4-2.9-1.2-.8-.8-1.2-1.8-1.2-2.9v-3.7c0-.8.3-1.6.7-2.3.5-.7,1.1-1.2,1.9-1.5h.2v-1.5c0-3.4,1.4-6.7,3.8-9.1C9.3,1.6,12.6.2,16,.2s6.7,1.4,9.2,3.8c2.4,2.4,3.8,5.7,3.8,9.1v1.4h.2c.8.4,1.4.9,1.9,1.5.5.7.7,1.5.7,2.3v3.7c0,.8-.3,1.6-.7,2.3-.5.7-1.2,1.2-1.9,1.5h-.1c0,0,0,.2,0,.2-.2,1.7-1,3.4-2.3,4.6-1.2,1.2-2.9,2-4.6,2.3h-.2s0,.2,0,.2c-.3.8-.8,1.5-1.4,1.9-.7.5-1.5.7-2.3.7h-2.8c-1,0-2-.4-2.8-1.1-.7-.7-1.1-1.7-1.1-2.8s.4-2,1.1-2.8c.7-.7,1.7-1.1,2.8-1.1h2.8c.8,0,1.6.2,2.2.7.7.4,1.2,1.1,1.4,1.8ZM15.3,33.5h2.8c.4,0,.9-.2,1.2-.5.3-.3.5-.7.5-1.2s-.2-.8-.5-1.2c-.3-.3-.7-.5-1.2-.5h-2.8c-.4,0-.9.2-1.2.5-.3.3-.5.7-.5,1.2s.2.8.5,1.2c.3.3.7.5,1.2.5Z"/>
</svg>