<?xml version="1.0" encoding="UTF-8"?>
<svg id="Layer_1" data-name="Layer 1" xmlns="http://www.w3.org/2000/svg" version="1.1" viewBox="0 0 36 36">
  <defs>
    <style>
      .cls-1 {
        fill: #ec008c;
        stroke-width: 0px;
      }
    </style>
  </defs>
  <path class="cls-1" d="M32.2,27h-4.5c-.4,0-.8-.3-.8-.8s.3-.8.8-.8h4.5c1.2,0,2.2-1,2.2-2.2v-10.5c0-1.2-1-2.2-2.2-2.2H3.8c-1.2,0-2.2,1-2.2,2.2v10.5c0,1.2,1,2.2,2.2,2.2h4.5c.4,0,.8.3.8.8s-.3.8-.8.8H3.8c-2.1,0-3.8-1.7-3.8-3.8v-10.5c0-2.1,1.7-3.8,3.8-3.8h28.5c2.1,0,3.8,1.7,3.8,3.8v10.5c0,2.1-1.7,3.8-3.8,3.8Z"/>
  <path class="cls-1" d="M21.8,31.5h-9c-.4,0-.8-.3-.8-.8s.3-.8.8-.8h9c.4,0,.8.3.8.8s-.3.8-.8.8Z"/>
  <path class="cls-1" d="M21.8,28.5h-9c-.4,0-.8-.3-.8-.8s.3-.8.8-.8h9c.4,0,.8.3.8.8s-.3.8-.8.8Z"/>
  <path class="cls-1" d="M15.8,25.5h-3c-.4,0-.8-.3-.8-.8s.3-.8.8-.8h3c.4,0,.8.3.8.8s-.3.8-.8.8Z"/>
  <path class="cls-1" d="M27.8,10.5c-.4,0-.8-.3-.8-.8V3.8c0-1.2-1-2.2-2.2-2.2h-13.5c-1.2,0-2.2,1-2.2,2.2v6c0,.4-.3.8-.8.8s-.8-.3-.8-.8V3.8c0-2.1,1.7-3.8,3.8-3.8h13.5c2.1,0,3.8,1.7,3.8,3.8v6c0,.4-.3.8-.8.8Z"/>
  <path class="cls-1" d="M24.8,36h-13.5c-2.1,0-3.8-1.7-3.8-3.8v-12c0-.4.3-.8.8-.8h19.5c.4,0,.8.3.8.8v12c0,2.1-1.7,3.8-3.8,3.8ZM9,21v11.2c0,1.2,1,2.2,2.2,2.2h13.5c1.2,0,2.2-1,2.2-2.2v-11.2H9Z"/>
</svg>