<?xml version="1.0" encoding="UTF-8"?>
<svg id="Layer_1" data-name="Layer 1" xmlns="http://www.w3.org/2000/svg" version="1.1" viewBox="0 0 32 36">
  <defs>
    <style>
      .cls-1 {
        fill: #ec008c;
        stroke-width: 0px;
      }
    </style>
  </defs>
  <path class="cls-1" d="M29.2,4.7h-.4c.8-1.3.5-3.1-.8-4.1-1.4-1-3.3-.7-4.3.8l-2.2,3.3H2.8c-1.5,0-2.8,1.3-2.8,2.8v18.2c0,1.6,1.3,2.8,2.8,2.8h10.8l-.8,3.5h-1.8c-1.2,0-2.1,1-2.1,2.1v.4h-2.2c-.4,0-.7.3-.7.7s.3.7.7.7h18.4c.4,0,.7-.3.7-.7s-.3-.7-.7-.7h-2.2v-.4c0-1.2-.9-2.1-2.1-2.1h-1.8l-.8-3.5h10.8c1.5,0,2.8-1.3,2.8-2.8V7.5c0-1.6-1.3-2.8-2.8-2.8ZM19.3,17c-1.1.8-3.1-.3-5,.8-.5-2.5-.2-4.8,2.3-5.4.3,0,.7,0,.9,0,.8.6,1.7,1.3,2.5,1.9.4,1.1.2,2.1-.7,2.8ZM20,9.5l2,1.5-1.5,1.9c-.6-.5-1.2-.9-1.8-1.3.1-.2,1.2-1.8,1.3-2ZM24.8,2.1c.5-.8,1.6-1,2.3-.4.8.6.9,1.7.3,2.4-1.1,1.3-3.6,4.4-4.6,5.8l-2.1-1.6,4.1-6.2ZM21.7,34.1v.4h-11.3v-.4c0-.4.3-.7.7-.7h9.9c.4,0,.7.3.7.7ZM17.8,32h-3.5l.8-3.5h1.9l.8,3.5ZM30.6,25.7c0,.8-.6,1.4-1.4,1.4H2.8c-.8,0-1.4-.6-1.4-1.4v-3.3h2c.4,0,.7-.3.7-.7s-.3-.7-.7-.7h-2V7.5c0-.8.6-1.4,1.4-1.4h17.8c-.7,1-2.6,3.9-3.2,4.9-1.4,0-2.7.5-3.6,1.5-1.2,1.4-1.4,3.7-.6,6.7.1.5.8.7,1.1.3,1.8-1.7,4,.2,6-1.5,1.2-1,1.5-2.6,1-4.1.6-.8,5.7-7.1,6.3-7.9h1.5c.8,0,1.4.6,1.4,1.4v13.5H8.9c-.4,0-.7.3-.7.7s.3.7.7.7h21.7v3.3Z"/>
  <path class="cls-1" d="M6,21c-.3,0-.6.4-.6.7s.4.8.8.7c.4,0,.6-.5.5-.8,0-.4-.4-.6-.8-.6Z"/>
</svg>