<?xml version="1.0" encoding="UTF-8"?>
<svg id="Layer_1" data-name="Layer 1" xmlns="http://www.w3.org/2000/svg" version="1.1" viewBox="0 0 36 36">
  <defs>
    <style>
      .cls-1 {
        fill: #ec008c;
        stroke-width: 0px;
      }
    </style>
  </defs>
  <path class="cls-1" d="M32.2,9h-3.8V3.8c0-2.1-1.7-3.8-3.8-3.8h-13.5c-2.1,0-3.8,1.7-3.8,3.8v5.2h-3.8c-2.1,0-3.8,1.7-3.8,3.8v10.5c0,2.1,1.7,3.8,3.8,3.8h3.8v5.2c0,2.1,1.7,3.8,3.8,3.8h13.5c2.1,0,3.8-1.7,3.8-3.8v-5.2h3.8c2.1,0,3.8-1.7,3.8-3.8v-10.5c0-2.1-1.7-3.8-3.8-3.8ZM9,3.8c0-1.2,1-2.2,2.2-2.2h13.5c1.2,0,2.2,1,2.2,2.2v5.2H9V3.8ZM27,32.2c0,1.2-1,2.2-2.2,2.2h-13.5c-1.2,0-2.2-1-2.2-2.2v-11.2h18v11.2ZM34.5,23.2c0,1.2-1,2.2-2.2,2.2h-3.8v-5.2c0-.4-.3-.8-.8-.8H8.2c-.4,0-.8.3-.8.8v5.2h-3.8c-1.2,0-2.2-1-2.2-2.2v-10.5c0-1.2,1-2.2,2.2-2.2h28.5c1.2,0,2.2,1,2.2,2.2v10.5Z"/>
  <path class="cls-1" d="M21.8,30h-9c-.4,0-.8.3-.8.8s.3.8.8.8h9c.4,0,.8-.3.8-.8s-.3-.8-.8-.8Z"/>
  <path class="cls-1" d="M21.8,27h-9c-.4,0-.8.3-.8.8s.3.8.8.8h9c.4,0,.8-.3.8-.8s-.3-.8-.8-.8Z"/>
  <path class="cls-1" d="M12.8,25.5h3c.4,0,.8-.3.8-.8s-.3-.8-.8-.8h-3c-.4,0-.8.3-.8.8s.3.8.8.8Z"/>
</svg>