<?xml version="1.0" encoding="UTF-8"?>
<svg id="Layer_1" data-name="Layer 1" xmlns="http://www.w3.org/2000/svg" xmlns:xlink="http://www.w3.org/1999/xlink" version="1.1" viewBox="0 0 40 40">
  <defs>
    <style>
      .cls-1 {
        fill: url(#linear-gradient);
      }

      .cls-1, .cls-2 {
        stroke-width: 0px;
      }

      .cls-2 {
        fill: url(#linear-gradient-2);
      }
    </style>
    <linearGradient id="linear-gradient" x1="31.5" y1="39.7" x2="38.7" y2="7.5" gradientUnits="userSpaceOnUse">
      <stop offset="0" stop-color="#0c6ec1"/>
      <stop offset=".6" stop-color="#013697"/>
      <stop offset="1" stop-color="#001f7a"/>
    </linearGradient>
    <linearGradient id="linear-gradient-2" x1="3.1" y1="27.6" x2="34" y2="6.5" gradientUnits="userSpaceOnUse">
      <stop offset="0" stop-color="#0c6ec1"/>
      <stop offset=".3" stop-color="#0c73c6"/>
      <stop offset=".6" stop-color="#013697"/>
      <stop offset="1" stop-color="#001f7a"/>
    </linearGradient>
  </defs>
  <path class="cls-1" d="M37.8,8.6c0-.3-.2-.5-.4-.5-.2,0-.3.2-.3.2-2.8,4.8-7,13.1-8.2,21.1-.4,2.9-.4,5.5,1.2,7.1,1,1,3,2.2,5,1.4,1.6-.6,2.6-2.4,2.7-4.6h0c0-8.3,0-16.5,0-24.7Z"/>
  <path class="cls-2" d="M35.6,5c-.7-2.5-4.1-3.8-6-2.9-1,.5-1.4,1.4-1.9,2.8,0,0-3.8,9.7-6.7,14.5-.3.4-.8,1.2-1.5,1.2-.6,0-1.1-.6-1.4-.9-1.9-4.1-3.9-8.2-5.8-12.3-.2-.4-.4-.9-.9-1.4-2.1-2-7.1-.9-8.7,1.8-.5.9-.6,1.7-.6,1.9,0,7.6,0,15.1,0,22.7-.3,3.1,1.9,5.5,4,5.7,2.3.2,5-2.4,4.7-5.8,0-3.7.1-7.4.2-11.1,1.4,3.7,2.7,7.4,4.1,11.1,1,1.8,2.9,3,5,3s4-1.1,5-3c5.4-12.3,9.2-21.5,10.5-24.8.1-.4.5-1.4.2-2.6Z"/>
</svg>