<?xml version="1.0" encoding="UTF-8"?>
<svg id="Layer_1" data-name="Layer 1" xmlns="http://www.w3.org/2000/svg" version="1.1" viewBox="0 0 518 568">
  <defs>
    <style>
      .cls-1 {
        fill: #ec008c;
        fill-opacity: .1;
        stroke-width: 0px;
      }
    </style>
  </defs>
  <path class="cls-1" d="M40.9,220.8l122.7,122.7-.8.8-122.7-122.7.8-.8Z"/>
  <path class="cls-1" d="M139.6,351.8l4,4-.8.8-4-4,.8-.8Z"/>
  <path class="cls-1" d="M85.2,297.3l17.8,17.8-.8.8-17.8-17.8.8-.8Z"/>
  <path class="cls-1" d="M149.2,361.4l16,16-.8.8-16-16,.8-.8Z"/>
  <path class="cls-1" d="M170.9,383.1l37,37-.8.8-37-37,.8-.8Z"/>
  <path class="cls-1" d="M108.5,320.7l8.2,8.2-.8.8-8.2-8.2.8-.8Z"/>
  <path class="cls-1" d="M122.4,334.6l11.6,11.6-.8.8-11.6-11.6.8-.8Z"/>
  <path class="cls-1" d="M145.6,192l4,4-.8.8-4-4,.8-.8Z"/>
  <path class="cls-1" d="M186.3,232.6l17.8,17.8-.8.8-17.8-17.8.8-.8Z"/>
  <path class="cls-1" d="M124,170.3l16,16-.8.8-16-16,.8-.8Z"/>
  <path class="cls-1" d="M81.3,127.7l37,37-.8.8-37-37,.8-.8Z"/>
  <path class="cls-1" d="M172.5,218.8l8.2,8.2-.8.8-8.2-8.2.8-.8Z"/>
  <path class="cls-1" d="M155.2,201.6l11.6,11.6-.8.8-11.6-11.6.8-.8Z"/>
  <path class="cls-1" d="M443.7,303.2l4,4-.8.8-4-4,.8-.8Z"/>
  <path class="cls-1" d="M484.4,343.9l17.8,17.8-.8.8-17.8-17.8.8-.8Z"/>
  <path class="cls-1" d="M422,281.6l16,16-.8.8-16-16,.8-.8Z"/>
  <path class="cls-1" d="M379.4,239l37,37-.8.8-37-37,.8-.8Z"/>
  <path class="cls-1" d="M470.5,330.1l8.2,8.2-.8.8-8.2-8.2.8-.8Z"/>
  <path class="cls-1" d="M453.3,312.8l11.6,11.6-.8.8-11.6-11.6.8-.8Z"/>
  <path class="cls-1" d="M368.9,201.8l8.4,8.4-.8.8-8.4-8.4.8-.8Z"/>
  <path class="cls-1" d="M408.8,241.7l64.1,64.1-.8.8-64.1-64.1.8-.8Z"/>
  <path class="cls-1" d="M382.1,215l2.8,2.8-.8.8-2.8-2.8.8-.8Z"/>
  <path class="cls-1" d="M392.1,225.1l9.4,9.4-.8.8-9.4-9.4.8-.8Z"/>
  <path class="cls-1" d="M178.4,97.5l4,4-.8.8-4-4,.8-.8Z"/>
  <path class="cls-1" d="M124,43.1l17.8,17.8-.8.8-17.8-17.8.8-.8Z"/>
  <path class="cls-1" d="M188.1,107.2l16,16-.8.8-16-16,.8-.8Z"/>
  <path class="cls-1" d="M209.7,128.8l37,37-.8.8-37-37,.8-.8Z"/>
  <path class="cls-1" d="M147.4,66.5l8.2,8.2-.8.8-8.2-8.2.8-.8Z"/>
  <path class="cls-1" d="M161.2,80.3l11.6,11.6-.8.8-11.6-11.6.8-.8Z"/>
  <path class="cls-1" d="M65.1,211.5l4,4-.8.8-4-4,.8-.8Z"/>
  <path class="cls-1" d="M10.6,157.1l17.8,17.8-.8.8-17.8-17.8.8-.8Z"/>
  <path class="cls-1" d="M74.7,221.1l16,16-.8.8-16-16,.8-.8Z"/>
  <path class="cls-1" d="M96.3,242.7l37,37-.8.8-37-37,.8-.8Z"/>
  <path class="cls-1" d="M34,180.4l8.2,8.2-.8.8-8.2-8.2.8-.8Z"/>
  <path class="cls-1" d="M47.8,194.2l11.6,11.6-.8.8-11.6-11.6.8-.8Z"/>
  <path class="cls-1" d="M406.5,369.3l4,4-.8.8-4-4,.8-.8Z"/>
  <path class="cls-1" d="M447.2,410l17.8,17.8-.8.8-17.8-17.8.8-.8Z"/>
  <path class="cls-1" d="M384.9,347.6l16,16-.8.8-16-16,.8-.8Z"/>
  <path class="cls-1" d="M342.3,305l37,37-.8.8-37-37,.8-.8Z"/>
  <path class="cls-1" d="M433.4,396.1l8.2,8.2-.8.8-8.2-8.2.8-.8Z"/>
  <path class="cls-1" d="M416.2,378.9l11.6,11.6-.8.8-11.6-11.6.8-.8Z"/>
  <path class="cls-1" d="M449.4,484.7l4,4-.8.8-4-4,.8-.8Z"/>
  <path class="cls-1" d="M395,430.3l17.8,17.8-.8.8-17.8-17.8.8-.8Z"/>
  <path class="cls-1" d="M459,494.3l16,16-.8.8-16-16,.8-.8Z"/>
  <path class="cls-1" d="M480.7,516l37,37-.8.8-37-37,.8-.8Z"/>
  <path class="cls-1" d="M418.4,453.7l8.2,8.2-.8.8-8.2-8.2.8-.8Z"/>
  <path class="cls-1" d="M432.2,467.5l11.6,11.6-.8.8-11.6-11.6.8-.8Z"/>
  <path class="cls-1" d="M89.4,54.4l4,4-.8.8-4-4,.8-.8Z"/>
  <path class="cls-1" d="M35,0l17.8,17.8-.8.8L34.2.8,35,0Z"/>
  <path class="cls-1" d="M99.1,64.1l16,16-.8.8-16-16,.8-.8Z"/>
  <path class="cls-1" d="M120.7,85.7l37,37-.8.8-37-37,.8-.8Z"/>
  <path class="cls-1" d="M58.4,23.4l8.2,8.2-.8.8-8.2-8.2.8-.8Z"/>
  <path class="cls-1" d="M72.2,37.2l11.6,11.6-.8.8-11.6-11.6.8-.8Z"/>
  <path class="cls-1" d="M256.1,116.8l4,4-.8.8-4-4,.8-.8Z"/>
  <path class="cls-1" d="M201.7,62.4l17.8,17.8-.8.8-17.8-17.8.8-.8Z"/>
  <path class="cls-1" d="M265.7,126.4l16,16-.8.8-16-16,.8-.8Z"/>
  <path class="cls-1" d="M287.4,148.1l37,37-.8.8-37-37,.8-.8Z"/>
  <path class="cls-1" d="M225,85.7l8.2,8.2-.8.8-8.2-8.2.8-.8Z"/>
  <path class="cls-1" d="M238.9,99.6l11.6,11.6-.8.8-11.6-11.6.8-.8Z"/>
  <path class="cls-1" d="M290,412.1l4,4-.8.8-4-4,.8-.8Z"/>
  <path class="cls-1" d="M330.7,452.7l17.8,17.8-.8.8-17.8-17.8.8-.8Z"/>
  <path class="cls-1" d="M268.4,390.4l16,16-.8.8-16-16,.8-.8Z"/>
  <path class="cls-1" d="M225.8,347.8l37,37-.8.8-37-37,.8-.8Z"/>
  <path class="cls-1" d="M316.9,438.9l8.2,8.2-.8.8-8.2-8.2.8-.8Z"/>
  <path class="cls-1" d="M299.7,421.7l11.6,11.6-.8.8-11.6-11.6.8-.8Z"/>
  <path class="cls-1" d="M307.1,498.9l4,4-.8.8-4-4,.8-.8Z"/>
  <path class="cls-1" d="M252.7,444.5l17.8,17.8-.8.8-17.8-17.8.8-.8Z"/>
  <path class="cls-1" d="M316.8,508.5l16,16-.8.8-16-16,.8-.8Z"/>
  <path class="cls-1" d="M338.4,530.2l37,37-.8.8-37-37,.8-.8Z"/>
  <path class="cls-1" d="M276.1,467.9l8.2,8.2-.8.8-8.2-8.2.8-.8Z"/>
  <path class="cls-1" d="M289.9,481.7l11.6,11.6-.8.8-11.6-11.6.8-.8Z"/>
  <path class="cls-1" d="M206.1,227.7l44.5,44.5-.8.8-44.5-44.5.8-.8Z"/>
  <path class="cls-1" d="M123,144.7l70.3,70.3-.8.8-70.3-70.3.8-.8Z"/>
  <path class="cls-1" d="M261.6,343.7l198.5,198.5-.8.8-198.5-198.5.8-.8Z"/>
  <path class="cls-1" d="M.8,102.1l198.5,198.5-.8.8L0,102.9l.8-.8Z"/>
  <path class="cls-1" d="M269.5,278.4l198.5,198.5-.8.8-198.5-198.5.8-.8Z"/>
  <path class="cls-1" d="M269.5,192.3l198.5,198.5-.8.8-198.5-198.5.8-.8Z"/>
</svg>