<?xml version="1.0" encoding="UTF-8"?>
<svg id="Layer_1" data-name="Layer 1" xmlns="http://www.w3.org/2000/svg" version="1.1" viewBox="0 0 36 36">
  <defs>
    <style>
      .cls-1 {
        fill: #ec008c;
        stroke-width: 0px;
      }
    </style>
  </defs>
  <path class="cls-1" d="M16,13H5.9c-1.1,0-2,.9-2,2v5.9c0,1.1.9,2,2,2h10.2c1.1,0,2-.9,2-2v-5.9c0-1.1-.9-2-2-2ZM16.5,20.9c0,.3-.2.5-.5.5H5.9c-.3,0-.5-.2-.5-.5v-5.9c0-.3.2-.5.5-.5h10.2c.3,0,.5.2.5.5v5.9Z"/>
  <path class="cls-1" d="M16,25.8H5.9c-1.1,0-2,.9-2,2v5.9c0,1.1.9,2,2,2h10.2c1.1,0,2-.9,2-2v-5.9c0-1.1-.9-2-2-2ZM16.5,33.7c0,.3-.2.5-.5.5H5.9c-.3,0-.5-.2-.5-.5v-5.9c0-.3.2-.5.5-.5h10.2c.3,0,.5.2.5.5v5.9Z"/>
  <path class="cls-1" d="M16,.3H5.9c-1.1,0-2,.9-2,2v5.9c0,1.1.9,2,2,2h10.2c1.1,0,2-.9,2-2V2.3c0-1.1-.9-2-2-2ZM16.5,8.2c0,.3-.2.5-.5.5H5.9c-.3,0-.5-.2-.5-.5V2.3c0-.3.2-.5.5-.5h10.2c.3,0,.5.2.5.5v5.9Z"/>
  <path class="cls-1" d="M13.1,30h-4.3c-.4,0-.8.3-.8.8s.3.8.8.8h4.3c.4,0,.8-.3.8-.8s-.3-.8-.8-.8Z"/>
  <path class="cls-1" d="M31.4,4.5h-8.1l.9-.9c.3-.3.3-.8,0-1.1s-.8-.3-1.1,0l-2.2,2.2c0,0-.1.2-.2.2,0,.2,0,.4,0,.6,0,0,0,.2.2.2l2.2,2.2c.1.1.3.2.5.2s.4,0,.5-.2c.3-.3.3-.8,0-1.1l-.9-.9h7.4v24h-9.2c-.4,0-.8.3-.8.8s.3.8.8.8h9.9c.4,0,.8-.3.8-.8V5.3c0-.4-.3-.8-.8-.8Z"/>
</svg>