<?xml version="1.0" encoding="UTF-8"?>
<svg id="Layer_1" data-name="Layer 1" xmlns="http://www.w3.org/2000/svg" version="1.1" viewBox="0 0 36 36">
  <defs>
    <style>
      .cls-1 {
        fill: #ec008c;
        stroke-width: 0px;
      }
    </style>
  </defs>
  <path class="cls-1" d="M35.6.7c-.4-.5-1-.7-1.6-.7,0,0,0,0,0,0-1.8.2-3.4.8-4.8,1.9,0,0,0,0,0,0,0,0,0,0,0,0l-.3.3c-.1.1-.3.3-.4.4l-7.8-1.6s0,0,0,0c0,0,0,0-.1,0,0,0,0,0-.1,0,0,0,0,0-.1,0,0,0,0,0-.1,0,0,0,0,0,0,0l-1.6,1.3s0,0,0,0c0,0,0,0-.1.1,0,0,0,0,0,0,0,0,0,0,0,0,0,0,0,0,0,.1,0,0,0,0,0,.1,0,0,0,.1,0,.2,0,0,0,0,0,0,0,0,0,.1,0,.2,0,0,0,0,0,0,0,0,0,0,0,0,0,0,.1.1.2.2l5.9,2.7c-1.2,1.1-2.3,2.3-3.5,3.4h-1.6c0,0-.5-.9-.5-.9l-.3-.4v-.2c0,0,.9,0,.9,0,.1,0,.3,0,.4-.1l.7-.5c.3-.2.4-.5.2-.8l-.6-1.3c-.1-.3-.5-.5-.9-.4h-.3c0,0-1-.6-1-.6-.2-.1-.3-.1-.5-.1h-.3s-.1,0-.1,0l-.3-.7c0-.1-.1-.2-.2-.3l-1.2-.9c.1,0,.3,0,.4,0s.1,0,.2,0c.4,0,.7-.3.7-.7,0-.4-.3-.7-.7-.7-.8,0-1.6,0-2.4.2,0,0,0,0,0,0,0,0,0,0,0,0-1.8.3-3.6.8-5.2,1.7,0,0,0,0-.1,0,0,0,0,0,0,0-2.5,1.3-4.6,3.3-6.1,5.8-3.2,5.4-2.7,12.3,1.2,17.2-.2.3-.5.7-.7,1-1.5,2.2-3,4.7-2.4,6.9.4,1.4,1.7,2.2,3.8,2.2s.3,0,.4,0c4.1-.2,8.1-2.2,11.6-4.1h0c1.6,0,3.2-.3,4.7-.7,1.4-.4,2.8-1.1,4-1.9,0,0,.1,0,.2-.1,2.1-1.4,3.8-3.3,5-5.4,0,0,.1-.2.2-.3.7-1.4,1.3-2.8,1.5-4.3,0-.4-.2-.7-.6-.8-.4,0-.7.2-.8.6-.2.8-.4,1.6-.7,2.4v-.2c-.2,0-.2-.2-.3-.2l-.6-.5-.6-.7c-.1-.1-.3-.2-.4-.3l-1.2-.2c-.2,0-.5,0-.6.2l-.3.3h-.9c-.2.1-.3.2-.4.3l-.9,1-1.2.9c-.2.1-.3.3-.3.5v1.2c0,0,0,.2,0,.3l.4,1c0,.2.3.4.5.4l.9.2.5.4v.6c.1,0-.2.8-.2.8,0,0,0,0,0,.1v.6c-1.2.7-2.4,1.2-3.6,1.6-3.4,1-7.1.8-10.3-.6l.7-1.3h.8c.1,0,.3,0,.4-.2l.6-.4h.9c0-.2.1-.2.2-.2l1.6-.7,1.3-.3c.1,0,.2,0,.3-.2l1.3-1.1c0,0,.1-.2.2-.3l.4-1c.1-.3,0-.6-.2-.8-.4-.3-.8-.7-1.1-1h0c0-.2.1-.3.1-.5v-1c0-.1,0-.2-.1-.3l-.6-1.1-.3-.5c.3-.2.5-.4.8-.7l.6-.5c0,0,.1-.1.2-.2,0,0,0,0,0,0,0,0,0,0,0,0,0,0,0-.1,0-.2,0,0,0,0,0,0,0,0,0,0,0,0,0,0,0-.1,0-.2,0,0,0,0,0,0,0,0,0-.1-.1-.2,0,0,0,0,0,0,0,0,0,0,0,0,0,0,0,0-.1-.1-.7-.4-1.2-1-1.4-1.7,0,0,0,0,0,0,0,0,0,0,0,0,0,0,0-.1-.1-.2,0,0,0,0,0,0,0,0,0,0,0,0,0,0-.1-.1-.2-.1,0,0,0,0-.1,0,0,0,0,0-.2,0,0,0,0,0-.1,0,0,0,0,0-.1,0,0,0,0,0,0,0,0,0,0,0-.1,0,0,0,0,0-.1,0,0,0,0,0,0,0-.6.5-1.2,1-1.9,1.5v-.4c-.1-.1-.2-.2-.3-.3l-.9-.9v-.7c.1-.2,0-.4,0-.5l-.4-.5.5-1.9c0-.2,0-.3,0-.5l-.3-.6.3-1.1h.2c.4,0,.7-.3.7-.7v-1.8s0,0,0-.1l-.3-1.7c0-.1,0-.2-.1-.3l-.8-1c.4-.1.7-.2,1.1-.3h0c0,.3.3.6.6.7l1.1.2.9.8.3.7c0,.1.1.2.2.3l.5.5c.2.1.4.2.6.2h.3c0,0,1.1.7,1.1.7.2.1.4.2.6,0v.2c0,0,0,0,0,0h-1c-.2.1-.4.2-.6.4l-.5.8c-.1.2-.1.5,0,.7l.4.7.2.5h-1.1c0,0,0,0,0,0,0,0-.1,0-.2,0,0,0,0,0-.1,0,0,0,0,0,0,0l-1,1s0,0,0,0c0,0,0,0,0,.1,0,0,0,0,0,.1,0,0,0,0,0,0,0,0,0,0,0,0,0,0,0,.1,0,.2,0,0,0,0,0,.1,0,0,0,0,0,.1,0,0,0,0,0,.1,0,0,0,0,0,0,0,0,0,0,0,0,0,0,0,0,.1,0,0,0,0,0,.1,0,0,0,0,0,0,0l2.4.9c-.3.5-.3,1.1.1,1.6.3.3.7.5,1.1.5s.4,0,.5-.1l.5,2.6s0,0,0,0c0,0,0,0,0,0,0,0,0,.1,0,.2,0,0,0,0,0,0,0,0,0,0,0,0,0,0,.1.1.2.2,0,0,0,0,0,0,0,0,.2,0,.3,0s0,0,0,0,0,0,0,0c0,0,0,0,0,0,0,0,0,0,.1,0,0,0,0,0,0,0,0,0,.1,0,.2,0,0,0,0,0,0,0,0,0,0,0,0,0l1.2-.8s0,0,0,0c.1,0,.2-.2.3-.4l1.1-4.3c1.3-.8,2.6-1.7,3.9-2.5l1.6,6.2s0,0,0,0c0,0,0,0,0,0,0,0,0,.1,0,.2,0,0,0,0,0,0,0,0,0,0,0,0,0,0,.1,0,.2.1,0,0,0,0,0,0,0,0,.2,0,.3,0s0,0,0,0,0,0,0,0c0,0,0,0,0,0,0,0,.1,0,.2,0,0,0,0,0,0,0,0,0,0,0,.1,0,0,0,0,0,0,0,0,0,0,0,0,0l1.6-1.3s0,0,0,0c0,0,0,0,.1-.1,0,0,0,0,0,0,0,0,0,0,0-.1,0,0,0,0,0-.1,0,0,0,0,0,0v-7.7c.2-.2.5-.4.8-.6,0,0,0,0,0,0,0,0,0,0,0,0,1.3-1.1,2.3-2.5,2.8-4.2,0,0,0,0,0,0,.2-.6,0-1.2-.4-1.7ZM25.7,26.7l-.2-1.1c0-.1,0-.3-.2-.4l-.8-.7c0,0-.2-.1-.3-.2h-.7c0-.1-.2-.7-.2-.7v-.8s1-.7,1-.7c0,0,0,0,0,0l.8-.8h.9c.2-.1.3-.2.4-.3l.2-.2h.5c0,0,.4.6.4.6,0,0,0,0,.1.1l.5.4.3.6v.7c-.7,1.4-1.7,2.6-2.8,3.6,0,0,0,0,0-.1ZM4.3,34.6c-1.1,0-2.4-.1-2.7-1.2-.6-1.9,1.4-4.6,2.2-5.7,3.3-4.7,7.7-8.6,11.7-11.8.2.4.5.8.9,1.1-.4.3-.8.6-1.1.9-2.3,1.9-4.6,4-6.8,6.3-1.9,2.1-3.9,4.4-5.1,7-.4,1,0,2.2,1,2.8.5.3,1,.4,1.5.5-.5,0-1,.1-1.5.2ZM8.6,30.2s0,0,0,0c0,0,0,0,.1,0,1.3.6,2.7,1.1,4.1,1.3-1.1.4-2.3.9-3.6,1.2-1.4.3-3.1.6-4.3,0-.4-.2-.6-.7-.4-1.1.5-1,1-2,1.7-2.9.7.5,1.5,1,2.3,1.4ZM17.2,23.6l-.2.4-1.1.9-1.2.3s0,0-.1,0l-1.5.7-1,.2c-.1,0-.2,0-.3.1l-.5.4h-1s0,0,0,0c0,0,0,0-.1,0,0,0,0,0-.1,0,0,0,0,0-.1,0,0,0,0,0,0,.1,0,0,0,0,0,0l-.9,1.6c-.5-.3-1-.6-1.5-1,.7-.9,1.5-1.8,2.3-2.6,1.9-2,3.9-3.9,6-5.6v.2c.1,0,.6.9.6.9v.6s-.3.4-.3.4c-.2.3-.2.7.1.9.4.3.8.7,1.2,1.1ZM9.3,4.5l.7-.5h.9c0-.1.5.6.5.6l.3,1.5v1s0,0,0,0c-.3,0-.6.2-.7.5l-.5,1.9c0,.2,0,.3,0,.5l.3.6-.5,1.9c0,.2,0,.4.1.6l.4.5v.7c-.2.2,0,.4,0,.6l1,1,.2.8c-2.7,2.4-5.6,5-8,8.1C.9,20.4.5,14.2,3.3,9.4c1.2-2.1,3-3.8,5.1-5,.2.2.6.3.9.1ZM20.2,2.9l.5-.4,6.5,1.3c-.5.5-1.1,1-1.6,1.5l-5.4-2.5ZM18.9,12.1l-1.8-.7h0s2.6-.2,2.6-.2c-.3.3-.5.6-.8.8ZM21.4,16.4h0s-.4-2-.4-2c.4-.2.7-.4,1.1-.7l-.7,2.7ZM30.9,14.6l-.5.4-1.5-5.6c.6-.4,1.2-.8,1.9-1.3v6.5ZM32.2,5.5c-4.7,3.3-9,6-13,8.4,0,0,0,0,0,0,0,0,0,0,0,0,0,0,0,0,0,0,0,0,0,0,0,0,.9-1,1.8-2,2.7-2.9,0,0,0,0,0,0,2.6-2.7,5.3-5.2,7.9-7.7l.3-.3c1.2-.9,2.5-1.4,4-1.6,0,0,0,0,0,0,.2,0,.3.1.4.2,0,0,.2.2,0,.4,0,0,0,0,0,0-.4,1.4-1.2,2.6-2.3,3.5Z"/>
</svg>