<?xml version="1.0" encoding="UTF-8"?>
<svg id="Layer_1" data-name="Layer 1" xmlns="http://www.w3.org/2000/svg" version="1.1" viewBox="0 0 36 36">
  <defs>
    <style>
      .cls-1 {
        fill: #ec008c;
        stroke-width: 0px;
      }
    </style>
  </defs>
  <path class="cls-1" d="M34.2,24h-5.8l5-2.9c.4-.2.7-.6.8-1.1.1-.5,0-1-.2-1.4l-4.2-7.3c-.2-.4-.6-.7-1.1-.8-.5-.1-1,0-1.4.2l-5,2.9,2.9-5c.2-.4.3-.9.2-1.4-.1-.5-.4-.9-.8-1.1l-7.3-4.2c-.4-.2-.9-.3-1.4-.2-.5.1-.9.4-1.1.8l-2.9,5V1.8c0-1-.8-1.8-1.8-1.8H1.8C.8,0,0,.8,0,1.8v32.4c0,1,.8,1.8,1.8,1.8h32.4c1,0,1.8-.8,1.8-1.8v-8.4c0-1-.8-1.8-1.8-1.8ZM15.9,3.2c0-.1.2-.2.4-.3.2,0,.3,0,.5,0l7.3,4.2c.1,0,.2.2.3.4,0,.2,0,.3,0,.5l-3.3,5.7-8.3-4.8,3.3-5.7ZM13.5,20.1h0s.5-.3.5-.3l2.4,4.2H6.8l6.7-3.9ZM4.4,24h-.5l3.9-6.8,4.2,2.4-7.6,4.4ZM15,19.2l6.2-3.6,4.8,8.3h0s-8.2,0-8.2,0l-2.7-4.8ZM12,9.9l8.3,4.8h0c0,0-7.1,4.2-7.1,4.2l-4.8-2.7,3.6-6.2ZM1.2,1.8c0-.3.3-.6.6-.6h8.4c.3,0,.6.3.6.6v6.6H1.2V1.8ZM1.2,9.6h9.6c0,0-3.7,6.5-3.7,6.5,0,0,0,0,0,0h0s-.4.7-.4.7H1.2v-7.2ZM1.2,18h4.8l-3.5,6h-.7c-.2,0-.4,0-.6.1v-6.1ZM9.6,34.8H1.8c-.3,0-.6-.3-.6-.6v-8.4c0-.3.3-.6.6-.6h7.8v9.6ZM18,34.8h-7.2v-9.6h7.2v9.6ZM26.4,34.8h-7.2v-9.6h7.2v9.6ZM22.3,15l5.7-3.3c.1,0,.3-.1.5,0,.2,0,.3.1.4.3l4.2,7.3c0,.1.1.3,0,.5,0,.2-.1.3-.3.4l-5.7,3.3-4.8-8.3ZM34.8,34.2c0,.3-.3.6-.6.6h-6.6v-9.6h6.6c.3,0,.6.3.6.6v8.4Z"/>
  <path class="cls-1" d="M6,32.4c1.3,0,2.4-1.1,2.4-2.4,0-1.3-1.1-2.4-2.4-2.4-1.3,0-2.4,1.1-2.4,2.4s1.1,2.4,2.4,2.4ZM6,28.8c.7,0,1.2.5,1.2,1.2,0,.7-.5,1.2-1.2,1.2-.7,0-1.2-.5-1.2-1.2s.5-1.2,1.2-1.2Z"/>
</svg>