<?xml version="1.0" encoding="UTF-8"?>
<svg id="Layer_1" data-name="Layer 1" xmlns="http://www.w3.org/2000/svg" version="1.1" viewBox="0 0 36 36">
  <defs>
    <style>
      .cls-1 {
        fill: #d64c00;
        stroke-width: 0px;
      }
    </style>
  </defs>
  <path class="cls-1" d="M25.6,28.7l-.2-1.2c0-.1,0-.3-.2-.5l-.9-.8s-.2-.1-.3-.2h-.8c0-.1-.2-.8-.2-.8v-.9l1.1-.8h0l.9-.9h1c.2-.1.3-.2.5-.3l.2-.2h.6l.5.7h.1c0,.1.6.6.6.6l.3.7v.8c-.8,1.6-1.9,2.9-3.2,4.1h0c0-.1.1-.1.1-.1Z"/>
  <path class="cls-1" d="M3.7,35.5c-1.2,0-2.7-.1-3-1.4-.7-2.1,1.6-5.2,2.5-6.4,3.7-5.3,8.7-9.7,13.2-13.3.2.5.6.9,1,1.2-.5.3-.9.7-1.2,1-2.6,2.1-5.2,4.5-7.7,7.1-2.1,2.4-4.4,5-5.8,7.9-.5,1.1,0,2.5,1.1,3.2s1.1.5,1.7.6c-.6,0-1.1.1-1.7.2h-.1Z"/>
  <path class="cls-1" d="M8.6,30.5h.1c1.5.7,3,1.2,4.6,1.5-1.2.5-2.6,1-4.1,1.4-1.6.3-3.5.7-4.9,0-.5-.2-.7-.8-.5-1.2.6-1.1,1.1-2.3,1.9-3.3.8.6,1.7,1.1,2.6,1.6h.1Z"/>
  <path class="cls-1" d="M18.3,23.1l-.2.5-1.2,1-1.4.3h-.1l-1.7.8-1.1.2c-.1,0-.2,0-.3.1l-.6.5h-1.5c0,.1-1,1.9-1,1.9-.6-.3-1.1-.7-1.7-1.1.8-1,1.7-2,2.6-2.9,2.1-2.3,4.4-4.4,6.8-6.3v.2c.1,0,.7,1,.7,1v.7l-.3.5c-.2.3-.2.8.1,1,.5.3.9.8,1.4,1.2l-.3.5Z"/>
  <path class="cls-1" d="M9.4,1.5l.8-.6h1c0-.1.6.7.6.7l.3,1.7v1.1h0c-.3,0-.7.2-.8.6l-.6,2.1v.6l.3.7-.6,2.1c0,.2,0,.5.1.7l.5.6v.8c-.2.2,0,.5,0,.7l1.1,1.1.2.9c-3,2.7-6.3,5.6-9,9.1C-.1,19.5-.6,12.5,2.6,7.1c1.4-2.4,3.4-4.3,5.8-5.6.2.2.7.3,1,.1Z"/>
  <g>
    <path class="cls-1" d="M19.3,2.1l.6-.5,7.3,1.5c-.6.6-1.2,1.1-1.8,1.7l-6.1-2.8h0Z"/>
    <path class="cls-1" d="M17.8,12.5l-2-.8h0l2.9-.2c-.3.3-.6.7-.9.9h0Z"/>
    <path class="cls-1" d="M20.6,17.3h0l-.5-2.3c.5-.2.8-.5,1.2-.8l-.8,3Z"/>
    <path class="cls-1" d="M31.4,15.3l-.6.5-1.7-6.3c.7-.5,1.4-.9,2.1-1.5v7.3h.1Z"/>
    <path class="cls-1" d="M32.8,5c-5.3,3.7-10.2,6.8-14.7,9.5h0c1-1.1,2-2.3,3-3.3h0c2.9-3,6-5.9,8.9-8.7l.3-.3c1.4-1,2.8-1.6,4.5-1.8h0c.2,0,.3.1.5.2,0,0,.2.2,0,.5h0c-.5,1.6-1.4,2.9-2.6,3.9Z"/>
  </g>
</svg>