<?xml version="1.0" encoding="UTF-8"?>
<svg id="Layer_1" data-name="Layer 1" xmlns="http://www.w3.org/2000/svg" version="1.1" viewBox="0 0 36 36">
  <defs>
    <style>
      .cls-1 {
        fill: #ec008c;
        stroke-width: 0px;
      }
    </style>
  </defs>
  <path class="cls-1" d="M22.9,12.6h0c-.6,0-1.1.2-1.5.6l-4.8,4.9-2-2c-.4-.4-1-.6-1.5-.6s-1.1.2-1.5.6c-.8.9-.8,2.3,0,3.1l3.5,3.6c.4.4,1,.6,1.5.6s1.1-.2,1.5-.6c1.3-1.4,2.7-2.7,4-4.1.8-.8,1.6-1.6,2.4-2.4.8-.9.8-2.3,0-3.1-.4-.4-1-.6-1.5-.6ZM23.7,15.5c-.8.8-1.6,1.6-2.4,2.4-1.3,1.3-2.7,2.7-4,4.1-.4.4-1,.4-1.4,0l-3.5-3.6c-.4-.4-.4-1.1,0-1.5.2-.2.4-.3.7-.3s.5.1.7.3l2.4,2.4c.1.1.3.2.4.2h0c.2,0,.3,0,.4-.2l5.2-5.3c.2-.2.4-.3.7-.3h0c.3,0,.5.1.7.3.4.4.4,1,0,1.4Z"/>
  <path class="cls-1" d="M18,6c-6.5,0-11.9,5.4-11.9,12s5.3,12,11.9,12,11.9-5.4,11.9-12-5.3-12-11.9-12ZM18,28.8c-5.9,0-10.7-4.9-10.7-10.8s4.8-10.8,10.7-10.8,10.7,4.9,10.7,10.8-4.8,10.8-10.7,10.8Z"/>
  <path class="cls-1" d="M35.5,17.9c.9-1.7.5-3.8-.9-5.1l-2-1.9c-.5-.4-.7-.9-.9-1.6l-.6-2.7c-.4-1.9-2-3.2-3.9-3.3l-2.8-.2c-.6,0-1.2-.2-1.7-.6l-2.2-1.7c-1.5-1.2-3.6-1.2-5.1,0l-2.2,1.7c-.5.4-1,.6-1.7.6l-2.8.2c-1.9.1-3.5,1.4-3.9,3.3l-.6,2.7c-.1.6-.4,1.1-.9,1.6l-2,1.9c-1.4,1.3-1.7,3.4-.9,5.1l1.2,2.5c.3.6.4,1.1.3,1.8l-.3,2.8c-.2,1.9.8,3.7,2.5,4.5l2.5,1.1c.6.3,1,.6,1.4,1.2l1.5,2.3c1,1.6,3,2.3,4.8,1.8l2.6-.8c.6-.2,1.2-.2,1.8,0l2.6.8c.4.1.8.2,1.2.2,1.4,0,2.7-.7,3.5-2l1.5-2.3c.3-.5.8-.9,1.4-1.2l2.5-1.1c1.8-.8,2.8-2.6,2.5-4.5l-.3-2.8c0-.6,0-1.2.3-1.8l1.2-2.5ZM33.3,19.9c-.4.8-.5,1.6-.4,2.5l.3,2.8c.2,1.4-.6,2.7-1.9,3.2l-2.5,1.1c-.8.3-1.4.9-1.9,1.6l-1.5,2.3c-.8,1.2-2.1,1.7-3.5,1.3l-2.6-.8c-.4-.1-.8-.2-1.2-.2s-.8,0-1.2.2l-2.6.8c-1.3.4-2.7,0-3.5-1.3l-1.5-2.3c-.5-.7-1.1-1.3-1.9-1.6l-2.5-1.1c-1.3-.6-2-1.8-1.9-3.2l.3-2.8c.1-.9,0-1.7-.4-2.5l-1.2-2.5c-.6-1.3-.4-2.7.6-3.7l2-1.9c.6-.6,1-1.3,1.2-2.2l.6-2.7c.3-1.4,1.4-2.3,2.8-2.4l2.8-.2c.9,0,1.6-.3,2.3-.9l2.2-1.7c1.1-.9,2.6-.9,3.7,0l2.2,1.7c.7.5,1.4.8,2.3.9l2.8.2c1.4,0,2.5,1,2.8,2.4l.6,2.7c.2.9.6,1.6,1.2,2.2l2,1.9c1,1,1.3,2.4.6,3.7l-1.2,2.5Z"/>
</svg>