<?xml version="1.0" encoding="UTF-8"?>
<svg id="Layer_1" data-name="Layer 1" xmlns="http://www.w3.org/2000/svg" version="1.1" viewBox="0 0 45 37">
  <defs>
    <style>
      .cls-1 {
        fill: #ec008c;
        stroke-width: 0px;
      }
    </style>
  </defs>
  <circle class="cls-1" cx="6.5" cy="6.3" r=".9"/>
  <path class="cls-1" d="M41.7,11.8c1.9-1.1,3.3-3.1,3.3-5.5,0-3.4-2.8-6.2-6.2-6.2h-7.8c-.4,0-.8.3-.8.8s.3.8.8.8h7.8c2.6,0,4.7,2.1,4.7,4.7s-2.1,4.7-4.7,4.7H10.5c1.3-1.1,2.2-2.8,2.2-4.7s-.8-3.6-2.2-4.7h12.5c.4,0,.8-.3.8-.8s-.3-.8-.8-.8H6.5C3,.1.2,2.9.2,6.3s1.3,4.4,3.3,5.5c-1.9,1.1-3.3,3.1-3.3,5.5,0,3.4,2.8,6.2,6.2,6.2s0,0,0,0h8.5v8.6c0,2.6,2.1,4.7,4.7,4.7h.4s0,0,0,0,0,0,0,0h18c1.9,0,3.4-1.5,3.4-3.4s-1.1-3-2.7-3.3v-6.5c1.6,0,3.1-.7,4.3-1.8,1.2-1.2,1.8-2.7,1.8-4.4,0-2.4-1.3-4.4-3.3-5.5ZM1.8,6.3C1.8,3.7,3.9,1.6,6.5,1.6s4.7,2.1,4.7,4.7-2.1,4.7-4.7,4.7S1.8,8.9,1.8,6.3ZM1.8,17.2c0-2.6,2.1-4.7,4.7-4.7s4.7,2.1,4.7,4.7-2.1,4.7-4.7,4.7h0s0,0,0,0c-2.6,0-4.7-2.1-4.7-4.7ZM10.5,22c1.3-1.1,2.2-2.8,2.2-4.7s-.8-3.6-2.2-4.7h4.5v9.4h-4.5ZM20,35.2s0,0,0,0,0,0,0,0h-.4c-1.7,0-3.2-1.4-3.2-3.2v-9.4s0,0,0,0,0,0,0,0v-10.2h20.8v17.4h-17.3c-.4,0-.8.3-.8.8s.3.8.8.8c1.1,0,1.9.9,1.9,1.9s-.9,1.9-1.9,1.9ZM40,33.3c0,1.1-.9,1.9-1.9,1.9h-15.2c.4-.5.6-1.2.6-1.9s-.2-1.4-.6-1.9h15.2c1.1,0,1.9.9,1.9,1.9ZM42.1,20.6c-.9.9-2,1.3-3.2,1.4v-9.4c2.5,0,4.6,2.1,4.6,4.7s-.5,2.4-1.4,3.3Z"/>
  <path class="cls-1" d="M6.5,18.1c.5,0,.9-.4.9-.9s-.4-.9-.9-.9-.9.4-.9.9.4.9.9.9Z"/>
  <circle class="cls-1" cx="26.9" cy=".9" r=".9"/>
  <path class="cls-1" d="M20.8,27.1h12.3c.4,0,.8-.2,1-.6.2-.4.2-.8,0-1.2l-2.1-3.8c-.3-.5-.9-.8-1.5-.5l-2.2.9-4.4-3.4c-.3-.2-.7-.3-1-.2-.4.1-.7.4-.8.7l-2.5,6.5c-.1.4,0,.8.1,1.1.2.3.6.5,1,.5ZM23.4,20l4.2,3.2c.3.3.8.3,1.2.2l2.1-.9,1.7,3.1h-11.3l2.2-5.6Z"/>
  <path class="cls-1" d="M30,19.4c1.4,0,2.5-1.1,2.5-2.5s-1.1-2.5-2.5-2.5-2.5,1.1-2.5,2.5,1.1,2.5,2.5,2.5ZM30,15.9c.6,0,1,.5,1,1s-.5,1-1,1-1-.5-1-1,.5-1,1-1Z"/>
</svg>