<?xml version="1.0" encoding="UTF-8"?>
<svg id="Layer_1" data-name="Layer 1" xmlns="http://www.w3.org/2000/svg" version="1.1" viewBox="0 0 60 60">
  <defs>
    <style>
      .cls-1 {
        fill: #111258;
        stroke: #fff;
        stroke-width: .5px;
      }
    </style>
  </defs>
  <path class="cls-1" d="M13.7,15.7c.5-.3.7-.9.6-1.5l-.6-3.7h0c0-.1,0-.2,0-.2l2.7-2.6c.4-.4.6-1,.4-1.5-.2-.5-.7-.9-1.2-1l-3.8-.5h-.1s0-.1,0-.1l-1.7-3.4c-.3-.5-.8-.8-1.4-.8s-1.1.3-1.4.8l-1.7,3.4h0c0,.1-.1.1-.1.1l-3.8.5c-.6,0-1.1.5-1.2,1-.2.5,0,1.1.4,1.5l2.7,2.6h0c0,0,0,.2,0,.2l-.6,3.7c0,.6.1,1.1.6,1.5.5.3,1.1.4,1.6.1l3.4-1.7h.1c0,0,.1,0,.1,0l3.4,1.7c.5.3,1.1.2,1.6-.1ZM10.9,8.8c-.4.3-.5.8-.4,1.3l.2,1.1v.5c0,0-.4-.2-.4-.2l-1-.5c-.2-.1-.5-.2-.7-.2s-.5,0-.7.2h0l-1,.5-.4.2v-.5c0,0,.3-1.1.3-1.1,0-.5,0-1-.4-1.3l-.8-.8-.4-.4h.5c0,0,1.1-.2,1.1-.2.5,0,.9-.4,1.2-.8h0s.5-1,.5-1l.2-.4.2.4.5,1c.2.4.7.8,1.2.8l1.1.2h.5c0,0-.4.4-.4.4l-.8.8Z"/>
  <path class="cls-1" d="M24.9,10.3h0c0,0,0,.2,0,.2l-.6,3.7c0,.6.1,1.1.6,1.5.5.3,1.1.4,1.6.1h0l3.4-1.7h.1c0,0,.1,0,.1,0l3.4,1.7c.5.3,1.1.2,1.6-.1.5-.3.7-.9.6-1.5l-.6-3.7h0c0-.1,0-.2,0-.2l2.7-2.6c.4-.4.6-1,.4-1.5-.2-.5-.7-.9-1.2-1l-3.8-.5h-.1s0-.1,0-.1l-1.7-3.4c-.3-.5-.8-.8-1.4-.8s-1.1.3-1.4.8l-1.7,3.4h0c0,.1-.1.1-.1.1l-3.8.5c-.6,0-1.1.5-1.2,1-.2.5,0,1.1.4,1.5l2.7,2.6ZM27,7.6l1.1-.2c.5,0,.9-.4,1.2-.8l.5-1,.2-.4.2.4.5,1c.2.4.7.8,1.2.8l1.1.2h.5c0,0-.4.4-.4.4l-.8.8c-.4.3-.5.8-.4,1.3l.2,1.1v.5c0,0-.4-.2-.4-.2l-1-.5c-.2-.1-.5-.2-.7-.2s-.5,0-.7.2l-1,.5-.4.2v-.5c0,0,.3-1.1.3-1.1,0-.5,0-1-.4-1.3l-.8-.8-.4-.4h.5Z"/>
  <path class="cls-1" d="M59.3,7.7c.4-.4.6-1,.4-1.5-.2-.5-.7-.9-1.2-1l-3.8-.5h-.1s0-.1,0-.1l-1.7-3.4c-.3-.5-.8-.8-1.4-.8s-1.1.3-1.4.8l-1.7,3.4h0c0,.1-.1.1-.1.1l-3.8.5c-.6,0-1.1.5-1.2,1h0c-.2.5,0,1.1.4,1.5h0l2.7,2.6h0c0,0,0,.2,0,.2l-.6,3.7c0,.6.1,1.1.6,1.5.5.3,1.1.4,1.6.1l3.4-1.7h.1c0,0,.1,0,.1,0l3.4,1.7c.5.3,1.1.2,1.6-.1.5-.3.7-.9.6-1.5l-.6-3.7h0c0-.1,0-.2,0-.2l2.7-2.6ZM54.6,8l-.8.8c-.4.3-.5.8-.4,1.3l.2,1.1v.5c0,0-.4-.2-.4-.2l-1-.5h0c-.2-.1-.5-.2-.7-.2s-.5,0-.7.2l-1,.5-.4.2v-.5c0,0,.3-1.1.3-1.1,0-.5,0-1-.4-1.3l-.8-.8-.4-.4h.5c0,0,1.1-.2,1.1-.2.5,0,.9-.4,1.2-.8h0s.5-1,.5-1l.2-.4.2.4.5,1c.2.4.7.8,1.2.8l1.1.2h.5c0,0-.4.4-.4.4Z"/>
  <path class="cls-1" d="M29.9,21.6c-10.7,0-19.4,8.6-19.4,19.1s8.7,19.1,19.4,19.1,19.4-8.6,19.4-19.1-8.7-19.1-19.4-19.1ZM29.9,56.7c-9,0-16.3-7.2-16.3-16.1s7.3-16.1,16.3-16.1,16.3,7.2,16.3,16.1-7.3,16.1-16.3,16.1Z"/>
  <path class="cls-1" d="M19.2,37.4c-.9,0-1.5.7-1.5,1.5,0,6.6,5.5,12.1,12.2,12.1s12.2-5.4,12.2-12.1-.7-1.5-1.5-1.5h-21.4ZM38.9,40.7c-.9,4.1-4.6,7.2-9,7.2s-8.1-3.1-9-7.2v-.3c0,0,.2,0,.2,0h17.8v.3Z"/>
  <path class="cls-1" d="M35.3,33.4c.9,0,1.5-.7,1.5-1.5s-.7-1.5-1.5-1.5-1.5.7-1.5,1.5.7,1.5,1.5,1.5Z"/>
  <path class="cls-1" d="M24.6,33.4c.9,0,1.5-.7,1.5-1.5s-.7-1.5-1.5-1.5-1.5.7-1.5,1.5.7,1.5,1.5,1.5Z"/>
</svg>