<?xml version="1.0" encoding="UTF-8"?>
<svg id="Layer_1" data-name="Layer 1" xmlns="http://www.w3.org/2000/svg" version="1.1" viewBox="0 0 64 38">
  <defs>
    <style>
      .cls-1 {
        fill: #111258;
        stroke-width: 0px;
      }
    </style>
  </defs>
  <path class="cls-1" d="M55.4,21.3c1.8-1.4,2.9-3.7,2.9-6.2,0-4.3-3.3-7.8-7.4-7.8s-7.4,3.5-7.4,7.8,1.1,4.8,2.9,6.2c-1,.4-2,1-2.8,1.7-1.1-3.8-3.8-6.8-7.2-8.2,1.8-1.4,2.9-3.7,2.9-6.2,0-4.3-3.3-7.8-7.4-7.8s-7.4,3.5-7.4,7.8,1.1,4.8,2.9,6.2c-3.4,1.4-6.1,4.4-7.2,8.2-.9-.7-1.8-1.2-2.8-1.7,1.8-1.4,2.9-3.7,2.9-6.2,0-4.3-3.3-7.8-7.4-7.8s-7.4,3.5-7.4,7.8,1.1,4.8,2.9,6.2c-4.6,1.9-7.8,6.6-7.8,12.1v2.6c0,.7.6,1.2,1.2,1.2h22c.7,0,1.2-.6,1.2-1.2v-2.6c0-.9,0-1.8-.3-2.7h13.9c-.2.9-.3,1.8-.3,2.7v2.6c0,.7.6,1.2,1.2,1.2h22c.7,0,1.2-.6,1.2-1.2v-2.6c0-5.5-3.2-10.2-7.8-12.1ZM51,9.8c2.7,0,4.9,2.4,4.9,5.3s-2.2,5.3-4.9,5.3-4.9-2.4-4.9-5.3,2.2-5.3,4.9-5.3ZM27.1,8.5c0-2.9,2.2-5.3,4.9-5.3s4.9,2.4,4.9,5.3-2.2,5.3-4.9,5.3c0,0,0,0,0,0s0,0,0,0c-2.7,0-4.9-2.4-4.9-5.3ZM13,9.8c2.7,0,4.9,2.4,4.9,5.3s-2.2,5.3-4.9,5.3-4.9-2.4-4.9-5.3,2.2-5.3,4.9-5.3ZM22.8,34.8H3.2v-1.4c0-5.8,4.4-10.5,9.8-10.5s9.8,4.7,9.8,10.5v1.4ZM24.3,28.2c-.5-1.2-1.1-2.3-1.9-3.2.8-5,4.9-8.7,9.6-8.7,0,0,0,0,0,0s0,0,0,0c4.7,0,8.8,3.7,9.6,8.7-.8,1-1.4,2-1.9,3.2h-15.4ZM60.8,34.8h-19.5v-1.4c0-5.8,4.4-10.5,9.8-10.5s9.8,4.7,9.8,10.5v1.4Z"/>
</svg>