<?xml version="1.0" encoding="UTF-8"?>
<svg id="Layer_1" data-name="Layer 1" xmlns="http://www.w3.org/2000/svg" version="1.1" viewBox="0 0 52 60">
  <defs>
    <style>
      .cls-1 {
        fill: #111258;
        stroke: #fff;
        stroke-width: .5px;
      }
    </style>
  </defs>
  <path class="cls-1" d="M10,50.2h16c1,0,1.7.8,1.7,1.7s-.8,1.8-1.7,1.8h-16c-5.4,0-9.7-4.4-9.7-9.7V10C.2,4.6,4.6.2,10,.2h24c5.4,0,9.7,4.4,9.7,9.7v10.1c0,1-.8,1.8-1.8,1.8s-1.7-.8-1.7-1.8v-10.1c0-3.4-2.8-6.2-6.2-6.2H10c-3.4,0-6.2,2.8-6.2,6.2v34c0,3.4,2.8,6.2,6.2,6.2Z"/>
  <path class="cls-1" d="M26,15.7h-14c-1,0-1.8-.8-1.8-1.8s.8-1.7,1.8-1.7h14c1,0,1.7.8,1.7,1.7s-.8,1.8-1.7,1.8Z"/>
  <path class="cls-1" d="M28.7,22.2c1,0,1.8.8,1.8,1.8s-.8,1.7-1.8,1.7H12c-1,0-1.8-.8-1.8-1.7s.8-1.8,1.8-1.8h16.7Z"/>
  <path class="cls-1" d="M23,30.2c1,0,1.8.8,1.8,1.8s-.8,1.7-1.8,1.7h-11c-1,0-1.8-.8-1.8-1.7s.8-1.8,1.8-1.8h11Z"/>
  <path class="cls-1" d="M10.2,40c0-1,.8-1.7,1.8-1.7h10.1c1,0,1.7.8,1.7,1.7s-.8,1.8-1.7,1.8h-10.1c-1,0-1.8-.8-1.8-1.8Z"/>
  <path class="cls-1" d="M32.2,46.9h0c0-.1,0-.2,0-.2-2.4-2.2-3.9-5.3-3.9-8.7,0-6.5,5.3-11.7,11.7-11.7s11.7,5.3,11.7,11.7-1.5,6.6-3.9,8.7h0v10.3c0,1-.6,1.9-1.5,2.4-.4.2-.9.3-1.3.3s-1.1-.2-1.5-.5l-3.3-2.2h-.1c0,0-.1,0-.1,0l-3.3,2.2s0,0,0,0c-.9.6-1.9.6-2.8.1h0c-.9-.5-1.5-1.4-1.5-2.4v-10.1ZM43.9,55.3l.4.3v-.5s0-5.8,0-5.8v-.4s-.3.1-.3.1c-1.2.4-2.5.7-3.9.7s-2.7-.2-3.9-.7h-.3c0-.1,0,.2,0,.2v6.3l.4-.3,2.9-1.9h0c.6-.4,1.4-.4,2,0h0l2.9,1.9ZM31.7,38c0,4.5,3.7,8.2,8.2,8.2s8.2-3.7,8.2-8.2-3.7-8.2-8.2-8.2-8.2,3.7-8.2,8.2Z"/>
</svg>