<?xml version="1.0" encoding="UTF-8"?>
<svg id="Layer_1" data-name="Layer 1" xmlns="http://www.w3.org/2000/svg" version="1.1" viewBox="0 0 64 64">
  <defs>
    <style>
      .cls-1 {
        fill: #111258;
        stroke-width: 0px;
      }
    </style>
  </defs>
  <path class="cls-1" d="M54.5,16.8h-2.4v-7.3c0-4.8-3.9-8.7-8.7-8.7h-22.9c-4.8,0-8.7,3.9-8.7,8.7v7.3h-2.4c-4.8,0-8.7,3.9-8.7,8.7v14.9c0,4.8,3.9,8.7,8.7,8.7h2.4v9.1c0,2.7,2.2,5,5,5h30.4c2.7,0,5-2.2,5-5v-9.1h2.4c4.8,0,8.7-3.9,8.7-8.7v-14.9c0-4.8-3.9-8.7-8.7-8.7ZM14.3,9.5c0-3.4,2.8-6.2,6.2-6.2h22.9c3.4,0,6.2,2.8,6.2,6.2v7.3H14.3v-7.3ZM49.7,58.3c0,1.4-1.1,2.5-2.5,2.5h-30.4c-1.4,0-2.5-1.1-2.5-2.5v-10.3s0,0,0,0,0,0,0,0v-8.7h35.3v19ZM60.8,40.5c0,3.4-2.8,6.2-6.2,6.2h-2.4v-7.5h1.7c.7,0,1.2-.6,1.2-1.2s-.6-1.2-1.2-1.2H10.1c-.7,0-1.2.6-1.2,1.2s.6,1.2,1.2,1.2h1.7v7.5h-2.4c-3.4,0-6.2-2.8-6.2-6.2v-14.9c0-3.4,2.8-6.2,6.2-6.2h45.1c3.4,0,6.2,2.8,6.2,6.2v14.9Z"/>
  <path class="cls-1" d="M27,47.2h10c.7,0,1.2-.6,1.2-1.2s-.6-1.2-1.2-1.2h-10c-.7,0-1.2.6-1.2,1.2s.6,1.2,1.2,1.2Z"/>
  <path class="cls-1" d="M27,55.2h10c.7,0,1.2-.6,1.2-1.2s-.6-1.2-1.2-1.2h-10c-.7,0-1.2.6-1.2,1.2s.6,1.2,1.2,1.2Z"/>
  <path class="cls-1" d="M16.1,24.8h-6c-.7,0-1.2.6-1.2,1.2s.6,1.2,1.2,1.2h6c.7,0,1.2-.6,1.2-1.2s-.6-1.2-1.2-1.2Z"/>
</svg>