<?xml version="1.0" encoding="UTF-8"?>
<svg id="Layer_1" data-name="Layer 1" xmlns="http://www.w3.org/2000/svg" xmlns:xlink="http://www.w3.org/1999/xlink" version="1.1" viewBox="0 0 164 50">
  <defs>
    <style>
      .cls-1 {
        fill: url(#linear-gradient);
      }

      .cls-2 {
        fill: #001f7a;
      }

      .cls-2, .cls-3 {
        stroke-width: 0px;
      }

      .cls-3 {
        fill: #0d0d0d;
      }

      .cls-4 {
        fill: url(#linear-gradient-2);
      }
    </style>
    <linearGradient id="linear-gradient" x1="36.6" y1="29.2" x2="48.9" y2="29.2" gradientUnits="userSpaceOnUse">
      <stop offset="0" stop-color="#0c6ec1"/>
      <stop offset=".6" stop-color="#013697"/>
      <stop offset="1" stop-color="#001f7a"/>
    </linearGradient>
    <linearGradient id="linear-gradient-2" x1="1.1" y1="25" x2="46.1" y2="25" xlink:href="#linear-gradient"/>
  </defs>
  <g>
    <g>
      <path class="cls-3" d="M86.2,17.3c1-.2,2.1,0,3,.4,0,0,0,0,0,0,0,0,0,0,0,0l.7-1.7s0,0,0,0c-1-.4-2-.6-3.2-.6-2.4,0-4.3,1.3-4.8,3.8-.2.9-.2,1.8,0,2.8.4,2.1,1.8,3.4,3.9,3.5,1.3,0,2.7,0,4-.5,0,0,0,0,0,0v-5s0,0,0,0h-3.9s0,0,0,0v1.8s0,0,0,0h1.7s0,0,0,0v1.7s0,0,0,0c-.4,0-.8.1-1.2.1-1.1,0-1.8-.6-2.1-1.6-.2-.7-.3-1.5-.1-2.3.2-1.1.9-2,2-2.3"/>
      <path class="cls-3" d="M109.3,15.4s0,0,0,0h-2.6s0,0,0,0l-3.4,9.8s0,0,0,0c0,0,0,0,0,0h2.3s0,0,0,0l.7-2.2s0,0,0,0h3.3s0,0,0,0l.7,2.2s0,0,0,0h2.3s0,0,0,0c0,0,0,0,0,0l-3.5-9.8ZM109.1,21.1h-2.1c0,0,0,0,0,0l1.1-3.5c0,0,0,0,0,0l1.1,3.5s0,0,0,0c0,0,0,0,0,0"/>
      <path class="cls-3" d="M137.5,15.4s0,0,0,0h-2.6s0,0,0,0l-3.4,9.8s0,0,0,0c0,0,0,0,0,0h2.3s0,0,0,0l.7-2.2s0,0,0,0h3.3s0,0,0,0l.7,2.2s0,0,0,0h2.3s0,0,0,0c0,0,0,0,0,0l-3.5-9.8ZM137.2,21.1h-2.2s0,0,0,0c0,0,0,0,0,0l1.1-3.5c0,0,0,0,0,0l1.1,3.5s0,0,0,0c0,0,0,0,0,0"/>
      <path class="cls-3" d="M71.4,15.4c-1.2,0-2.3,0-3.5,0,0,0,0,0,0,0v9.7s0,0,0,0c1.2,0,2.3,0,3.3,0,2.8,0,4.7-1.8,4.8-4.6,0-1.1,0-2.2-.6-3.1-.8-1.4-2.4-2.1-4-2.2M71.4,23.3c-.4,0-.9,0-1.3,0,0,0,0,0,0,0v-6s0,0,0,0c.4,0,.8,0,1.2,0,1.3,0,2.1.8,2.4,2,.3,1.8,0,3.8-2.2,4"/>
      <path class="cls-3" d="M80,15.4h-2.2s0,0,0,0v9.8s0,0,0,0h2.2s0,0,0,0v-9.8s0,0,0,0"/>
      <path class="cls-3" d="M94.3,15.4h-2.1s0,0,0,0v9.7s0,0,0,0h2.1s0,0,0,0v-9.7s0,0,0,0"/>
      <path class="cls-3" d="M103.1,15.4h-7.4s0,0,0,0v1.8s0,0,0,0h2.5s0,0,0,0v7.9s0,0,0,0h2.2s0,0,0,0v-7.9s0,0,0,0h2.5s0,0,0,0v-1.8s0,0,0,0"/>
      <path class="cls-3" d="M119.9,23.4c-1.2,0-2.5,0-3.8,0,0,0,0,0,0,0,0,0,0,0,0,0v-7.8s0,0,0,0h-2.1s0,0,0,0v9.7s0,0,0,0h6s0,0,0,0v-1.8s0,0,0,0"/>
      <path class="cls-3" d="M131,23.4c-1.3,0-2.6,0-3.8,0,0,0,0,0,0,0,0,0,0,0,0,0v-7.8s0,0,0,0h-2.1s0,0,0,0v9.7s0,0,0,0h6c0,0,0,0,0,0v-1.7s0,0,0,0"/>
      <path class="cls-3" d="M149.2,21.8c-.1-.9-.6-1.5-1.4-1.7,0,0,0,0,0,0,1-.4,1.3-1.5,1.2-2.5-.1-.8-.5-1.4-1.3-1.7-.6-.3-1.3-.4-2.1-.4-1.2,0-2.4,0-3.7,0,0,0,0,0,0,0v9.8s0,0,0,0c1.2,0,2.4,0,3.6,0,.2,0,.5,0,.7,0,1.9-.2,3.3-1.3,3-3.4M144.2,17.3h1.4c.6,0,1.1.4,1.1.8v.3s0,0,0,0c0,.5-.5.8-1.1.8h-1.4s0,0,0,0v-1.9s0,0,0,0M146.9,22.3c0,.6-.5,1-1.2,1.1h-1.5s0,0,0,0v-2.2s0,0,0,0c0,0,0,0,0,0h1.5c.7,0,1.2.4,1.2,1v.3Z"/>
    </g>
    <g>
      <path class="cls-2" d="M100,28.7h.6c0,0,.2,0,.2.2v5.6c0,0,0,.2-.2.2h-.6c0,0-.2,0-.2-.2v-5.6c0,0,0-.2.2-.2Z"/>
      <path class="cls-2" d="M119.2,28.8s0,0,0,0h-.6c0,0-.1,0-.1.1,0,.8,0,1.4,0,2,0,0,0,.1,0,.2,0,0,0,0-.1-.1-.4-.4-.9-.6-1.5-.5-.4,0-1.4.4-1.3,2.3,0,1.3.6,2,1.7,2s0,0,0,0c.5,0,.9-.2,1.2-.6,0,0,0,0,0,0,0,0,0,0,0,0,0,0,0,0,0,0v.4c.1,0,.2.1.3.1h.4c0,0,0,0,.1,0s0,0,0-.1v-5.6s0,0,0,0ZM118.3,33.3c-.1.4-.4.7-.9.7s-.2,0-.3,0c-.8-.1-.8-1.1-.8-1.8,0-.4.2-.7.4-.8.2-.2.5-.2.8-.2.3,0,.5.2.6.4.3.5.3,1.4.1,1.8Z"/>
      <path class="cls-2" d="M138.3,28.7h.6c0,0,.2,0,.2.2v5.6c0,0,0,.2-.2.2h-.6c0,0-.2,0-.2-.2v-5.6c0,0,0-.2.2-.2Z"/>
      <path class="cls-2" d="M94,29c0,0-.2-.1-.3-.1h-.1c-.1,0-.2,0-.3.1,0,0-.1.2-.1.3h0c0,.2,0,.3.1.4,0,0,.2.1.3.1h.1c.2,0,.4-.2.4-.4h0c0-.2,0-.3-.1-.4Z"/>
      <path class="cls-2" d="M121,28.9h-.1c-.2,0-.4.2-.4.4h0c0,.2,0,.3.1.4,0,0,.2.1.3.1h.1c.1,0,.2,0,.3-.1,0,0,.1-.2.1-.3h0c0-.3-.2-.5-.4-.5Z"/>
      <path class="cls-2" d="M148.8,28.9h-.1s0,0,0,0c-.2,0-.4.2-.4.4h0c0,.3.2.5.4.6h.1s0,0,0,0c.2,0,.4-.2.4-.4h0c0-.3-.2-.5-.4-.6Z"/>
      <path class="cls-2" d="M76.6,33.5c.4-.4.7-1,.8-1.6,0,0,0-.1,0-.1h0s-.7,0-.7,0c0,0-.1,0-.1,0,0,.4-.3.8-.5,1.1l-1.3-1.3c.3-.2.9-.6,1.1-1.1.1-.3,0-.7,0-1-.2-.3-.5-.5-.8-.6-.2,0-.3,0-.5,0s-.4,0-.6,0c-.4.1-.7.4-.8.7-.1.4,0,.9.2,1.2.1.2.3.4.4.5-.4.2-.6.4-.8.7-.4.5-.4,1.3,0,1.8.2.3.5.5.9.6.2,0,.5,0,.7,0,.6,0,1.2-.2,1.8-.6l.5.5c0,0,.2,0,.2.1h.6c0,0,.2,0,.2-.1,0,0,0,0,0-.1l-.9-.9ZM73.9,29.9c.1,0,.3-.1.5-.1s0,0,0,0c.3,0,.4.1.5.4,0,.3,0,.6-.3.8-.1.1-.3.2-.4.3-.2-.2-.5-.6-.5-1,0-.1,0-.3.2-.3ZM74.3,33.9c0,0-.2,0-.2,0-.3,0-.6-.2-.7-.5-.1-.3,0-.7.2-.9.1-.1.3-.2.4-.3l1.5,1.4c-.3.3-.7.4-1.2.4Z"/>
      <path class="cls-2" d="M82.1,31.5c-.3-.1-.5-.2-.7-.4-.3-.2-.4-.4-.3-.8,0-.2.1-.3.3-.4.4-.2,1.3,0,1.7.1.1,0,.2,0,.3-.1v-.4c.2-.1.1-.2,0-.3-.4-.2-.9-.3-1.3-.3s-.4,0-.6,0c-.5,0-.9.4-1.1.7-.2.4-.2.8,0,1.2.3.7,1,1,1.6,1.2h.1c.6.3.8.6.7,1.1,0,.2-.2.3-.3.4-.6.3-1.6,0-2.1-.2,0,0-.1,0-.1,0,0,0,0,0,0,.1v.5c0,.1,0,.2.2.2.4.1.9.2,1.3.2s.3,0,.5,0c.5,0,1-.3,1.3-.7.2-.3.3-.7.2-1.2-.2-.8-.9-1.1-1.5-1.4Z"/>
      <path class="cls-2" d="M131,31.5c-.6-.3-1.1-.5-1.1-1.1,0-.2,0-.4.3-.5.4-.3,1.3,0,1.8.1,0,0,0,0,.1,0,0,0,0,0,.1,0l.2-.4c0,0,0-.2-.1-.2-.4-.2-.9-.3-1.4-.3h0c-.7,0-1.2.2-1.5.6-.3.3-.4.7-.3,1.2.1.9.9,1.2,1.6,1.5.1,0,.2,0,.3.1.3.1.5.3.5.4.2.4.1.7-.1.9-.4.4-1.6.1-2.2,0,0,0-.1,0-.2,0,0,0,0,0,0,.2v.4c0,.1,0,.2.2.2.3.1.8.2,1.4.2s1,0,1.3-.3c.4-.2.6-.5.6-1,.2-1.2-.7-1.6-1.4-1.9Z"/>
      <path class="cls-2" d="M59.7,29.1h-1c0,0-.1,0-.2.1l-1.5,4.3s0,0,0,0c0,0,0,0,0,0-.5-1.5-1-3-1.5-4.3,0,0,0-.1-.1-.1h-1c0,0-.2,0-.2.2v5.2c0,0,0,.1.1.1h.6c0,0,.1,0,.1-.1,0-1.6,0-3.1,0-4.5,0,0,0,0,0,0,.5,1.5,1,3,1.5,4.4,0,0,0,0,0,.1,0,0,.1,0,.2,0,.2,0,.3,0,.5,0,0,0,0,0,0,0,0,0,0,0,0,0,.5-1.5,1.1-3,1.6-4.5,0,0,0,0,0,0,0,1.3,0,2.5,0,3.8,0,.2,0,.5,0,.7,0,0,0,0,0,.1,0,0,0,0,.1,0h.6c0,0,.2,0,.2-.2v-5.2c0,0,0-.2-.2-.2Z"/>
      <path class="cls-2" d="M63.4,31.5l1.9-2.2c0,0,0-.1,0-.2,0,0,0,0,0,0h-.7s0,0,0,0l-2.2,2.6v-2.5c0,0,0-.1-.1-.1h-.7c0,0-.1,0-.1.1v5.3c0,0,0,.1.1.1h.7c0,0,.1,0,.1-.1v-2s.5-.4.5-.4l1.7,2.5s0,0,.1,0h.7c0,0,.1,0,.1-.1s0,0,0,0l-2-2.9Z"/>
      <path class="cls-2" d="M69.7,29.1h-3.9c0,0-.2,0-.2.2v.4c0,0,0,.2.2.2h1.5s0,4.6,0,4.6c0,0,0,.2.2.2h.6c0,0,.2,0,.2-.2v-4.6s1.5,0,1.5,0c0,0,.2,0,.2-.2v-.4c0,0,0-.2-.2-.2Z"/>
      <path class="cls-2" d="M109.6,29.1h-1c0,0-.1,0-.1.1l-1.5,4.2c0,0,0,0,0,.1,0,0,0,0,0-.1l-1.5-4.2c0,0,0-.1-.2-.1h-1c0,0-.1,0-.1.1v5.3c0,0,0,.1.1.1h.6s0,0,0,0c0,0,0,0,0,0,0-1.5,0-3.1,0-4.5,0,0,0,0,0,0,.5,1.5,1,3,1.6,4.5,0,0,0,.1.1.1h.6c0,0,.1,0,.2-.1.5-1.5,1.1-3,1.6-4.5,0,0,0,0,0,0,0,0,0,0,0,0,0,.4,0,.8,0,1,0,.9,0,2.1,0,3.4,0,0,0,.2.2.2h.6s0,0,0,0c0,0,0,0,.1,0,0,0,0,0,0-.1v-5.2c0,0,0-.2-.2-.2Z"/>
      <path class="cls-2" d="M147.2,33.9c0,0-.1,0-.2,0-.1,0-.3,0-.4,0-.3,0-.5-.2-.5-.6,0-.7,0-1.5,0-2.2,0,0,.2,0,.3,0,.3,0,.5,0,.8,0,0,0,.1,0,.1-.2v-.3c0,0,0-.1,0-.1,0,0,0,0-.1,0h-1s0-.7,0-.7c0-.1,0-.2-.2-.2h-.2s0,0,0,0c0,0-.2,0-.2.2l-.2.7s0,0,0,0c-.1,0-.3.2-.5.2-.2,0-.2.2-.2.4,0,0,0,.1.2.1h.4c0,.7,0,1.4,0,2.1s0,1.3.9,1.4c.1,0,.3,0,.4,0,.2,0,.4,0,.7,0s.2-.1.2-.2v-.3c0,0,0-.1,0-.2,0,0,0,0-.2,0Z"/>
      <path class="cls-2" d="M87.7,30.9c-.3-.3-.8-.5-1.2-.5s0,0,0,0h-.3c-.5,0-.9.2-1.3.6-.3.4-.5.8-.5,1.3v.7c0,1,.9,1.7,1.8,1.7s0,0,0,0h.3c1,0,1.8-.9,1.7-1.9v-.7c0-.5-.2-.9-.6-1.3ZM87.4,33c0,.6-.4,1-1,1s-.1,0-.2,0c-.8,0-.9-1.1-.8-1.7,0-.4.2-.7.4-.9.2-.1.4-.2.6-.2s.2,0,.2,0c.2,0,.4.1.6.3.2.3.3.9.2,1.6Z"/>
      <path class="cls-2" d="M91,31.2c.3,0,.6,0,.8.1,0,0,.1,0,.2,0,0,0,0,0,.1-.1v-.4c.1,0,.1-.1.1-.2,0,0,0,0-.1-.1-.6-.3-1.2-.2-1.2-.2-.3,0-.8.1-1.2.5-.4.4-.5.8-.6,1.1-.1.6-.1,1.8.6,2.4.3.3.8.4,1.3.4s.7,0,.9-.2c.1,0,.2-.1.2-.3v-.4c0,0,0-.1,0-.2,0,0-.1,0-.2,0-.2.1-.5.2-.8.2-.4,0-.8-.3-.9-.3-.5-.4-.4-1.2-.4-1.3,0-.2,0-.7.5-1,0,0,.3-.2.6-.2Z"/>
      <path class="cls-2" d="M97.1,30.4s-.7,0-1.4.3c0,0,0,0,0,0,0,0,0,0,0,.1v.3c.2,0,.3.1.4,0,.5-.2,1.1-.4,1.5-.1.3.2.3.5.3.9-.3,0-.7,0-1,0-.7,0-1.1.2-1.4.6-.2.3-.3.6-.2,1,0,.6.4.9,1.1,1,.1,0,.2,0,.3,0,.6,0,1-.2,1.3-.7,0,0,0,0,0,0v.5c.2,0,.2.1.3.1h.3c0,0,.1,0,.1,0,0,0,0,0,0-.1,0-.8,0-1.5,0-2.2,0-.3,0-.6,0-.8,0-.1,0-.3-.2-.5-.3-.5-.9-.5-1.3-.6ZM97.7,32.8c0,.3,0,.6-.2.9-.2.2-.5.3-.8.3s-.1,0-.2,0c-.4,0-.5-.2-.5-.6,0-.2,0-.3.2-.5.3-.2.8-.3,1.2-.3s.2,0,.3,0c0,0,0,.1,0,.2Z"/>
      <path class="cls-2" d="M113.3,30.4c-.2,0-.4,0-.5,0-.5,0-1,.2-1.3.5-.5.5-.7,1.4-.5,2.2.1.6.4,1,.9,1.3.3.2.7.3,1.2.3s.8,0,1.2-.2c0,0,.2-.1.2-.2v-.4s0,0,0-.1c0,0,0,0-.1,0s0,0,0,0c-.6.2-1.4.4-1.9,0-.3-.2-.5-.6-.5-1h2.6c0,0,.2,0,.2-.1,0-.9-.2-2-1.3-2.2ZM113.8,32.1h-1.9s0,0,0,0c0-.5.4-1,.9-1h.1c.5,0,.9.4.9,1h0Z"/>
      <path class="cls-2" d="M125.8,31.1c-.1-.3-.3-.5-.7-.6-.2,0-.5-.1-.8-.1-.5,0-1.1.1-1.4.3,0,0,0,0,0,.2l.2.4s0,0,0,0c0,0,0,0,0,0h0c.3-.1.6-.2.9-.3.3,0,.6,0,.7.2.2.2.2.4.2.8-.4,0-.8,0-1.2,0-.2,0-1.1.2-1.3.8-.2.4-.2.9,0,1.2.2.3.4.5.8.6.2,0,.3,0,.5,0,.6,0,1-.2,1.3-.7,0,0,0,0,0,0v.5c.2,0,.2.1.3.1h.3c0,0,.1,0,.1,0s0,0,0-.1c0-.7,0-1.5,0-2.3,0-.5,0-.9-.1-1.1ZM125,32.9c0,.4,0,.7-.3.9-.2.2-.5.3-.9.3h0c-.2,0-.3,0-.4-.2-.1-.1-.2-.3-.1-.5,0-.6.7-.7,1.5-.7s.2,0,.3,0c0,0,0,.1,0,.2Z"/>
      <path class="cls-2" d="M136.5,30.9c-.3-.3-.8-.5-1.2-.5s0,0,0,0h-.3c-.5,0-.9.2-1.3.6-.3.4-.5.8-.5,1.3v.7c0,.5.2.9.6,1.3.3.3.8.5,1.2.5h.4c1,0,1.8-.9,1.7-1.9v-.7c0-.5-.2-.9-.6-1.3ZM136.2,33c0,.5-.4.9-.9.9h-.2c-.5,0-.9-.4-.9-1v-.9c0-.5.4-.9,1-.9h.2c.5,0,.9.4.9,1v.9Z"/>
      <path class="cls-2" d="M152.3,30.4h-.4c-.5,0-.9.2-1.3.6-.3.3-.5.8-.5,1.3v.7c0,.5.2.9.6,1.3.3.3.8.5,1.2.5h.4c1,0,1.8-.8,1.8-1.8v-.7c0-1-.8-1.8-1.8-1.8ZM152.9,33.7c-.2.2-.4.3-.7.3h-.2s0,0,0,0c-.3,0-.5,0-.7-.3-.2-.2-.3-.4-.3-.7v-.9c0-.5.4-1,.9-1h.2c.5,0,.9.4,1,.9v.9c0,.3,0,.5-.3.7Z"/>
      <path class="cls-2" d="M158.4,30.7c-.2-.2-.6-.3-1-.3s-.3,0-.4,0c-.4,0-.7.3-1,.6,0,0,0,0,0,0,0,0,0,0,0,0v-.4c-.1,0-.2-.1-.2-.1h-.4c0,0-.1,0-.1.1v3.9c0,0,0,.1,0,.1,0,0,0,0,.1,0h.5c.1,0,.2,0,.2-.2,0-.6,0-1.3,0-2.1,0-.5.1-.8.3-1,.2-.2.5-.3.8-.2.5,0,.7.3.7,1.1,0,.8,0,1.6,0,2.3,0,0,0,.2.2.2h.6c0,0,.2,0,.2-.2,0-1,0-1.9,0-2.7,0-.5-.2-.8-.4-1.1Z"/>
      <path class="cls-2" d="M161.5,32.1c0,0-.1,0-.2,0-.4-.2-.5-.3-.5-.4,0-.3,0-.4.3-.4.4,0,.9,0,1.3.2,0,0,.2,0,.2,0l.2-.4c0,0,0-.1,0-.2,0,0,0,0-.1,0-.4-.1-.9-.2-1.2-.2s-.5,0-.7,0c-.6.2-.9.5-.9,1.1,0,.5.3.9.8,1.1.3.1.6.2.9.4.4.2.6.4.5.7,0,.1-.1.2-.2.3-.4.2-1.3,0-1.7-.2,0,0-.1,0-.2,0,0,0,0,0,0,.2v.4c0,.1,0,.2.2.3.3,0,.7.2,1.2.2s.9,0,1.3-.3c.3-.2.4-.5.4-.9h0c0-.9-.8-1.2-1.4-1.4Z"/>
      <rect class="cls-2" x="93.2" y="30.5" width=".9" height="4.2" rx=".1" ry=".1"/>
      <path class="cls-2" d="M120.6,30.5h.6c0,0,.2,0,.2.2v3.9c0,0,0,.2-.2.2h-.6c0,0-.2,0-.2-.2v-3.9c0,0,0-.2.2-.2Z"/>
      <path class="cls-2" d="M143.8,30.5h-.6c0,0,0,0-.1,0,0,0,0,0,0,.1,0,.7,0,1.4,0,2.1,0,.2,0,.5-.1.7-.2.5-.7.6-1.2.6-.4,0-.6-.4-.6-.9,0-.8,0-1.6,0-2.4,0,0,0-.2-.2-.2h-.6c0,0-.1,0-.1,0,0,0,0,0,0,.1,0,.8,0,1.5,0,2.3,0,.6,0,1.4.8,1.7.2,0,.5.1.7.1.5,0,1-.2,1.3-.6,0,0,0,0,0,0,0,0,0,0,0,0,0,0,0,0,0,0v.4c.1,0,.2.1.3.1h.4c0,0,.1,0,.1,0,0,0,0,0,0-.1v-3.9c0,0,0-.2-.2-.2Z"/>
      <path class="cls-2" d="M148.4,30.5h.6c0,0,.2,0,.2.2v3.9c0,0,0,.2-.2.2h-.6c0,0-.2,0-.2-.2v-3.9c0,0,0-.2.2-.2Z"/>
    </g>
  </g>
  <g>
    <path class="cls-1" d="M47.9,9.3c-3.8,6.5-9.4,17.5-10.9,28.2-.5,3.9-.5,7.3,1.7,9.5,1.3,1.4,4,2.9,6.7,1.8,2.1-.9,3.4-3.3,3.6-6.1h0c0-11,0-22.1,0-33.1,0-.3-.2-.6-.5-.6,0,0,0,0,0,0-.2,0-.4.2-.4.2"/>
    <path class="cls-4" d="M37.8,1c-1.3.6-1.9,1.9-2.6,3.8,0,0-5,12.9-8.9,19.5-.3.6-1,1.6-2,1.7-.8,0-1.5-.8-1.8-1.3-2.6-5.5-5.2-11-7.8-16.5-.2-.6-.6-1.3-1.2-1.8-2.9-2.6-9.5-1.2-11.6,2.4-.7,1.2-.8,2.3-.8,2.6,0,10.1,0,20.2,0,30.3,0,.3,0,.5,0,.7h0c0,3.8,2.7,6.7,5.4,6.8,0,0,.1,0,.2,0h.1c3,0,6.4-3.3,5.9-7.7,0-5,.1-9.9.2-14.9,1.8,4.9,3.6,9.9,5.4,14.8,1.3,2.4,3.9,4,6.6,4s5.3-1.5,6.6-4c7.2-16.5,12.4-28.8,14-33.1.2-.5.7-1.9.2-3.4-.8-2.6-3.8-4.2-6.2-4.2s-1.3.1-1.8.4"/>
  </g>
</svg>