<?xml version="1.0" encoding="UTF-8"?>
<svg id="Layer_1" data-name="Layer 1" xmlns="http://www.w3.org/2000/svg" xmlns:xlink="http://www.w3.org/1999/xlink" version="1.1" viewBox="0 0 164 50">
  <defs>
    <style>
      .cls-1 {
        fill: url(#linear-gradient);
      }

      .cls-1, .cls-2, .cls-3, .cls-4, .cls-5, .cls-6, .cls-7, .cls-8, .cls-9, .cls-10, .cls-11, .cls-12, .cls-13, .cls-14, .cls-15, .cls-16, .cls-17, .cls-18, .cls-19, .cls-20, .cls-21, .cls-22, .cls-23, .cls-24, .cls-25, .cls-26, .cls-27, .cls-28, .cls-29, .cls-30 {
        stroke-width: 0px;
      }

      .cls-2 {
        fill: url(#linear-gradient-29);
      }

      .cls-3 {
        fill: url(#linear-gradient-28);
      }

      .cls-4 {
        fill: url(#linear-gradient-25);
      }

      .cls-5 {
        fill: url(#linear-gradient-11);
      }

      .cls-6 {
        fill: url(#linear-gradient-12);
      }

      .cls-7 {
        fill: url(#linear-gradient-13);
      }

      .cls-8 {
        fill: url(#linear-gradient-10);
      }

      .cls-9 {
        fill: url(#linear-gradient-17);
      }

      .cls-10 {
        fill: url(#linear-gradient-16);
      }

      .cls-11 {
        fill: url(#linear-gradient-19);
      }

      .cls-12 {
        fill: url(#linear-gradient-15);
      }

      .cls-13 {
        fill: url(#linear-gradient-23);
      }

      .cls-14 {
        fill: url(#linear-gradient-21);
      }

      .cls-15 {
        fill: url(#linear-gradient-18);
      }

      .cls-16 {
        fill: url(#linear-gradient-14);
      }

      .cls-17 {
        fill: url(#linear-gradient-22);
      }

      .cls-18 {
        fill: url(#linear-gradient-20);
      }

      .cls-19 {
        fill: url(#linear-gradient-27);
      }

      .cls-20 {
        fill: url(#linear-gradient-24);
      }

      .cls-21 {
        fill: url(#linear-gradient-26);
      }

      .cls-22 {
        fill: #0d0d0d;
      }

      .cls-23 {
        fill: url(#linear-gradient-4);
      }

      .cls-24 {
        fill: url(#linear-gradient-2);
      }

      .cls-25 {
        fill: url(#linear-gradient-3);
      }

      .cls-26 {
        fill: url(#linear-gradient-8);
      }

      .cls-27 {
        fill: url(#linear-gradient-9);
      }

      .cls-28 {
        fill: url(#linear-gradient-7);
      }

      .cls-29 {
        fill: url(#linear-gradient-5);
      }

      .cls-30 {
        fill: url(#linear-gradient-6);
      }
    </style>
    <linearGradient id="linear-gradient" x1="40.5" y1="51.3" x2="50.1" y2="8.3" gradientUnits="userSpaceOnUse">
      <stop offset="0" stop-color="#0c6ec1"/>
      <stop offset=".6" stop-color="#013697"/>
      <stop offset="1" stop-color="#001f7a"/>
    </linearGradient>
    <linearGradient id="linear-gradient-2" x1="2.5" y1="35.1" x2="43.8" y2="6.9" gradientUnits="userSpaceOnUse">
      <stop offset="0" stop-color="#0c6ec1"/>
      <stop offset=".3" stop-color="#0c73c6"/>
      <stop offset=".6" stop-color="#013697"/>
      <stop offset="1" stop-color="#001f7a"/>
    </linearGradient>
    <linearGradient id="linear-gradient-3" x1="100.3" y1="35.7" x2="100.3" y2="30.7" xlink:href="#linear-gradient"/>
    <linearGradient id="linear-gradient-4" x1="117.3" y1="35.7" x2="117.3" y2="30.7" xlink:href="#linear-gradient"/>
    <linearGradient id="linear-gradient-5" x1="138.5" y1="35.7" x2="138.5" y2="30.7" xlink:href="#linear-gradient"/>
    <linearGradient id="linear-gradient-6" x1="93.6" y1="35.7" x2="93.6" y2="30.7" xlink:href="#linear-gradient"/>
    <linearGradient id="linear-gradient-7" x1="120.9" y1="35.7" x2="120.9" y2="30.7" xlink:href="#linear-gradient"/>
    <linearGradient id="linear-gradient-8" x1="148.7" y1="35.7" x2="148.7" y2="30.7" xlink:href="#linear-gradient"/>
    <linearGradient id="linear-gradient-9" x1="74.9" y1="35.7" x2="74.9" y2="30.7" xlink:href="#linear-gradient"/>
    <linearGradient id="linear-gradient-10" x1="81.9" y1="35.7" x2="81.9" y2="30.7" xlink:href="#linear-gradient"/>
    <linearGradient id="linear-gradient-11" x1="130.6" y1="35.7" x2="130.6" y2="30.7" xlink:href="#linear-gradient"/>
    <linearGradient id="linear-gradient-12" x1="57.1" y1="35.7" x2="57.1" y2="30.7" xlink:href="#linear-gradient"/>
    <linearGradient id="linear-gradient-13" x1="63.4" y1="35.7" x2="63.4" y2="30.7" xlink:href="#linear-gradient"/>
    <linearGradient id="linear-gradient-14" x1="67.8" y1="35.7" x2="67.8" y2="30.7" xlink:href="#linear-gradient"/>
    <linearGradient id="linear-gradient-15" x1="106.9" y1="35.7" x2="106.9" y2="30.7" xlink:href="#linear-gradient"/>
    <linearGradient id="linear-gradient-16" x1="146" y1="35.7" x2="146" y2="30.7" xlink:href="#linear-gradient"/>
    <linearGradient id="linear-gradient-17" x1="86.3" y1="35.7" x2="86.3" y2="30.7" xlink:href="#linear-gradient"/>
    <linearGradient id="linear-gradient-18" x1="90.7" y1="35.7" x2="90.7" y2="30.7" xlink:href="#linear-gradient"/>
    <linearGradient id="linear-gradient-19" x1="96.8" y1="35.7" x2="96.8" y2="30.7" xlink:href="#linear-gradient"/>
    <linearGradient id="linear-gradient-20" x1="112.8" y1="35.7" x2="112.8" y2="30.7" xlink:href="#linear-gradient"/>
    <linearGradient id="linear-gradient-21" x1="124.1" y1="35.7" x2="124.1" y2="30.7" xlink:href="#linear-gradient"/>
    <linearGradient id="linear-gradient-22" x1="135.1" y1="35.7" x2="135.1" y2="30.7" xlink:href="#linear-gradient"/>
    <linearGradient id="linear-gradient-23" x1="152.1" y1="35.7" x2="152.1" y2="30.7" xlink:href="#linear-gradient"/>
    <linearGradient id="linear-gradient-24" x1="156.9" y1="35.7" x2="156.9" y2="30.7" xlink:href="#linear-gradient"/>
    <linearGradient id="linear-gradient-25" x1="161.3" y1="35.7" x2="161.3" y2="30.7" xlink:href="#linear-gradient"/>
    <linearGradient id="linear-gradient-26" x1="93.6" y1="35.7" x2="93.6" y2="30.7" xlink:href="#linear-gradient"/>
    <linearGradient id="linear-gradient-27" x1="120.9" y1="35.7" x2="120.9" y2="30.7" xlink:href="#linear-gradient"/>
    <linearGradient id="linear-gradient-28" x1="142" y1="35.7" x2="142" y2="30.7" xlink:href="#linear-gradient"/>
    <linearGradient id="linear-gradient-29" x1="148.6" y1="35.7" x2="148.6" y2="30.7" xlink:href="#linear-gradient"/>
  </defs>
  <g>
    <path class="cls-1" d="M48.9,9.7c0-.3-.2-.6-.5-.6-.3,0-.4.2-.5.2-3.8,6.5-9.4,17.4-10.9,28.2-.5,3.9-.5,7.3,1.6,9.5,1.3,1.4,4,2.9,6.7,1.8,2.1-.9,3.4-3.3,3.6-6.1h0c0-11,0-22,0-33Z"/>
    <path class="cls-24" d="M45.9,4.9c-1-3.3-5.5-5.1-8-3.9-1.3.6-1.9,1.9-2.6,3.8,0,0-5,12.9-8.9,19.4-.3.6-1,1.6-1.9,1.7-.8,0-1.5-.8-1.8-1.3-2.6-5.5-5.2-11-7.8-16.5-.2-.6-.6-1.3-1.2-1.8-2.9-2.6-9.5-1.2-11.6,2.4-.7,1.1-.8,2.3-.8,2.6,0,10.1,0,20.2,0,30.3-.4,4.1,2.5,7.4,5.4,7.6,3.1.2,6.7-3.2,6.2-7.7,0-5,.1-9.9.2-14.9,1.8,4.9,3.6,9.9,5.4,14.8,1.3,2.4,3.9,4,6.6,4s5.3-1.5,6.6-4c7.2-16.5,12.3-28.7,14-33.1.2-.5.7-1.9.2-3.4Z"/>
  </g>
  <g>
    <rect class="cls-25" x="99.8" y="28.7" width=".9" height="5.9" rx=".2" ry=".2"/>
    <path class="cls-23" d="M119.1,28.8s0,0,0,0h-.6c0,0-.1,0-.1.1,0,.8,0,1.4,0,2,0,0,0,.1,0,.2,0,0,0,0-.1-.1-.4-.4-.9-.6-1.5-.5h0c-.4,0-1.4.4-1.3,2.3,0,1.3.7,2,1.7,2s0,0,0,0c.5,0,.9-.2,1.2-.6,0,0,0,0,0,0,0,0,0,0,0,0,0,0,0,0,0,0v.4c.1,0,.2.1.3.1h.4c0,0,0,0,.1,0,0,0,0,0,0-.1v-5.6s0,0,0,0ZM118.2,33.3c-.2.5-.5.7-1.2.6-.8-.1-.8-1.1-.8-1.8,0-.4.2-.7.4-.8.2-.2.5-.2.8-.2.3,0,.5.2.6.4.3.5.3,1.4.1,1.8Z"/>
    <rect class="cls-29" x="138.1" y="28.7" width=".9" height="5.9" rx=".2" ry=".2"/>
    <path class="cls-30" d="M94,29c0,0-.2-.1-.3-.1h-.1c-.1,0-.2,0-.3.1,0,0-.1.2-.1.3h0c0,.2,0,.3.1.4,0,0,.2.1.3.1h.1c.2,0,.4-.2.4-.4h0c0-.2,0-.3-.1-.4Z"/>
    <path class="cls-28" d="M120.9,28.8h-.1c-.2,0-.4.2-.4.4h0c0,.2,0,.3.1.4,0,0,.2.1.3.1h.1c.1,0,.2,0,.3-.1,0,0,.1-.2.1-.3h0c0-.3-.2-.5-.4-.5Z"/>
    <path class="cls-26" d="M148.7,28.9h-.1c-.2,0-.4.2-.4.4h0c0,.3.2.5.4.6h.1s0,0,0,0c.2,0,.4-.2.4-.4h0c0-.3-.2-.5-.4-.6Z"/>
    <path class="cls-27" d="M76.6,33.5c.4-.4.7-1,.8-1.6,0,0,0-.1,0-.1h0s-.7,0-.7,0c0,0-.1,0-.1,0,0,.4-.3.8-.5,1.1l-1.3-1.3c.3-.2.9-.6,1.1-1.1.1-.3,0-.7,0-1-.2-.3-.5-.5-.8-.6-.4,0-.7,0-1.1,0-.4.1-.7.4-.8.7-.1.4,0,.8.2,1.2.1.2.3.4.4.5-.4.2-.6.4-.8.7-.4.5-.4,1.3,0,1.8.2.3.5.5.9.6.2,0,.5,0,.7,0,.6,0,1.2-.2,1.8-.6l.5.4c0,0,.2.1.2.1h.6c0,0,.2,0,.2-.1,0,0,0,0,0-.1l-.9-.9ZM73.5,32.5c.1-.1.3-.2.4-.3l1.5,1.4c-.4.3-.9.4-1.4.4-.3,0-.6-.2-.7-.5-.1-.3,0-.7.2-.9ZM74.6,30.9c-.1.1-.3.2-.4.3-.2-.2-.5-.6-.5-1h0c0-.1,0-.3.2-.3.1,0,.3-.2.5-.2s0,0,0,0c.3,0,.4.1.5.3,0,.3,0,.6-.3.8Z"/>
    <path class="cls-8" d="M82.1,31.5c-.3-.1-.5-.2-.7-.4-.3-.2-.4-.4-.3-.8,0-.2.1-.3.3-.4.4-.2,1.3,0,1.7.1.1,0,.2,0,.3-.1v-.4c.2-.1.1-.2,0-.3-.6-.2-1.3-.3-1.9-.2-.5,0-.9.4-1.1.7-.2.4-.2.8,0,1.2.3.7,1,1,1.6,1.2h.1c.6.3.8.6.7,1.1,0,.2-.2.3-.3.4-.6.3-1.6,0-2.1-.2,0,0-.1,0-.1,0,0,0,0,0,0,.1v.5c0,.1,0,.2.2.2.4.1.9.2,1.3.2s.3,0,.5,0c.5,0,1-.3,1.3-.7.2-.3.3-.7.2-1.2-.2-.8-.9-1.1-1.5-1.4Z"/>
    <path class="cls-5" d="M130.9,31.5c-.6-.3-1.1-.5-1.1-1.1,0-.2,0-.4.3-.5.4-.3,1.3,0,1.8.1,0,0,0,0,.1,0,0,0,0,0,.1,0l.2-.4c0,0,0-.2-.1-.2-.4-.2-.9-.3-1.4-.3-.7,0-1.2.2-1.5.6-.3.3-.4.7-.3,1.2.1.9.9,1.2,1.6,1.5.1,0,.2,0,.3.1.3.1.5.3.5.4.2.4.1.7-.1.9-.4.4-1.6.1-2.2,0,0,0-.1,0-.2,0,0,0,0,0,0,.2v.4c0,.1,0,.2.2.2.3.1.8.2,1.4.2s1,0,1.3-.3c.4-.2.6-.5.6-1,.2-1.2-.7-1.6-1.4-1.9Z"/>
    <path class="cls-6" d="M59.8,29.1h-1c0,0-.2,0-.2.1l-1.5,4.3s0,0,0,0c0,0,0,0,0,0-.5-1.5-1-3-1.5-4.3,0,0,0-.1-.1-.1h-1c0,0-.2,0-.2.2v5.2c0,0,0,.1.1.1h.6c0,0,.1,0,.1-.1,0-1.6,0-3.1,0-4.5,0,0,0,0,0,0,.5,1.5,1,3,1.5,4.4,0,.1.1.2.3.2s0,0,0,0c0,0,.2,0,.3,0,0,0,.1,0,.2,0,0,0,.1,0,.2-.1.5-1.5,1.1-3,1.6-4.5,0,0,0,0,0,0,0,1.3,0,2.5,0,3.8,0,.2,0,.5,0,.7,0,0,0,0,0,.1s0,0,.1,0h.6c0,0,.2,0,.2-.2v-5.2c0,0,0-.2-.2-.2Z"/>
    <path class="cls-7" d="M63.5,31.5l1.9-2.2c0,0,0-.1,0-.2,0,0,0,0,0,0h-.7s0,0,0,0l-2.2,2.6v-2.5c0,0,0-.1-.1-.1h-.7c0,0-.1,0-.1.1v5.3c0,0,0,.1.1.1h.7c0,0,.1,0,.1-.1v-2s.5-.4.5-.4l1.7,2.5s0,0,.1,0h.7c0,0,.1,0,.1-.1,0,0,0,0,0,0l-2-2.9Z"/>
    <path class="cls-16" d="M69.7,29.1h-3.8c0,0-.2,0-.2.2v.4c0,0,0,.2.2.2h1.5s0,4.6,0,4.6c0,0,0,.2.2.2h.6c0,0,.2,0,.2-.2v-4.6s1.5,0,1.5,0c0,0,.2,0,.2-.2v-.4c0,0,0-.2-.2-.2Z"/>
    <path class="cls-12" d="M109.6,29.1h-1c0,0-.1,0-.1.1l-1.5,4.2c0,0,0,0,0,.1,0,0,0,0,0-.1l-1.5-4.2c0,0,0-.1-.2-.1h-1c0,0-.1,0-.1.1v5.3c0,0,0,.1.1.1h.6s0,0,0,0c0,0,0,0,0,0,0-1.5,0-3.1,0-4.5,0,0,0,0,0,0,.5,1.5,1,3,1.6,4.5,0,0,0,.1.1.1h.6c0,0,.1,0,.2-.1.5-1.5,1.1-3,1.6-4.5,0,0,0,0,0,0,0,0,0,0,0,0,0,.4,0,.8,0,1,0,.9,0,2.1,0,3.4,0,0,0,.2.2.2h.6s0,0,0,0c0,0,0,0,.1,0,0,0,0,0,0-.1v-5.2c0,0,0-.2-.2-.2ZM104.9,30h0c0,0,0,0,0,0,0,0,0,0,0,0Z"/>
    <path class="cls-10" d="M147.2,33.9c0,0-.1,0-.2,0-.1,0-.3,0-.4,0-.3,0-.5-.2-.5-.6,0-.7,0-1.5,0-2.2,0,0,.2,0,.3,0,.3,0,.5,0,.8,0,0,0,.1,0,.1-.2v-.3c0,0,0-.1,0-.1s0,0-.1,0h-1s0-.7,0-.7c0-.1,0-.2-.2-.2h-.2c-.1,0-.2,0-.2.1l-.2.7s0,0,0,0c-.1,0-.3.2-.5.2-.2,0-.2.2-.2.4,0,0,0,.1.2.1h.4c0,.7,0,1.4,0,2.1s0,1.3.9,1.4c.1,0,.3,0,.4,0,.2,0,.4,0,.7,0,.1,0,.2-.1.2-.2v-.3c0,0,0-.1,0-.2,0,0,0,0-.2,0Z"/>
    <path class="cls-9" d="M87.7,30.9c-.4-.3-.8-.5-1.3-.5h-.3c-.5,0-.9.2-1.3.6s-.5.8-.5,1.3v.7c0,1,.9,1.7,1.8,1.7s0,0,0,0h.3c1,0,1.8-.9,1.7-1.9v-.7c0-.5-.2-.9-.6-1.3ZM87.4,33c-.1.7-.5,1-1.2.9-.8,0-.9-1.1-.8-1.7,0-.4.2-.7.4-.9.2-.1.4-.2.6-.2s.1,0,.2,0c.2,0,.4.1.6.3.2.3.3.9.2,1.5Z"/>
    <path class="cls-15" d="M92.1,30.6c-.4-.1-.7-.2-1.2-.2-1,0-1.6.6-1.8,1.6-.1.7,0,1.8.6,2.4.3.3.8.4,1.3.4s.7,0,.9-.2c.1,0,.2-.1.2-.3v-.4c0,0,0-.2,0-.2,0,0-.1,0-.2,0-.2.1-.5.2-.8.2-.4,0-.7,0-.9-.3-.3-.4-.3-1.1-.2-1.7.1-.5.4-.8.9-.8.3,0,.6,0,.8.1,0,0,.1,0,.2,0,0,0,0,0,.1-.1v-.4c.2-.1.1-.2,0-.3Z"/>
    <path class="cls-11" d="M98.6,31.4c0-.6-.6-1-1.4-1-.5,0-1,0-1.5.3,0,0,0,0,0,0,0,0,0,0,0,.1v.3c.2,0,.3.1.4,0,.5-.2,1.1-.4,1.5-.1.3.2.3.5.3.9-.3,0-.7,0-1,0-.7,0-1.1.2-1.4.6-.2.3-.3.6-.2,1,0,.6.4.9,1.1,1,.1,0,.2,0,.3,0,.6,0,1-.2,1.3-.7,0,0,0,0,0,0v.5c.2,0,.2.1.3.1h.3c0,0,.1,0,.1,0,0,0,0,0,0-.1,0-.8,0-1.5,0-2.2,0-.3,0-.6,0-.8ZM96.5,34c-.4,0-.5-.2-.5-.6,0-.2,0-.3.2-.5.3-.2.8-.3,1.2-.3s.2,0,.3,0c0,0,0,0,0,.2,0,.3,0,.6-.2.9-.2.3-.6.4-1,.3Z"/>
    <path class="cls-18" d="M113.3,30.4c-.7-.2-1.4,0-1.8.5-.5.5-.7,1.4-.5,2.2.1.6.4,1,.9,1.3.3.2.7.3,1.2.3s.8,0,1.2-.2c0,0,.2-.1.2-.2v-.4s0,0,0-.1c0,0,0,0-.1,0,0,0,0,0,0,0-.6.2-1.4.4-1.9,0-.3-.2-.5-.6-.5-1h2.6c0,0,.2,0,.2-.1,0-.9-.2-2-1.3-2.2ZM111.8,32.7h0q0,0,0,0h0ZM111.8,32c0-.5.4-1,.9-1h.1c.5,0,.9.4.9,1h0c0,0-1.9,0-1.9,0h0Z"/>
    <path class="cls-14" d="M125.9,32.2c0-.5,0-.9-.1-1.1-.1-.3-.3-.5-.7-.6-.7-.3-1.6,0-2.2.2,0,0,0,0,0,.2l.2.4s0,0,0,0c0,0,0,0,0,0h0c.3-.1.6-.2.9-.3.3,0,.6,0,.7.2.2.2.2.4.2.8-.4,0-.8,0-1.2,0-.2,0-1.1.2-1.3.8-.2.4-.2.9,0,1.2.2.3.4.5.8.6.2,0,.3,0,.5,0,.6,0,1-.2,1.3-.7,0,0,0,0,0,0v.5c.2,0,.2.1.3.1h.3c0,0,.1,0,.1,0s0,0,0-.1c0-.7,0-1.5,0-2.3ZM125,32.6c0,0,0,.1,0,.2,0,.4,0,.7-.3.9-.2.2-.5.3-.9.3h0c-.2,0-.3,0-.4-.2-.1-.1-.2-.3-.1-.5,0-.6.7-.7,1.5-.7s.2,0,.3,0Z"/>
    <path class="cls-17" d="M136.5,30.9c-.4-.3-.8-.5-1.3-.5h-.3c-.5,0-.9.2-1.3.6s-.5.8-.5,1.3v.7c0,.5.2.9.6,1.3.3.3.8.5,1.2.5s0,0,0,0h.3c1,0,1.8-.9,1.7-1.9v-.7c0-.5-.2-.9-.6-1.3ZM136.1,32.1v.9c0,.5-.4.9-1,.9h-.2c-.5,0-.9-.4-.9-1v-.9c0-.5.4-.9,1-.9h.2c.5,0,.9.4.9,1Z"/>
    <path class="cls-13" d="M152.2,30.4s0,0,0,0h-.3c-.5,0-.9.2-1.3.6-.3.3-.5.8-.5,1.3v.7c0,.5.2.9.6,1.3.3.3.8.5,1.2.5s0,0,0,0h.3c1,0,1.8-.8,1.8-1.8v-.7c0-1-.8-1.8-1.8-1.8ZM153.1,33c0,.3,0,.5-.3.7s-.4.3-.7.3h-.2s0,0,0,0c-.3,0-.5,0-.7-.3-.2-.2-.3-.4-.3-.7v-.9c0-.5.4-1,.9-1h.2s0,0,0,0c.5,0,.9.4.9.9v.9Z"/>
    <path class="cls-20" d="M158.3,30.7c-.3-.3-.8-.4-1.4-.3-.4,0-.7.3-1,.6,0,0,0,0,0,0,0,0,0,0,0,0v-.4c-.1,0-.2-.1-.2-.1h-.4c0,0-.1,0-.1.1v3.9c0,0,0,.1,0,.1,0,0,0,0,.1,0h.5c.1,0,.2,0,.2-.2,0-.6,0-1.3,0-2.1,0-.5.1-.8.3-1,.2-.2.5-.3.8-.2.5,0,.7.3.7,1.1,0,.8,0,1.6,0,2.3,0,0,0,.2.2.2h.6c0,0,.2,0,.2-.2,0-1,0-1.9,0-2.7,0-.5-.2-.8-.4-1.1Z"/>
    <path class="cls-4" d="M161.4,32.1c0,0-.1,0-.2,0-.4-.2-.5-.3-.5-.4,0-.3,0-.4.3-.4.4,0,.9,0,1.3.2,0,0,.2,0,.2,0l.2-.4c0,0,0-.1,0-.2,0,0,0,0-.1,0-.7-.2-1.4-.3-2-.1-.6.2-.9.5-.9,1.1,0,.5.3.9.8,1.1.3.1.6.2.9.4.4.2.6.4.5.7,0,.1-.1.2-.2.3-.4.2-1.3,0-1.7-.2,0,0-.1,0-.2,0,0,0,0,0,0,.2v.4c0,.1,0,.2.2.3.3,0,.7.2,1.2.2.5,0,.9,0,1.3-.3.3-.2.4-.5.4-.9,0-.9-.8-1.2-1.4-1.4Z"/>
    <rect class="cls-21" x="93.2" y="30.5" width=".9" height="4.2" rx=".1" ry=".1"/>
    <rect class="cls-19" x="120.4" y="30.5" width=".9" height="4.2" rx=".2" ry=".2"/>
    <path class="cls-3" d="M143.7,30.5h-.6c0,0,0,0-.1,0,0,0,0,0,0,.1,0,.7,0,1.4,0,2.1,0,.2,0,.5-.1.7-.2.5-.7.6-1.2.5-.4,0-.6-.4-.6-.9,0-.8,0-1.6,0-2.4,0,0,0-.2-.2-.2h-.6c0,0-.1,0-.1,0,0,0,0,0,0,.1,0,.8,0,1.5,0,2.3,0,.6,0,1.4.8,1.7.2,0,.5.1.7.1.5,0,1-.2,1.3-.6,0,0,0,0,0,0,0,0,0,0,0,0,0,0,0,0,0,0v.4c.1,0,.2.1.3.1h.4c0,0,.1,0,.1,0,0,0,0,0,0-.1v-3.9c0,0,0-.2-.2-.2Z"/>
    <rect class="cls-2" x="148.2" y="30.5" width=".9" height="4.2" rx=".2" ry=".2"/>
  </g>
  <g>
    <path class="cls-22" d="M86.2,17.3c1-.2,2.1,0,3,.4,0,0,0,0,0,0,0,0,0,0,0,0l.7-1.7s0,0,0,0c-1-.4-2-.6-3.2-.6-2.4,0-4.3,1.3-4.8,3.8-.2.9-.2,1.8,0,2.8.4,2.1,1.8,3.4,3.9,3.5,1.3,0,2.7,0,4-.5,0,0,0,0,0,0v-5s0,0,0,0h-3.9s0,0,0,0v1.8s0,0,0,0h1.7s0,0,0,0v1.7s0,0,0,0c-.4,0-.8.1-1.2.1-1.1,0-1.8-.6-2.1-1.6-.2-.7-.3-1.5-.1-2.3.2-1.1.9-2,2-2.3Z"/>
    <path class="cls-22" d="M109.3,15.4s0,0,0,0h-2.6s0,0,0,0l-3.4,9.8s0,0,0,0c0,0,0,0,0,0h2.3s0,0,0,0l.7-2.2s0,0,0,0h3.3s0,0,0,0l.7,2.2s0,0,0,0h2.3s0,0,0,0c0,0,0,0,0,0l-3.4-9.8ZM109,21.1h-2.1c0,0,0,0,0,0l1.1-3.5c0,0,0,0,0,0l1.1,3.5s0,0,0,0c0,0,0,0,0,0Z"/>
    <path class="cls-22" d="M137.4,15.4s0,0,0,0h-2.6s0,0,0,0l-3.4,9.8s0,0,0,0c0,0,0,0,0,0h2.3s0,0,0,0l.7-2.2s0,0,0,0h3.3s0,0,0,0l.7,2.2s0,0,0,0h2.3s0,0,0,0c0,0,0,0,0,0l-3.4-9.8ZM137.2,21.1h-2.1s0,0,0,0c0,0,0,0,0,0l1.1-3.5c0,0,0,0,0,0l1.1,3.5s0,0,0,0c0,0,0,0,0,0Z"/>
    <path class="cls-22" d="M71.4,15.4c-1.2,0-2.3,0-3.5,0,0,0,0,0,0,0v9.7s0,0,0,0c1.2,0,2.3,0,3.3,0,2.8,0,4.7-1.8,4.8-4.6,0-1.1,0-2.2-.6-3.1-.8-1.4-2.4-2.1-4-2.2ZM71.4,23.3c-.4,0-.9,0-1.3,0,0,0,0,0,0,0v-6s0,0,0,0c.4,0,.8,0,1.1,0,1.3,0,2.1.8,2.4,2,.3,1.8,0,3.8-2.2,4Z"/>
    <rect class="cls-22" x="77.8" y="15.4" width="2.2" height="9.8" rx="0" ry="0"/>
    <rect class="cls-22" x="92.1" y="15.4" width="2.2" height="9.8" rx="0" ry="0"/>
    <path class="cls-22" d="M103.1,15.4h-7.4s0,0,0,0v1.8s0,0,0,0h2.5s0,0,0,0v7.9s0,0,0,0c0,0,0,0,0,0h2.2s0,0,0,0v-7.9s0,0,0,0c0,0,0,0,0,0h2.5s0,0,0,0v-1.8h0s0,0,0,0Z"/>
    <path class="cls-22" d="M119.8,23.4c-1.2,0-2.5,0-3.8,0,0,0,0,0,0,0,0,0,0,0,0,0v-7.8s0,0,0,0h-2.1s0,0,0,0v9.7h0s0,0,0,0h6s0,0,0,0v-1.8h0s0,0,0,0Z"/>
    <path class="cls-22" d="M131,23.4c-1.3,0-2.6,0-3.8,0,0,0,0,0,0,0,0,0,0,0,0,0v-7.8s0,0,0,0h-2.1s0,0,0,0v9.7h0s0,0,0,0h6c0,0,0,0,0,0v-1.7s0,0,0,0Z"/>
    <path class="cls-22" d="M149.2,21.8c-.1-.9-.6-1.5-1.4-1.7,0,0,0,0,0,0,1-.4,1.3-1.5,1.2-2.5-.1-.8-.5-1.4-1.3-1.7-.6-.3-1.3-.4-2.1-.4-1.2,0-2.4,0-3.7,0,0,0,0,0,0,0v9.8s0,0,0,0c1.2,0,2.4,0,3.6,0,.2,0,.5,0,.7,0,1.9-.2,3.3-1.3,3-3.4ZM144.1,17.3h1.4s0,0,0,0c.6,0,1.1.4,1.1.8v.3s0,0,0,0c0,.5-.5.8-1.1.8h-1.4s0,0,0,0v-1.9s0,0,0,0ZM146.9,22.3c0,.6-.5,1-1.2,1.1h-1.5s0,0,0,0v-2.2s0,0,0,0c0,0,0,0,0,0h1.5c.7,0,1.2.4,1.2,1v.3s0,0,0,0Z"/>
  </g>
</svg>