<?xml version="1.0" encoding="UTF-8"?>
<svg id="Layer_1" data-name="Layer 1" xmlns="http://www.w3.org/2000/svg" xmlns:xlink="http://www.w3.org/1999/xlink" version="1.1" viewBox="0 0 164 50">
  <defs>
    <style>
      .cls-1 {
        fill: url(#linear-gradient);
      }

      .cls-1, .cls-2, .cls-3, .cls-4, .cls-5, .cls-6, .cls-7, .cls-8, .cls-9, .cls-10, .cls-11, .cls-12, .cls-13, .cls-14, .cls-15, .cls-16, .cls-17, .cls-18, .cls-19, .cls-20, .cls-21, .cls-22, .cls-23, .cls-24, .cls-25, .cls-26, .cls-27, .cls-28, .cls-29, .cls-30 {
        stroke-width: 0px;
      }

      .cls-2 {
        fill: url(#linear-gradient-29);
      }

      .cls-3 {
        fill: url(#linear-gradient-28);
      }

      .cls-4 {
        fill: url(#linear-gradient-25);
      }

      .cls-5 {
        fill: url(#linear-gradient-11);
      }

      .cls-6 {
        fill: url(#linear-gradient-12);
      }

      .cls-7 {
        fill: url(#linear-gradient-13);
      }

      .cls-8 {
        fill: url(#linear-gradient-10);
      }

      .cls-9 {
        fill: url(#linear-gradient-17);
      }

      .cls-10 {
        fill: url(#linear-gradient-16);
      }

      .cls-11 {
        fill: url(#linear-gradient-19);
      }

      .cls-12 {
        fill: url(#linear-gradient-15);
      }

      .cls-13 {
        fill: url(#linear-gradient-23);
      }

      .cls-14 {
        fill: url(#linear-gradient-21);
      }

      .cls-15 {
        fill: url(#linear-gradient-18);
      }

      .cls-16 {
        fill: url(#linear-gradient-14);
      }

      .cls-17 {
        fill: url(#linear-gradient-22);
      }

      .cls-18 {
        fill: url(#linear-gradient-20);
      }

      .cls-19 {
        fill: url(#linear-gradient-27);
      }

      .cls-20 {
        fill: url(#linear-gradient-24);
      }

      .cls-21 {
        fill: url(#linear-gradient-26);
      }

      .cls-22 {
        fill: #0d0d0d;
      }

      .cls-23 {
        fill: url(#linear-gradient-4);
      }

      .cls-24 {
        fill: url(#linear-gradient-2);
      }

      .cls-25 {
        fill: url(#linear-gradient-3);
      }

      .cls-26 {
        fill: url(#linear-gradient-8);
      }

      .cls-27 {
        fill: url(#linear-gradient-9);
      }

      .cls-28 {
        fill: url(#linear-gradient-7);
      }

      .cls-29 {
        fill: url(#linear-gradient-5);
      }

      .cls-30 {
        fill: url(#linear-gradient-6);
      }
    </style>
    <linearGradient id="linear-gradient" x1="40.3" y1=".6" x2="49.9" y2="43.6" gradientTransform="translate(0 52) scale(1 -1)" gradientUnits="userSpaceOnUse">
      <stop offset="0" stop-color="#0c6ec1"/>
      <stop offset=".6" stop-color="#013697"/>
      <stop offset="1" stop-color="#001f7a"/>
    </linearGradient>
    <linearGradient id="linear-gradient-2" x1="2.4" y1="16.8" x2="43.7" y2="45" gradientTransform="translate(0 52) scale(1 -1)" gradientUnits="userSpaceOnUse">
      <stop offset="0" stop-color="#0c6ec1"/>
      <stop offset=".3" stop-color="#0c73c6"/>
      <stop offset=".6" stop-color="#013697"/>
      <stop offset="1" stop-color="#001f7a"/>
    </linearGradient>
    <linearGradient id="linear-gradient-3" x1="100.2" y1="16.2" x2="100.2" y2="21.2" xlink:href="#linear-gradient"/>
    <linearGradient id="linear-gradient-4" x1="117.3" y1="16.2" x2="117.3" y2="21.2" xlink:href="#linear-gradient"/>
    <linearGradient id="linear-gradient-5" x1="138.5" y1="16.2" x2="138.5" y2="21.2" xlink:href="#linear-gradient"/>
    <linearGradient id="linear-gradient-6" x1="93.6" y1="16.2" x2="93.6" y2="21.2" xlink:href="#linear-gradient"/>
    <linearGradient id="linear-gradient-7" x1="120.8" y1="16.2" x2="120.8" y2="21.2" xlink:href="#linear-gradient"/>
    <linearGradient id="linear-gradient-8" x1="148.6" y1="16.2" x2="148.6" y2="21.2" xlink:href="#linear-gradient"/>
    <linearGradient id="linear-gradient-9" x1="75.2" y1="16.2" x2="75.2" y2="21.2" xlink:href="#linear-gradient"/>
    <linearGradient id="linear-gradient-10" x1="82" y1="16.2" x2="82" y2="21.2" xlink:href="#linear-gradient"/>
    <linearGradient id="linear-gradient-11" x1="130.6" y1="16.2" x2="130.6" y2="21.2" xlink:href="#linear-gradient"/>
    <linearGradient id="linear-gradient-12" x1="57.1" y1="16.2" x2="57.1" y2="21.2" xlink:href="#linear-gradient"/>
    <linearGradient id="linear-gradient-13" x1="63.5" y1="16.2" x2="63.5" y2="21.2" xlink:href="#linear-gradient"/>
    <linearGradient id="linear-gradient-14" x1="67.8" y1="16.2" x2="67.8" y2="21.2" xlink:href="#linear-gradient"/>
    <linearGradient id="linear-gradient-15" x1="107" y1="16.2" x2="107" y2="21.2" xlink:href="#linear-gradient"/>
    <linearGradient id="linear-gradient-16" x1="146" y1="16.2" x2="146" y2="21.2" xlink:href="#linear-gradient"/>
    <linearGradient id="linear-gradient-17" x1="86.1" y1="16.2" x2="86.1" y2="21.2" xlink:href="#linear-gradient"/>
    <linearGradient id="linear-gradient-18" x1="90.5" y1="16.2" x2="90.5" y2="21.2" xlink:href="#linear-gradient"/>
    <linearGradient id="linear-gradient-19" x1="96.9" y1="16.2" x2="96.9" y2="21.2" xlink:href="#linear-gradient"/>
    <linearGradient id="linear-gradient-20" x1="112.8" y1="16.2" x2="112.8" y2="21.2" xlink:href="#linear-gradient"/>
    <linearGradient id="linear-gradient-21" x1="124" y1="16.2" x2="124" y2="21.2" xlink:href="#linear-gradient"/>
    <linearGradient id="linear-gradient-22" x1="134.9" y1="16.2" x2="134.9" y2="21.2" xlink:href="#linear-gradient"/>
    <linearGradient id="linear-gradient-23" x1="152" y1="16.2" x2="152" y2="21.2" xlink:href="#linear-gradient"/>
    <linearGradient id="linear-gradient-24" x1="156.9" y1="16.2" x2="156.9" y2="21.2" xlink:href="#linear-gradient"/>
    <linearGradient id="linear-gradient-25" x1="161.2" y1="16.2" x2="161.2" y2="21.2" xlink:href="#linear-gradient"/>
    <linearGradient id="linear-gradient-26" x1="93.6" y1="16.2" x2="93.6" y2="21.2" xlink:href="#linear-gradient"/>
    <linearGradient id="linear-gradient-27" x1="120.8" y1="16.2" x2="120.8" y2="21.2" xlink:href="#linear-gradient"/>
    <linearGradient id="linear-gradient-28" x1="141.9" y1="16.2" x2="141.9" y2="21.2" xlink:href="#linear-gradient"/>
    <linearGradient id="linear-gradient-29" x1="148.6" y1="16.2" x2="148.6" y2="21.2" xlink:href="#linear-gradient"/>
  </defs>
  <g>
    <path class="cls-1" d="M48.8,9.8c0-.3-.2-.6-.5-.6s-.4.2-.5.2c-3.8,6.5-9.4,17.4-10.9,28.2-.5,3.9-.5,7.3,1.6,9.5,1.3,1.4,4,2.9,6.7,1.8,2.1-.9,3.4-3.3,3.6-6.1h0c0-11,0-22,0-33Z"/>
    <path class="cls-24" d="M45.8,5c-1-3.3-5.5-5.1-8-3.9-1.3.6-1.9,1.9-2.6,3.8,0,0-5,12.9-8.9,19.4-.3.6-1,1.6-1.9,1.7-.8,0-1.5-.8-1.8-1.3-2.6-5.5-5.2-11-7.8-16.5-.2-.6-.6-1.3-1.2-1.8-2.9-2.6-9.5-1.2-11.6,2.4-.7,1.1-.8,2.3-.8,2.6v30.3c-.4,4.1,2.5,7.4,5.4,7.6,3.1.2,6.7-3.2,6.2-7.7,0-5,.1-9.9.2-14.9,1.8,4.9,3.6,9.9,5.4,14.8,1.3,2.4,3.9,4,6.6,4s5.3-1.5,6.6-4c7.2-16.5,12.3-28.7,14-33.1.2-.5.7-1.9.2-3.4Z"/>
  </g>
  <g>
    <rect class="cls-25" x="99.7" y="28.8" width=".9" height="5.9" rx=".2" ry=".2"/>
    <path class="cls-23" d="M119,28.9h-.6s0,0,0,.1v2.2h0c-.4-.5-.9-.7-1.5-.6h0c-.4,0-1.4.4-1.3,2.3,0,1.3.7,2,1.7,2s0,0,0,0c.5,0,.9-.2,1.2-.6h0v.4c0,0,.2,0,.3,0h.5v-5.7h0v-.2ZM118.1,33.4c-.2.5-.5.7-1.2.6-.8,0-.8-1.1-.8-1.8s.2-.7.4-.8c.2-.2.5-.2.8-.2s.5.2.6.4c.3.5.3,1.4,0,1.8h0Z"/>
    <rect class="cls-29" x="138" y="28.8" width=".9" height="5.9" rx=".2" ry=".2"/>
    <path class="cls-30" d="M93.9,29.1s-.2-.1-.3-.1h0c0,0-.2,0-.3.1,0,0,0,.2,0,.3h0c0,.2,0,.3,0,.4,0,0,.2.1.3.1h0c.2,0,.4-.2.4-.4h0c0-.2,0-.3,0-.4Z"/>
    <path class="cls-28" d="M120.8,28.9h0c-.2,0-.4.2-.4.4h0c0,.2,0,.3,0,.4,0,0,.2.1.3.1h0c0,0,.2,0,.3-.1,0,0,0-.2,0-.3h0c0-.3-.2-.5-.4-.5Z"/>
    <path class="cls-26" d="M148.6,29h-.1c-.2,0-.4.2-.4.4h0c0,.3.2.5.4.6h.1c.2,0,.4-.2.4-.4h0c0-.3-.2-.5-.4-.6Z"/>
    <path class="cls-27" d="M76.5,33.6c.4-.4.7-1,.8-1.6h0c0-.1-.7-.1-.7-.1h0c0,.4-.3.8-.5,1.1l-1.3-1.3c.3-.2.9-.6,1.1-1.1,0-.3,0-.7,0-1-.2-.3-.5-.5-.8-.6h-1.1c-.4.1-.7.4-.8.7,0,.4,0,.8.2,1.2s.3.4.4.5c-.4.2-.6.4-.8.7-.4.5-.4,1.3,0,1.8.2.3.5.5.9.6h.7c.6,0,1.2-.2,1.8-.6l.5.4h.2c0,0,.6,0,.6,0,0,0,.2,0,.2,0h0c0,0-.9-1-.9-1l-.4.3ZM73.4,32.6c0,0,.3-.2.4-.3l1.5,1.4c-.4.3-.9.4-1.4.4s-.6-.2-.7-.5,0-.7.2-.9h0ZM74.5,31c0,.1-.3.2-.4.3-.2-.2-.5-.6-.5-1h0c0-.1,0-.3.2-.3s.3-.2.5-.2,0,0,0,0c.3,0,.4.1.5.3,0,.3,0,.6-.3.8h0Z"/>
    <path class="cls-8" d="M82,31.6c-.3-.1-.5-.2-.7-.4-.3-.2-.4-.4-.3-.8,0-.2,0-.3.3-.4.4-.2,1.3,0,1.7.1,0,0,.2,0,.3-.1v-.4c.2-.1,0-.2,0-.3-.6-.2-1.3-.3-1.9-.2-.5,0-.9.4-1.1.7-.2.4-.2.8,0,1.2.3.7,1,1,1.6,1.2h0c.6.3.8.6.7,1.1,0,.2-.2.3-.3.4-.6.3-1.6,0-2.1-.2h0v.6c0,0,0,.2.2.2.4,0,.9.2,1.3.2h.5c.5,0,1-.3,1.3-.7.2-.3.3-.7.2-1.2-.2-.8-.9-1.1-1.5-1.4l-.2.4Z"/>
    <path class="cls-5" d="M130.8,31.6c-.6-.3-1.1-.5-1.1-1.1s0-.4.3-.5c.4-.3,1.3,0,1.8.1h.2l.2-.4s0-.2-.1-.2c-.4-.2-.9-.3-1.4-.3s-1.2.2-1.5.6c-.3.3-.4.7-.3,1.2.1.9.9,1.2,1.6,1.5.1,0,.2,0,.3,0,.3,0,.5.3.5.4.2.4.1.7-.1.9-.4.4-1.6,0-2.2,0h-.2v.6c0,0,0,.2.2.2.3,0,.8.2,1.4.2s1,0,1.3-.3c.4-.2.6-.5.6-1,.2-1.2-.7-1.6-1.4-1.9h-.1Z"/>
    <path class="cls-6" d="M59.7,29.2h-1s-.2,0-.2.1l-1.5,4.3h0c-.5-1.5-1-3-1.5-4.3,0,0,0-.1,0-.1h-1s-.2,0-.2.2v5.2s0,0,0,0h.6s0,0,0,0v-4.5h0c.5,1.5,1,3,1.5,4.4,0,0,0,.2.3.2s0,0,0,0h.5s0,0,.2,0c.5-1.5,1.1-3,1.6-4.5h0v4.5h0c0,.2,0,0,0,0h.6s.2,0,.2-.2v-5.2s0-.2-.2-.2h0Z"/>
    <path class="cls-7" d="M63.4,31.6l1.9-2.2v-.2h-.7l-2.2,2.6v-2.5s0-.1,0-.1h-.7s0,0,0,.1v5.3s0,0,0,0h.7s0,0,0,0v-2l.5-.4,1.7,2.5h.8s0,0,0,0h0l-2-2.9h0Z"/>
    <path class="cls-16" d="M69.6,29.2h-3.8s-.2,0-.2.2v.4s0,.2.2.2h1.5v4.6s0,.2.2.2h.6s.2,0,.2-.2v-4.6h1.5s.2,0,.2-.2v-.4s0-.2-.2-.2h-.2Z"/>
    <path class="cls-12" d="M109.5,29.2h-1s0,0,0,.1l-1.5,4.2h0q0,0,0,0l-1.5-4.2s0-.1-.2-.1h-1s0,0,0,.1v5.3s0,0,0,0h.6v-4.5h0c.5,1.5,1,3,1.6,4.5,0,0,0,0,0,0h.6s0,0,.2,0c.5-1.5,1.1-3,1.6-4.5h0v4.4s0,.2.2.2h.7v-5.3s0-.2-.2-.2h0ZM104.8,30.1h0Z"/>
    <path class="cls-10" d="M147.1,34h-.6c-.3,0-.5-.2-.5-.6v-2.2h1.1s.1,0,.1-.2v-.3h0q0-.1-.1-.1h-1v-.7c0-.1,0-.2-.2-.2h-.2c-.1,0-.2,0-.2.1l-.2.7h0c-.1,0-.3.2-.5.2s-.2.2-.2.4c0,0,0,.1.2.1h.4v2.1c0,.7,0,1.3.9,1.4h1.1c.1,0,.2,0,.2-.2v-.5h-.3Z"/>
    <path class="cls-9" d="M87.6,31c-.4-.3-.8-.5-1.3-.5h-.3c-.5,0-.9.2-1.3.6s-.5.8-.5,1.3v.7c0,1,.9,1.7,1.8,1.7s0,0,0,0h.3c1,0,1.8-.9,1.7-1.9v-.7c0-.5-.2-.9-.6-1.3h.2ZM87.3,33.1c0,.7-.5,1-1.2.9-.8,0-.9-1.1-.8-1.7,0-.4.2-.7.4-.9.2-.1.4-.2.6-.2h.2c.2,0,.4.1.6.3.2.3.3.9.2,1.5h0Z"/>
    <path class="cls-15" d="M92,30.7c-.4-.1-.7-.2-1.2-.2-1,0-1.6.6-1.8,1.6,0,.7,0,1.8.6,2.4.3.3.8.4,1.3.4s.7,0,.9-.2c0,0,.2,0,.2-.3v-.6h-.2c-.2,0-.5.2-.8.2s-.7,0-.9-.3c-.3-.4-.3-1.1-.2-1.7,0-.5.4-.8.9-.8s.6,0,.8.1h.3v-.5c.2-.1,0-.2,0-.3v.2Z"/>
    <path class="cls-11" d="M98.5,31.5c0-.6-.6-1-1.4-1s-1,0-1.5.3h0v.4c.2,0,.3.1.4,0,.5-.2,1.1-.4,1.5-.1.3.2.3.5.3.9h-1c-.7,0-1.1.2-1.4.6-.2.3-.3.6-.2,1,0,.6.4.9,1.1,1h.3c.6,0,1-.2,1.3-.7h0v.5c.2,0,.2,0,.3,0h.4v-3.1h-.1ZM96.4,34.1c-.4,0-.5-.2-.5-.6s0-.3.2-.5c.3-.2.8-.3,1.2-.3s.2,0,.3,0v.2c0,.3,0,.6-.2.9-.2.3-.6.4-1,.3Z"/>
    <path class="cls-18" d="M113.2,30.5c-.7-.2-1.4,0-1.8.5-.5.5-.7,1.4-.5,2.2,0,.6.4,1,.9,1.3.3.2.7.3,1.2.3s.8,0,1.2-.2c0,0,.2,0,.2-.2v-.4h0q0,0,0,0h0c-.6.2-1.4.4-1.9,0-.3-.2-.5-.6-.5-1h2.6s.2,0,.2,0c0-.9-.2-2-1.3-2.2h-.2ZM111.7,32.8h0s0,0,0,0h0ZM111.7,32.1c0-.5.4-1,.9-1h0c.5,0,.9.4.9,1h-1.9Z"/>
    <path class="cls-14" d="M125.8,32.3c0-.5,0-.9,0-1.1,0-.3-.3-.5-.7-.6-.7-.3-1.6,0-2.2.2v.2l.2.4h0c.3-.1.6-.2.9-.3.3,0,.6,0,.7.2.2.2.2.4.2.8h-1.2c-.2,0-1.1.2-1.3.8-.2.4-.2.9,0,1.2s.4.5.8.6h.5c.6,0,1-.2,1.3-.7h0v.5c.2,0,.2,0,.3,0h.4v-2.4h.2ZM124.9,32.7v.2c0,.4,0,.7-.3.9-.2.2-.5.3-.9.3h0c-.2,0-.3,0-.4-.2,0,0-.2-.3,0-.5,0-.6.7-.7,1.5-.7s.2,0,.3,0h0Z"/>
    <path class="cls-17" d="M136.4,31c-.4-.3-.8-.5-1.3-.5h-.3c-.5,0-.9.2-1.3.6s-.5.8-.5,1.3v.7c0,.5.2.9.6,1.3.3.3.8.5,1.2.5s0,0,0,0h.3c1,0,1.8-.9,1.7-1.9v-.7c0-.5-.2-.9-.6-1.3h.2ZM136,32.2v.9c0,.5-.4.9-1,.9h-.2c-.5,0-.9-.4-.9-1v-.9c0-.5.4-.9,1-.9h.2c.5,0,.9.4.9,1Z"/>
    <path class="cls-13" d="M152.1,30.5h-.3c-.5,0-.9.2-1.3.6-.3.3-.5.8-.5,1.3v.7c0,.5.2.9.6,1.3.3.3.8.5,1.2.5s0,0,0,0h.3c1,0,1.8-.8,1.8-1.8v-.7c0-1-.8-1.8-1.8-1.8h0ZM153,33.1c0,.3,0,.5-.3.7s-.4.3-.7.3h-.2c-.3,0-.5,0-.7-.3-.2-.2-.3-.4-.3-.7v-.9c0-.5.4-1,.9-1h.2c.5,0,.9.4.9.9v.9h.2Z"/>
    <path class="cls-20" d="M158.2,30.8c-.3-.3-.8-.4-1.4-.3-.4,0-.7.3-1,.6h0v-.4c-.1,0-.2-.1-.2-.1h-.4s-.1,0-.1.1v3.9h0q0,0,.1,0h.5c.1,0,.2,0,.2-.2v-2.1c0-.5.1-.8.3-1s.5-.3.8-.2c.5,0,.7.3.7,1.1v2.3s0,.2.2.2h.6s.2,0,.2-.2v-2.7c0-.5-.2-.8-.4-1.1h-.1Z"/>
    <path class="cls-4" d="M161.3,32.2h-.2c-.4-.2-.5-.3-.5-.4,0-.3,0-.4.3-.4s.9,0,1.3.2h.2l.2-.4v-.2h-.1c-.7-.2-1.4-.3-2-.1-.6.2-.9.5-.9,1.1s.3.9.8,1.1c.3,0,.6.2.9.4.4.2.6.4.5.7,0,0-.1.2-.2.3-.4.2-1.3,0-1.7-.2h-.2v.6c0,0,0,.2.2.3.3,0,.7.2,1.2.2s.9,0,1.3-.3c.3-.2.4-.5.4-.9,0-.9-.8-1.2-1.4-1.4v-.6Z"/>
    <rect class="cls-21" x="93.1" y="30.6" width=".9" height="4.2" rx=".1" ry=".1"/>
    <rect class="cls-19" x="120.3" y="30.6" width=".9" height="4.2" rx=".2" ry=".2"/>
    <path class="cls-3" d="M143.6,30.6h-.7v2.2c0,.2,0,.5-.1.7-.2.5-.7.6-1.2.5-.4,0-.6-.4-.6-.9v-2.4s0-.2-.2-.2h-.7v2.4c0,.6,0,1.4.8,1.7.2,0,.5,0,.7,0,.5,0,1-.2,1.3-.6h0v.4c.1,0,.2,0,.3,0h.5v-4s0-.2-.2-.2v.2Z"/>
    <rect class="cls-2" x="148.1" y="30.6" width=".9" height="4.2" rx=".2" ry=".2"/>
  </g>
  <g>
    <path class="cls-22" d="M86.1,17.4c1-.2,2.1,0,3,.4h0l.7-1.7h0c-1-.4-2-.6-3.2-.6-2.4,0-4.3,1.3-4.8,3.8-.2.9-.2,1.8,0,2.8.4,2.1,1.8,3.4,3.9,3.5,1.3,0,2.7,0,4-.5h0v-5h-3.9v1.8h1.7v1.7h0c-.4,0-.8.1-1.2.1-1.1,0-1.8-.6-2.1-1.6-.2-.7-.3-1.5,0-2.3.2-1.1.9-2,2-2.3h0Z"/>
    <path class="cls-22" d="M109.2,15.5h-2.6l-3.4,9.8h2.3l.7-2.2h3.3l.7,2.2h2.3l-3.4-9.8h0ZM108.9,21.2h-2.1l1.1-3.5h0l1.1,3.5h0Z"/>
    <path class="cls-22" d="M137.3,15.5h-2.6l-3.4,9.8h2.3l.7-2.2h3.3l.7,2.2h2.3l-3.4-9.8h0ZM137.1,21.2h-2.1l1.1-3.5h0l1.1,3.5h-.1Z"/>
    <path class="cls-22" d="M71.3,15.5h-3.5v9.7h3.3c2.8,0,4.7-1.8,4.8-4.6,0-1.1,0-2.2-.6-3.1-.8-1.4-2.4-2.1-4-2.2v.2ZM71.3,23.4h-1.3v-6h1.1c1.3,0,2.1.8,2.4,2,.3,1.8,0,3.8-2.2,4Z"/>
    <rect class="cls-22" x="77.7" y="15.5" width="2.2" height="9.8"/>
    <rect class="cls-22" x="92" y="15.5" width="2.2" height="9.8"/>
    <path class="cls-22" d="M103,15.5h-7.4v1.8h2.5v7.9h2.2v-7.9h2.5v-1.8h.2Z"/>
    <path class="cls-22" d="M119.7,23.5h-3.8v-7.8h-2.1v9.7h6v-1.8h0Z"/>
    <path class="cls-22" d="M130.9,23.5h-3.8v-7.8h-2.1v9.7h6v-1.7h0v-.2Z"/>
    <path class="cls-22" d="M149.1,21.9c-.1-.9-.6-1.5-1.4-1.7h0c1-.4,1.3-1.5,1.2-2.5-.1-.8-.5-1.4-1.3-1.7-.6-.3-1.3-.4-2.1-.4h-3.7v9.8h4.3c1.9-.2,3.3-1.3,3-3.4h0ZM144,17.4h1.4c.6,0,1.1.4,1.1.8v.3h0c0,.5-.5.8-1.1.8h-1.4v-1.9h0ZM146.8,22.4c0,.6-.5,1-1.2,1.1h-1.5v-2.2h1.5c.7,0,1.2.4,1.2,1v.3h0v-.2Z"/>
  </g>
</svg>