<?xml version="1.0" encoding="UTF-8"?>
<svg id="Layer_1" data-name="Layer 1" xmlns="http://www.w3.org/2000/svg" version="1.1" viewBox="0 0 928 469">
  <defs>
    <style>
      .cls-1 {
        fill: #00a0e0;
        fill-opacity: 0;
        stroke-width: 0px;
      }
    </style>
  </defs>
  <path class="cls-1" d="M148.2,360c14.4-4.9-5.1,10.2-53.4,35l-29.3,16.1c3.8-4.4.7-12.5,82.7-51.1h0Z"/>
  <path class="cls-1" d="M362,246.1c-15.6,10.7-29.3,16.1-47.4,25.3l2.9-4.8c22.9-13.1,37.3-18,44.5-20.5h0Z"/>
  <path class="cls-1" d="M815.9,6.8l11-6.8c-11,6.8-15.7,10.7-14.8,11.2-23.8,12.7-49.2,24.4-39.1,17.1,18.2-9.2,19.9-8.3,42.8-21.4h0Z"/>
  <path class="cls-1" d="M341.6,305.9c72.2-37.5,176.5-96,244.3-135.8l120.5-62.4c-56.8,33.1-21.5,20.3-17.3,22.7,25.4-11.7,37.7-24.3,65.7-34.6-17.4,9.7-47.5,25.3-58.5,32.1,33.6-13.7,126.9-65.3,105.3-45l-56.8,33.1c8.2,11,112.3-28.2,60.1,14.1,62-30.3,45-13.8,85-30.4l-35.7,19c61.9-30.2-11.4,13.1-2.4,11.6l-33.1,20.4c-58.6,32.2-31.4,8.4-118.4,57.1-47.8,31.6,87-35.7,26.4,1.8-13.1,12.1,28-10.3,48.9-18.1,36.5-18.5,34.8-19.5,76.8-41.4,28.5-3.6-161.5,97.7-140.2,96.7,30.2-15.6,109.2-49.4,149.8-78.5l-39.1,17.1,39.4-23.4c2.6,1.4,1.3,7.2,42.5-15.2-133.6,74.5,136.8-53.3-72.9,50,31.4-21.4,24.1-18.9-32.3,7.9-8,15-58.8,51.4-56.6,59.1l61.9-30.2c-59.4,31.6-97.1,56-111.1,67.6,13.7-5.4,9.8-1,39.1-17.1,36.5-18.5,15.6-23.7,123.8-73.5-20.7,20.8-70.7,57.8-154.2,108.3-16.2,3.9-1.3-7.2-83.3,31.4-86.6,29.4-31.6-17.6-135.7,21.6,41.1-22.4,55.1-34,98-55.5,28.4-16.5-5.1-2.9,53.4-35-65,22.1-36.7-7.4-35.2-19.5-104.3,58.4-71.7,31.2-116.3,51.7,44.9-26.8,22.4-19.9,19-21.8-18.3,9.3-26.3,11.2-55.6,27.3,14.5-4.9-8.4,8.2-17.8,16-78.4,40.4.4-6.3,2.5-11.6l43.7-21c-.5-6.7,128.8-83.6,51.6-48.9l-72.5,43.8c-37,11.8,61.4-50-33.3-5.6-25,18.5,36.6-5.5-64.8,48.1-53.9,28.3-53.5,22-32.3,7.9,95.8-63.2-127.4,45.6,17.5-42h0Z"/>
  <path class="cls-1" d="M172.5,412.3c9.4,5.2,147.6-73.1,138.8-58.6-54.7,27.8-98,55.5-101,60.4,32.7-14.2,12.4.4,15.1,1.8-10.3,7.3-76,41.9-79.4,40,104.7-64.7-72.6,17.8,26.5-43.5h0Z"/>
  <path class="cls-1" d="M468.1,246.8c10.6-.5-116.2,64.7-81.8,51.5-67.4,33.6-2.5-1.4-6.8-3.8l38.3-17.6,50.4-30.1h0Z"/>
  <path class="cls-1" d="M315.7,369.1c9-1.5-19.8,21.3-91.1,59.3-5.6,3.4-42,21.9-28.4,16.6,21.1-14.1,25.4-24.7,119.5-75.8Z"/>
  <path class="cls-1" d="M594.3,207c13.6-5.4,15.2-4.4,17.9-3-13.6,5.4-45.4,20-17.9,3Z"/>
  <path class="cls-1" d="M450.6,301.8c53-28.7,14.4-4.9,15.3-4.4l-22,13.6c-13.5,5.3-21.7,7.4,6.7-9.2Z"/>
  <path class="cls-1" d="M303.6,407.6c-19.5,15-70,32.2-76.8,41.4l-8.8,1.5,82.2-44.8,3.4,1.9h0Z"/>
  <path class="cls-1" d="M232.9,452.3c19.1-8.8,26.3-11.2,10.6-.5l-31,15.1c-12.7,5.9,22.1-13.6,20.4-14.6Z"/>
  <path class="cls-1" d="M417.8,348.2c19.9-8.3-22.1,13.6-38.6,23.8-24.6,12.2,30.5-21.8,38.6-23.8Z"/>
  <path class="cls-1" d="M927,100.9c-67.4,33.6-29.7,9.3-51.4,16.7,21.6-7.3,59-25.4,51.4-16.7Z"/>
  <path class="cls-1" d="M75.4,364.8c22-13.6,2.1-5.3-17,3.5l-22.9,13.2,39.9-16.6h0Z"/>
  <path class="cls-1" d="M53.6,404.4c79.3-40,40.2-22.8,96.3-56.4,13.1-12.1-51.5,16.7-50.2,10.9l-44.6,20.5c-24.1,18.9-44,40.2-1.5,25Z"/>
  <path class="cls-1" d="M444.3,201.2c32.2-20.9-26,5-28.5,3.6-7.7,8.7-8,15-10.9,19.8,18.3-9.3,28.3-16.5,39.4-23.4h0Z"/>
  <path class="cls-1" d="M11.8,348.9c6,3.3-51.2,42.7,50.6-4.2,14.9-11.2,38.6-23.8,51.7-35.9,104.8-51.7-10.6,13.6-6.2,15.9,20.3-14.5,66.6-34.1,75.5-35.6-24.1,18.9-9.2,20.8-1.5,25,39.1-17.1-15.5,23.7,84-30.8,10.7-.6-66.1,40.8-86.4,55.4,123.5-54.2-207.7,130.3-59.5,63.9-60.3,31.2-48.8,31.1-52.6,35.5-1.2,5.8-2,18.3,108.7-43.1,74.2-42.8-51.4,16.7,21-27,116.6-71,50.6-17.2,151.9-70.8-19,8.7,69.6-39,36-25.3,49.8-17.7,110-61.9,173.6-91.2,56.3-39.8,57.2-39.3,183.5-111.4-23.4,6.4-111.2,54.6-160.4,79-53.5,22,61.1-43.7,32.1-33.9,158.7-79.9,116.6-71,110.6-74.4,4.2-10.6-139.6,71.2-129.9,57.1,73.3-43.3,103.6-45.9,181.6-93.1l-33.5,13.7c-62,30.2-141.3,70.2-185.9,90.7-1.7-.9-4.3-2.4,19.5-15,27.2-10.8,85.7-42.9,117.9-63.8-25.4,11.7-31.8,14.6-56.4,26.8-165.8,95.4-13.1-.9-113.3,46.9-145.1,61.5,195-111.4,115.6-84.5-144.6,81.3-80.7,32.7-138.8,58.6,2.1-5.3,42.4-28.2,87.4-55-16.6,7.6-26.2,9.5-54.9,24.2C338.3,152.8,157.4,258.4,0,354.5c3.9-1.7,7.6-3.4,11.8-5.6Z"/>
</svg>