<?xml version="1.0" encoding="UTF-8"?>
<svg id="Layer_1" data-name="Layer 1" xmlns="http://www.w3.org/2000/svg" version="1.1" viewBox="0 0 291 273">
  <defs>
    <style>
      .cls-1 {
        fill: #ffec00;
        stroke-width: 0px;
      }
    </style>
  </defs>
  <path class="cls-1" d="M79.7,4.5c-.7,1.7-2.6,2.5-4.2,1.8-1.7-.7-2.5-2.6-1.8-4.2.7-1.7,2.6-2.5,4.2-1.8,1.7.7,2.5,2.6,1.8,4.2Z"/>
  <path class="cls-1" d="M109.8,16.7c-.7,1.7-2.6,2.5-4.2,1.8-1.7-.7-2.5-2.6-1.8-4.2.7-1.7,2.6-2.5,4.2-1.8,1.7.7,2.5,2.6,1.8,4.2h0Z"/>
  <path class="cls-1" d="M140,29c-.7,1.7-2.6,2.5-4.2,1.8-1.7-.7-2.5-2.6-1.8-4.2.7-1.7,2.6-2.5,4.2-1.8,1.7.7,2.5,2.6,1.8,4.2Z"/>
  <path class="cls-1" d="M170.1,41.2c-.7,1.7-2.6,2.5-4.2,1.8-1.7-.7-2.5-2.6-1.8-4.2.7-1.7,2.6-2.5,4.2-1.8,1.7.7,2.5,2.6,1.8,4.2Z"/>
  <path class="cls-1" d="M200.2,53.5c-.7,1.7-2.6,2.5-4.2,1.8-1.7-.7-2.5-2.6-1.8-4.2.7-1.7,2.6-2.5,4.2-1.8,1.7.7,2.5,2.6,1.8,4.2Z"/>
  <path class="cls-1" d="M230.3,65.7c-.7,1.7-2.6,2.5-4.2,1.8-1.7-.7-2.5-2.6-1.8-4.2.7-1.7,2.6-2.5,4.2-1.8,1.7.7,2.5,2.6,1.8,4.2Z"/>
  <path class="cls-1" d="M260.4,77.9c-.7,1.7-2.6,2.5-4.2,1.8-1.7-.7-2.5-2.6-1.8-4.2.7-1.7,2.6-2.5,4.2-1.8,1.7.7,2.5,2.6,1.8,4.2Z"/>
  <path class="cls-1" d="M290.5,90.2c-.7,1.7-2.6,2.5-4.2,1.8-1.7-.7-2.5-2.6-1.8-4.2.7-1.7,2.6-2.5,4.2-1.8,1.7.7,2.5,2.6,1.8,4.2Z"/>
  <path class="cls-1" d="M67.5,34.6c-.7,1.7-2.6,2.5-4.2,1.8-1.7-.7-2.5-2.6-1.8-4.2.7-1.7,2.6-2.5,4.2-1.8s2.5,2.6,1.8,4.2Z"/>
  <path class="cls-1" d="M97.6,46.8c-.7,1.7-2.6,2.5-4.2,1.8-1.7-.7-2.5-2.6-1.8-4.2.7-1.7,2.6-2.5,4.2-1.8,1.7.7,2.5,2.6,1.8,4.2Z"/>
  <path class="cls-1" d="M127.7,59.1c-.7,1.7-2.6,2.5-4.2,1.8-1.7-.7-2.5-2.6-1.8-4.2.7-1.7,2.6-2.5,4.2-1.8,1.7.7,2.5,2.6,1.8,4.2Z"/>
  <path class="cls-1" d="M157.8,71.3c-.7,1.7-2.6,2.5-4.2,1.8-1.7-.7-2.5-2.6-1.8-4.2.7-1.7,2.6-2.5,4.2-1.8,1.7.7,2.5,2.6,1.8,4.2h0Z"/>
  <path class="cls-1" d="M187.9,83.6c-.7,1.7-2.6,2.5-4.2,1.8-1.7-.7-2.5-2.6-1.8-4.2.7-1.7,2.6-2.5,4.2-1.8,1.7.7,2.5,2.6,1.8,4.2Z"/>
  <path class="cls-1" d="M218,95.8c-.7,1.7-2.6,2.5-4.2,1.8-1.7-.7-2.5-2.6-1.8-4.2.7-1.7,2.6-2.5,4.2-1.8,1.7.7,2.5,2.6,1.8,4.2h0Z"/>
  <path class="cls-1" d="M248.1,108.1c-.7,1.7-2.6,2.5-4.2,1.8-1.7-.7-2.5-2.6-1.8-4.2.7-1.7,2.6-2.5,4.2-1.8s2.5,2.6,1.8,4.2Z"/>
  <path class="cls-1" d="M278.2,120.3c-.7,1.7-2.6,2.5-4.2,1.8-1.7-.7-2.5-2.6-1.8-4.2.7-1.7,2.6-2.5,4.2-1.8,1.7.7,2.5,2.6,1.8,4.2h0Z"/>
  <path class="cls-1" d="M55.3,64.7c-.7,1.7-2.6,2.5-4.2,1.8-1.7-.7-2.5-2.6-1.8-4.2.7-1.7,2.6-2.5,4.2-1.8,1.7.7,2.5,2.6,1.8,4.2Z"/>
  <path class="cls-1" d="M85.4,76.9c-.7,1.7-2.6,2.5-4.2,1.8-1.7-.7-2.5-2.6-1.8-4.2.7-1.7,2.6-2.5,4.2-1.8,1.7.7,2.5,2.6,1.8,4.2Z"/>
  <path class="cls-1" d="M115.5,89.2c-.7,1.7-2.6,2.5-4.2,1.8-1.7-.7-2.5-2.6-1.8-4.2.7-1.7,2.6-2.5,4.2-1.8,1.7.7,2.5,2.6,1.8,4.2Z"/>
  <path class="cls-1" d="M145.6,101.4c-.7,1.7-2.6,2.5-4.2,1.8-1.7-.7-2.5-2.6-1.8-4.2.7-1.7,2.6-2.5,4.2-1.8,1.7.7,2.5,2.6,1.8,4.2Z"/>
  <path class="cls-1" d="M175.7,113.7c-.7,1.7-2.6,2.5-4.2,1.8-1.7-.7-2.5-2.6-1.8-4.2.7-1.7,2.6-2.5,4.2-1.8,1.7.7,2.5,2.6,1.8,4.2Z"/>
  <path class="cls-1" d="M205.8,125.9c-.7,1.7-2.6,2.5-4.2,1.8-1.7-.7-2.5-2.6-1.8-4.2.7-1.7,2.6-2.5,4.2-1.8,1.7.7,2.5,2.6,1.8,4.2Z"/>
  <path class="cls-1" d="M235.9,138.2c-.7,1.7-2.6,2.5-4.2,1.8-1.7-.7-2.5-2.6-1.8-4.2.7-1.7,2.6-2.5,4.2-1.8,1.7.7,2.5,2.6,1.8,4.2Z"/>
  <path class="cls-1" d="M266,150.4c-.7,1.7-2.6,2.5-4.2,1.8-1.7-.7-2.5-2.6-1.8-4.2.7-1.7,2.6-2.5,4.2-1.8,1.7.7,2.5,2.6,1.8,4.2Z"/>
  <path class="cls-1" d="M43,94.8c-.7,1.7-2.6,2.5-4.2,1.8-1.7-.7-2.5-2.6-1.8-4.2.7-1.7,2.6-2.5,4.2-1.8,1.7.7,2.5,2.6,1.8,4.2Z"/>
  <path class="cls-1" d="M73.1,107c-.7,1.7-2.6,2.5-4.2,1.8-1.7-.7-2.5-2.6-1.8-4.2.7-1.7,2.6-2.5,4.2-1.8,1.7.7,2.5,2.6,1.8,4.2Z"/>
  <path class="cls-1" d="M103.2,119.3c-.7,1.7-2.6,2.5-4.2,1.8-1.7-.7-2.5-2.6-1.8-4.2.7-1.7,2.6-2.5,4.2-1.8,1.7.7,2.5,2.6,1.8,4.2Z"/>
  <path class="cls-1" d="M133.3,131.5c-.7,1.7-2.6,2.5-4.2,1.8-1.7-.7-2.5-2.6-1.8-4.2.7-1.7,2.6-2.5,4.2-1.8,1.7.7,2.5,2.6,1.8,4.2Z"/>
  <path class="cls-1" d="M163.4,143.8c-.7,1.7-2.6,2.5-4.2,1.8-1.7-.7-2.5-2.6-1.8-4.2.7-1.7,2.6-2.5,4.2-1.8,1.7.7,2.5,2.6,1.8,4.2Z"/>
  <path class="cls-1" d="M193.5,156c-.7,1.7-2.6,2.5-4.2,1.8-1.7-.7-2.5-2.6-1.8-4.2.7-1.7,2.6-2.5,4.2-1.8,1.7.7,2.5,2.6,1.8,4.2Z"/>
  <path class="cls-1" d="M223.6,168.3c-.7,1.7-2.6,2.5-4.2,1.8-1.7-.7-2.5-2.6-1.8-4.2.7-1.7,2.6-2.5,4.2-1.8,1.7.7,2.5,2.6,1.8,4.2Z"/>
  <path class="cls-1" d="M253.7,180.5c-.7,1.7-2.6,2.5-4.2,1.8-1.7-.7-2.5-2.6-1.8-4.2.7-1.7,2.6-2.5,4.2-1.8,1.7.7,2.5,2.6,1.8,4.2Z"/>
  <path class="cls-1" d="M30.8,124.9c-.7,1.7-2.6,2.5-4.2,1.8-1.7-.7-2.5-2.6-1.8-4.2.7-1.7,2.6-2.5,4.2-1.8,1.7.7,2.5,2.6,1.8,4.2Z"/>
  <path class="cls-1" d="M60.9,137.1c-.7,1.7-2.6,2.5-4.2,1.8-1.7-.7-2.5-2.6-1.8-4.2.7-1.7,2.6-2.5,4.2-1.8,1.7.7,2.5,2.6,1.8,4.2Z"/>
  <path class="cls-1" d="M91,149.4c-.7,1.7-2.6,2.5-4.2,1.8-1.7-.7-2.5-2.6-1.8-4.2.7-1.7,2.6-2.5,4.2-1.8,1.7.7,2.5,2.6,1.8,4.2Z"/>
  <path class="cls-1" d="M121.1,161.6c-.7,1.7-2.6,2.5-4.2,1.8-1.7-.7-2.5-2.6-1.8-4.2.7-1.7,2.6-2.5,4.2-1.8,1.7.7,2.5,2.6,1.8,4.2Z"/>
  <path class="cls-1" d="M151.2,173.9c-.7,1.7-2.6,2.5-4.2,1.8-1.7-.7-2.5-2.6-1.8-4.2.7-1.7,2.6-2.5,4.2-1.8,1.7.7,2.5,2.6,1.8,4.2Z"/>
  <path class="cls-1" d="M181.3,186.1c-.7,1.7-2.6,2.5-4.2,1.8-1.7-.7-2.5-2.6-1.8-4.2s2.6-2.5,4.2-1.8c1.7.7,2.5,2.6,1.8,4.2Z"/>
  <path class="cls-1" d="M211.4,198.4c-.7,1.7-2.6,2.5-4.2,1.8-1.7-.7-2.5-2.6-1.8-4.2.7-1.7,2.6-2.5,4.2-1.8,1.7.7,2.5,2.6,1.8,4.2Z"/>
  <path class="cls-1" d="M241.5,210.6c-.7,1.7-2.6,2.5-4.2,1.8-1.7-.7-2.5-2.6-1.8-4.2.7-1.7,2.6-2.5,4.2-1.8,1.7.7,2.5,2.6,1.8,4.2Z"/>
  <path class="cls-1" d="M18.5,155c-.7,1.7-2.6,2.5-4.2,1.8-1.7-.7-2.5-2.6-1.8-4.2.7-1.7,2.6-2.5,4.2-1.8,1.7.7,2.5,2.6,1.8,4.2h0Z"/>
  <path class="cls-1" d="M48.6,167.2c-.7,1.7-2.6,2.5-4.2,1.8-1.7-.7-2.5-2.6-1.8-4.2.7-1.7,2.6-2.5,4.2-1.8,1.7.7,2.5,2.6,1.8,4.2Z"/>
  <path class="cls-1" d="M78.7,179.5c-.7,1.7-2.6,2.5-4.2,1.8-1.7-.7-2.5-2.6-1.8-4.2.7-1.7,2.6-2.5,4.2-1.8,1.7.7,2.5,2.6,1.8,4.2h0Z"/>
  <path class="cls-1" d="M108.8,191.7c-.7,1.7-2.6,2.5-4.2,1.8-1.7-.7-2.5-2.6-1.8-4.2.7-1.7,2.6-2.5,4.2-1.8,1.7.7,2.5,2.6,1.8,4.2Z"/>
  <path class="cls-1" d="M138.9,204c-.7,1.7-2.6,2.5-4.2,1.8-1.7-.7-2.5-2.6-1.8-4.2.7-1.7,2.6-2.5,4.2-1.8,1.7.7,2.5,2.6,1.8,4.2h0Z"/>
  <path class="cls-1" d="M169,216.2c-.7,1.7-2.6,2.5-4.2,1.8-1.7-.7-2.5-2.6-1.8-4.2.7-1.7,2.6-2.5,4.2-1.8,1.7.7,2.5,2.6,1.8,4.2Z"/>
  <path class="cls-1" d="M199.1,228.5c-.7,1.7-2.6,2.5-4.2,1.8-1.7-.7-2.5-2.6-1.8-4.2.7-1.7,2.6-2.5,4.2-1.8,1.7.7,2.5,2.6,1.8,4.2Z"/>
  <path class="cls-1" d="M229.2,240.7c-.7,1.7-2.6,2.5-4.2,1.8s-2.5-2.6-1.8-4.2c.7-1.7,2.6-2.5,4.2-1.8,1.7.7,2.5,2.6,1.8,4.2Z"/>
  <path class="cls-1" d="M6.3,185.1c-.7,1.7-2.6,2.5-4.2,1.8-1.7-.7-2.5-2.6-1.8-4.2.7-1.7,2.6-2.5,4.2-1.8,1.7.7,2.5,2.6,1.8,4.2Z"/>
  <path class="cls-1" d="M36.4,197.3c-.7,1.7-2.6,2.5-4.2,1.8-1.7-.7-2.5-2.6-1.8-4.2.7-1.7,2.6-2.5,4.2-1.8,1.7.7,2.5,2.6,1.8,4.2Z"/>
  <path class="cls-1" d="M66.5,209.6c-.7,1.7-2.6,2.5-4.2,1.8-1.7-.7-2.5-2.6-1.8-4.2.7-1.7,2.6-2.5,4.2-1.8,1.7.7,2.5,2.6,1.8,4.2Z"/>
  <path class="cls-1" d="M96.6,221.8c-.7,1.7-2.6,2.5-4.2,1.8-1.7-.7-2.5-2.6-1.8-4.2.7-1.7,2.6-2.5,4.2-1.8,1.7.7,2.5,2.6,1.8,4.2Z"/>
  <path class="cls-1" d="M126.7,234.1c-.7,1.7-2.6,2.5-4.2,1.8-1.7-.7-2.5-2.6-1.8-4.2.7-1.7,2.6-2.5,4.2-1.8,1.7.7,2.5,2.6,1.8,4.2h0Z"/>
  <path class="cls-1" d="M156.8,246.3c-.7,1.7-2.6,2.5-4.2,1.8-1.7-.7-2.5-2.6-1.8-4.2s2.6-2.5,4.2-1.8c1.7.7,2.5,2.6,1.8,4.2Z"/>
  <path class="cls-1" d="M186.9,258.6c-.7,1.7-2.6,2.5-4.2,1.8-1.7-.7-2.5-2.6-1.8-4.2.7-1.7,2.6-2.5,4.2-1.8,1.7.7,2.5,2.6,1.8,4.2Z"/>
  <path class="cls-1" d="M217,270.8c-.7,1.7-2.6,2.5-4.2,1.8-1.7-.7-2.5-2.6-1.8-4.2.7-1.7,2.6-2.5,4.2-1.8,1.7.7,2.5,2.6,1.8,4.2Z"/>
</svg>