<?xml version="1.0" encoding="UTF-8"?>
<svg id="Layer_1" data-name="Layer 1" xmlns="http://www.w3.org/2000/svg" version="1.1" viewBox="0 0 819 601">
  <defs>
    <style>
      .cls-1 {
        fill: #00a0e0;
        fill-opacity: .1;
        stroke-width: 0px;
      }
    </style>
  </defs>
  <path class="cls-1" d="M208.1,479.7c9.4-7.6-1,9-30.3,40.6l-17.5,19.9c1.7-4.3-2.9-9.5,47.8-60.5h0Z"/>
  <path class="cls-1" d="M336.5,336.8c-8.8,12.2-17.5,19.9-28.5,31.7l.9-4.4c13.5-16,22.9-23.6,27.6-27.3h0Z"/>
  <path class="cls-1" d="M609.9,35.5l6.4-8.1c-6.4,8.1-8.8,12.2-8,12.3-14.3,15.9-30.1,31.5-24.5,23.3,11.1-11.8,12.6-11.6,26.1-27.6h0Z"/>
  <path class="cls-1" d="M337.5,386.9c43.6-47.5,105.5-119.4,145.2-167.4l72.9-79.2c-33.4,40.1-10.5,21-6.7,21.6,15.8-15.6,21.5-28.4,39.6-43.6-10.3,11.9-28.5,31.7-34.9,39.8,21.3-19.3,76.9-83.1,66.3-62l-33.3,40c9.1,6,76-51.4,48.6-5.8,38-39.3,29.8-22.5,55.1-45.7l-21.4,23.9c38-39.3-5,12.8,1.3,9.3l-19.1,24.2c-34.9,39.8-21.2,14.8-72.8,74.6-27.1,36.5,55.2-50.2,20.2-5.8-6.5,12.6,18.1-15.3,31.5-26.8,22.2-23.7,20.6-23.9,46-51.6,20.3-10.4-93.8,116.6-78.3,110.1,18.2-19.8,68-66.4,90.4-99.1l-24.5,23.3,23.1-28.1c2.3.4,2.9,5,27.5-22.8-79.4,91.7,87.5-76.8-40.7,57,17.6-24.4,12.8-20.6-21.9,14.7-1.9,13.3-29.9,54.2-26.1,59.3l37.9-39.3c-35.7,39.7-57.2,68-64.4,80.5,8.7-7.8,7-3.4,24.5-23.3,22.2-23.7,5.2-21.9,72.3-88.3-9.8,21.1-37.1,62.2-85.6,122.5-11,7.3-2.9-5-53.6,45.9-56.6,45.4-28.3-4.5-95.3,52.9,24.6-27.8,31.8-40.3,58-67.9,16.7-20-4.6-.7,30.3-40.6-42.5,34.1-29.4,4.4-31.5-4.9-61.9,71.8-45,42.7-72.6,70.1,26.2-32.1,11.3-20.9,8.3-21.4-11.1,11.9-16.6,15.5-34,35.4,9.4-7.6-4.1,8.4-8.9,16.7-47.5,51.4-1.4-4.8-1.3-9.3l26.9-27.5c-2.2-4.9,73.4-97.2,25.2-50.4l-42.2,52.3c-24.4,18.8,32.2-53.9-26.3,4.9-13.7,20.6,25.8-14-35.3,53.4-32.5,35.7-33.9,30.9-21.9,14.7,54.3-73.1-82.6,68.5,1.7-36h0Z"/>
  <path class="cls-1" d="M240.4,512.1c8.4,1.4,90.2-94.5,87.6-81.3-33.2,35.5-58,67.9-58.9,72.4,20.5-19.5,9.4-3.1,11.7-2.8-5.7,8.3-45.3,51.8-48.4,51.4,60.5-76.6-49.3,32.9,8-39.6h0Z"/>
  <path class="cls-1" d="M415.8,308.6c7.8-3.3-69,79.7-47,60.6-41.1,43.3-2.3-.4-6.1-1l23.8-23.5,29.4-36.1h0Z"/>
  <path class="cls-1" d="M335.3,441c6.3-3.6-9,21.2-51.8,68.9-3.2,4.1-25.4,27.8-16.7,20,11.9-16.2,12.2-25.3,68.5-88.9Z"/>
  <path class="cls-1" d="M499,244.7c8.7-7.7,10.2-7.4,12.5-7.1-8.7,7.7-28.4,27.2-12.5,7.1Z"/>
  <path class="cls-1" d="M417.6,354.3c31.7-35.8,9.4-7.6,10.2-7.4l-12.7,16.1c-8.6,7.6-14.2,11.4,2.5-8.7Z"/>
  <path class="cls-1" d="M336.8,473c-10.4,16.5-43.4,43-46,51.7l-6.2,3.5,49.1-55.7,3.1.5h0Z"/>
  <path class="cls-1" d="M296.2,525.5c11.9-11.7,16.6-15.5,7.8-3.3l-19,19.7c-7.9,7.8,12.8-16.1,11.2-16.4Z"/>
  <path class="cls-1" d="M405.8,397.7c12.6-11.6-12.8,16.1-22.3,28.2-15,15.7,16.8-24.5,22.3-28.2Z"/>
  <path class="cls-1" d="M718.2,75.5c-41.1,43.3-19.6,15-33.8,26.4,14.1-11.3,37.1-34.9,33.8-26.4Z"/>
  <path class="cls-1" d="M155.1,503c12.7-16.1.1-4.5-11.7,7.2l-13.5,16,25.2-23.2h0Z"/>
  <path class="cls-1" d="M149.6,538.4c48.3-51.3,23.8-27.9,56.4-68.2,6.5-12.6-33.8,26.4-34.5,21.8l-27.7,27.4c-12.8,20.6-21.9,41.9,5.7,19Z"/>
  <path class="cls-1" d="M385.7,281.1c18.3-24.3-18,10.8-20.3,10.4-3.3,8.6-1.9,13.3-2.8,17.7,11.1-11.8,16.6-20,23.1-28.1h0Z"/>
  <path class="cls-1" d="M103.4,508.4c5.4.9-26.6,45.7,36.6-16.8,8.1-12.4,22.3-28.2,28.8-40.8,64.1-67-4.2,13-.3,13.5,11.2-16.3,40.4-43.5,46.6-47-12.8,20.6-1.2,18,5.7,19.1,24.5-23.3-5.2,21.9,54.3-45.8,7.8-3.3-38.2,48.3-49.4,64.7,77.4-73.9-119.5,153.4-27,63.7-36.5,39.6-27.9,36.4-29.5,40.7.7,4.6,3.5,14.2,69.4-61.6,43.7-52-33.8,26.4,8.3-25.8,67.7-84.5,33-26.5,94-93.9-11.8,11.7,41.3-47.9,20-28.6,32.3-26.7,65.2-75.9,104.7-115,31.2-44.9,32-44.8,106.6-132.7-15.7,11.1-68,70.8-98.1,102.4-33.9,30.9,33.7-49.1,14.7-34,96.6-102.6,67.6-84.5,62.3-85.4.2-9-84.7,90.9-81.3,77.8,42.9-52.1,64.7-62.3,110.1-118.6l-21.3,19.3c-38,39.3-86.3,90.6-113.9,118-1.5-.2-3.8-.6,10.4-16.5,17.4-15.4,52.2-55.2,70.6-79.5-15.8,15.6-19.7,19.5-34.8,35.3-97.7,116-10,2.8-71.8,65.7-91.5,85.2,115.1-135.9,63.3-94.3-85.7,99.8-51.2,46.3-87.6,81.3,0-4.5,24-32.5,50.2-64.6-10.3,10.2-17,14.2-34.3,32.9-116.9,131.9-223.1,259.7-314.4,373.9,2.4-2.3,4.7-4.6,7.2-7.4Z"/>
</svg>